SplineFontDB: 3.2
FontName: Kinnari-Bold
FullName: Kinnari Bold
FamilyName: Kinnari
Weight: Bold
Copyright: Copyright (C) 1999 Db Type. All Rights Reserved.\nCopyright (C) 2007 National Electronics and Computer Technology Center. All Rights Reserved.
Version: 003.001
ItalicAngle: 0
UnderlinePosition: -70
UnderlineWidth: 25
Ascent: 800
Descent: 200
InvalidEm: 0
LayerCount: 3
Layer: 0 0 "Back" 1
Layer: 1 0 "Fore" 0
Layer: 2 1 "Quad" 0
FSType: 0
OS2Version: 4
OS2_WeightWidthSlopeOnly: 0
OS2_UseTypoMetrics: 1
CreationTime: 1136287438
ModificationTime: 1587805735
PfmFamily: 17
TTFWeight: 700
TTFWidth: 5
LineGap: 0
VLineGap: 0
Panose: 0 0 0 0 0 0 0 0 0 0
OS2TypoAscent: 1286
OS2TypoAOffset: 0
OS2TypoDescent: -496
OS2TypoDOffset: 0
OS2TypoLinegap: 0
OS2WinAscent: 1286
OS2WinAOffset: 0
OS2WinDescent: 496
OS2WinDOffset: 0
HheadAscent: 1286
HheadAOffset: 0
HheadDescent: -496
HheadDOffset: 0
OS2Vendor: 'PfEd'
Lookup: 4 0 1 "'liga' Standard Ligatures in Latin lookup 2" { "'liga' Standard Ligatures in Latin lookup 2 subtable"  } ['liga' ('latn' <'dflt' > ) ]
Lookup: 6 0 0 "'ccmp' Thai Tone Tilde Reordering" { "'ccmp' Thai Tone Tilde Reordering"  } ['ccmp' ('DFLT' <'dflt' > 'latn' <'dflt' > 'thai' <'KUY ' 'MLY ' 'PAL ' 'SAN ' 'THA ' 'dflt' > ) ]
Lookup: 6 0 0 "'ccmp' Thai Tone Macron Reordering" { "'ccmp' Thai Tone Macron Reordering"  } ['ccmp' ('DFLT' <'dflt' > 'latn' <'dflt' > 'thai' <'KUY ' 'MLY ' 'PAL ' 'SAN ' 'THA ' 'dflt' > ) ]
Lookup: 6 0 0 "'ccmp' Thai Below Vowel Macron Reordering" { "'ccmp' Thai Below Vowel Macron Reordering"  } ['ccmp' ('DFLT' <'dflt' > 'latn' <'dflt' > 'thai' <'KUY ' 'MLY ' 'PAL ' 'SAN ' 'THA ' 'dflt' > ) ]
Lookup: 4 0 0 "'ccmp' Patani Malay Ligatures" { "'ccmp' Patani Malay Ligatures"  } ['ccmp' ('DFLT' <'dflt' > 'thai' <'KUY ' 'MLY ' 'PAL ' 'SAN ' 'THA ' 'dflt' > ) ]
Lookup: 6 0 0 "'ccmp' Thai Conditional Descender Removal" { "'ccmp' Thai Conditional Descender Removal"  } ['ccmp' ('DFLT' <'dflt' > 'thai' <'KUY ' 'MLY ' 'THA ' 'dflt' > ) ]

StartChar: .notdef
Encoding: 0 0 0
Width: 384
Flags: W
HStem: 0 23<23 361> 568 23<23 361>
VStem: 0 23<23 568> 361 23<23 568>
LayerCount: 3
Fore
SplineSet
23 568 m 1
 23 23 l 1
 361 23 l 1
 361 568 l 1
 23 568 l 1
384 0 m 1
 0 0 l 1
 0 591 l 1
 384 591 l 1
 384 0 l 1
EndSplineSet
Validated: 1
Layer: 2
SplineSet
23 568 m 1,0,-1
 23 23 l 1,1,-1
 361 23 l 1,2,-1
 361 568 l 1,3,-1
 23 568 l 1,0,-1
384 0 m 1,4,-1
 0 0 l 1,5,-1
 0 591 l 1,6,-1
 384 591 l 1,7,-1
 384 0 l 1,4,-1
EndSplineSet
EndChar

StartChar: exclam
Encoding: 33 33 2
Width: 333
Flags: W
HStem: -14 140<117.8 216.592> 680 20G<142 194>
VStem: 97 140<6.13959 105.478> 101 131<503.292 679.732>
LayerCount: 3
Fore
SplineSet
232 608 m 0xd0
 232 591 230 573 229 558 c 2
 184 177 l 1
 149 177 l 1
 104 559 l 1
 104 574 101 591 101 608 c 0
 101 647 117 700 167 700 c 0
 221 700 232 647 232 608 c 0xd0
237 54 m 0xe0
 237 14 203 -14 166 -14 c 0
 132 -14 97 17 97 54 c 0
 97 92 126 126 167 126 c 0
 206 126 237 92 237 54 c 0xe0
EndSplineSet
Validated: 1
Layer: 2
SplineSet
232 608 m 0,0,1
 232 603 232 603 229 558 c 2,2,-1
 184 177 l 1,3,-1
 149 177 l 1,4,-1
 104 559 l 2,5,6
 104 566 104 566 102.5 582.5 c 128,-1,7
 101 599 101 599 101 608 c 0,8,9
 101 643 101 643 117 671.5 c 128,-1,10
 133 700 133 700 167 700 c 0,11,12
 232 700 232 700 232 608 c 0,0,1
237 54 m 128,-1,14
 237 25 237 25 216 5.5 c 128,-1,15
 195 -14 195 -14 166 -14 c 0,16,17
 140 -14 140 -14 118.5 6.5 c 128,-1,18
 97 27 97 27 97 54 c 0,19,20
 97 83 97 83 117 104.5 c 128,-1,21
 137 126 137 126 167 126 c 0,22,23
 196 126 196 126 216.5 104.5 c 128,-1,13
 237 83 237 83 237 54 c 128,-1,14
EndSplineSet
EndChar

StartChar: numbersign
Encoding: 35 35 4
Width: 499
Flags: W
HStem: 0 21G<65 150.041 258 343.857> 217 78<-8 97 192 289 384 482> 404 80<18 127 221 318 412 507>
DStem2: 65 0 147 0 0.151084 0.988521<12.3889 219.344 310.801 408.73 502.013 694.827> 258 0 341 0 0.145453 0.989365<12.0726 219.201 310.19 408.431 501.252 694.385>
LayerCount: 3
Fore
SplineSet
507 404 m 1
 401 404 l 1
 384 295 l 1
 482 295 l 1
 482 217 l 1
 372 217 l 1
 341 0 l 1
 258 0 l 1
 289 217 l 1
 180 217 l 1
 147 0 l 1
 65 0 l 1
 97 217 l 1
 -8 217 l 1
 -8 295 l 1
 109 295 l 1
 127 404 l 1
 18 404 l 1
 18 484 l 1
 138 484 l 1
 169 687 l 1
 252 687 l 1
 221 484 l 1
 329 484 l 1
 359 687 l 1
 441 687 l 1
 412 484 l 1
 507 484 l 1
 507 404 l 1
318 404 m 1
 210 404 l 1
 192 295 l 1
 301 295 l 1
 318 404 l 1
EndSplineSet
Validated: 1
Layer: 2
SplineSet
507 404 m 1,0,-1
 401 404 l 1,1,-1
 384 295 l 1,2,-1
 482 295 l 1,3,-1
 482 217 l 1,4,-1
 372 217 l 1,5,-1
 341 0 l 1,6,-1
 258 0 l 1,7,-1
 289 217 l 1,8,-1
 180 217 l 1,9,-1
 147 0 l 1,10,-1
 65 0 l 1,11,-1
 97 217 l 1,12,-1
 -8 217 l 1,13,-1
 -8 295 l 1,14,-1
 109 295 l 1,15,-1
 127 404 l 1,16,-1
 18 404 l 1,17,-1
 18 484 l 1,18,-1
 138 484 l 1,19,-1
 169 687 l 1,20,-1
 252 687 l 1,21,-1
 221 484 l 1,22,-1
 329 484 l 1,23,-1
 359 687 l 1,24,-1
 441 687 l 1,25,-1
 412 484 l 1,26,-1
 507 484 l 1,27,-1
 507 404 l 1,0,-1
318 404 m 1,28,-1
 210 404 l 1,29,-1
 192 295 l 1,30,-1
 301 295 l 1,31,-1
 318 404 l 1,28,-1
EndSplineSet
EndChar

StartChar: dollar
Encoding: 36 36 5
Width: 499
Flags: W
HStem: -12 52<147.283 218 276 323.595> 622 52<179.143 218 276 333.658>
VStem: 32 39<127.71 194> 40 100<476.188 585.565> 218 58<-100 -12 41 272 430 622 672.136 739> 366 102<88.2404 215.419> 399 37<487 545.057>
LayerCount: 3
Fore
SplineSet
468 178 m 0xcc
 468 61 381 0 276 -11 c 1
 276 -100 l 1
 218 -100 l 1
 218 -12 l 1
 155 -11 92 8 32 43 c 1
 32 194 l 1
 71 194 l 1xec
 86 100 135 46 218 40 c 1
 218 303 l 1
 140 347 40 406 40 508 c 0
 40 613 124 667 218 674 c 1
 218 739 l 1
 276 739 l 1
 276 674 l 1
 332 670 389 653 436 616 c 1
 436 487 l 1
 399 487 l 1xda
 387 564 343 613 276 622 c 1
 276 398 l 1
 366 349 468 298 468 178 c 0xcc
218 430 m 1
 218 622 l 1
 187 614 140 581 140 533 c 0xd8
 140 481 180 456 218 430 c 1
366 152 m 0xcc
 366 210 323 244 276 272 c 1
 276 41 l 1
 332 54 366 92 366 152 c 0xcc
EndSplineSet
Validated: 1
Layer: 2
SplineSet
468 178 m 0,0,1
 468 94 468 94 414 46 c 128,-1,2
 360 -2 360 -2 276 -11 c 1,3,-1
 276 -100 l 1,4,-1
 218 -100 l 1,5,-1
 218 -12 l 1,6,7
 124 -11 124 -11 32 43 c 1,8,-1
 32 194 l 1,9,-1
 71 194 l 1,10,11
 94 49 94 49 218 40 c 1,12,-1
 218 303 l 1,13,14
 179 325 179 325 155.5 340.5 c 128,-1,15
 132 356 132 356 101.5 382.5 c 128,-1,16
 71 409 71 409 55.5 440.5 c 128,-1,17
 40 472 40 472 40 508 c 0,18,19
 40 583 40 583 91 625.5 c 128,-1,20
 142 668 142 668 218 674 c 1,21,-1
 218 739 l 1,22,-1
 276 739 l 1,23,-1
 276 674 l 1,24,25
 371 667 371 667 436 616 c 1,26,-1
 436 487 l 1,27,-1
 399 487 l 1,28,29
 390 545 390 545 358 580 c 128,-1,30
 326 615 326 615 276 622 c 1,31,-1
 276 398 l 1,32,33
 308 380 308 380 316 376 c 128,-1,34
 324 372 324 372 352.5 354.5 c 128,-1,35
 381 337 381 337 390.5 328 c 128,-1,36
 400 319 400 319 419.5 300 c 128,-1,37
 439 281 439 281 446.5 265 c 128,-1,38
 454 249 454 249 461 226 c 128,-1,39
 468 203 468 203 468 178 c 0,0,1
218 430 m 1,40,-1
 218 622 l 1,41,42
 190 615 190 615 165 590.5 c 128,-1,43
 140 566 140 566 140 533 c 0,44,45
 140 509 140 509 153.5 488 c 128,-1,46
 167 467 167 467 179 458 c 128,-1,47
 191 449 191 449 218 430 c 1,40,-1
366 152 m 0,48,49
 366 192 366 192 342 219.5 c 128,-1,50
 318 247 318 247 276 272 c 1,51,-1
 276 41 l 1,52,53
 366 62 366 62 366 152 c 0,48,49
EndSplineSet
EndChar

StartChar: percent
Encoding: 37 37 6
Width: 832
Flags: W
HStem: -11 56<544.929 642.724> 290 60<156.892 252.78> 327 57<625.667 717.816> 588 46<390.778 522.509> 636 54<241.713 318.985> 683 20G<562 654>
VStem: 49 100<356.719 515.872> 346 50<465.468 590.657> 436 99<53.4071 192.626> 733 50<162.113 312.059>
DStem2: 180 -11 257 -11 0.485955 0.873984<37.4185 704.669 753.253 817.92>
LayerCount: 3
Fore
SplineSet
276 690 m 0xdbc0
 366 690 341 634 436 634 c 0
 492 634 545 659 579 703 c 1
 654 703 l 1x97c0
 257 -11 l 1
 180 -11 l 1
 524 604 l 1
 491 593 457 588 428 588 c 0
 414 588 402 589 390 591 c 1
 393 579 396 565 396 554 c 0
 396 412 272 290 180 290 c 0
 95 290 49 346 49 439 c 0
 49 553 158 690 276 690 c 0xdbc0
783 263 m 0
 783 98 667 -11 576 -11 c 0
 464 -11 436 55 436 138 c 0
 436 252 547 384 665 384 c 0xb3c0
 740 384 783 321 783 263 c 0
346 568 m 0
 346 581 343 593 339 605 c 1
 309 616 296 636 281 636 c 0
 246 636 149 541 149 412 c 0
 149 376 160 350 198 350 c 1xdbc0
 290 359 346 478 346 568 c 0
676 327 m 0xb3c0
 591 327 535 158 535 102 c 0
 535 67 551 45 587 45 c 0
 674 45 733 181 733 257 c 0
 733 290 714 327 676 327 c 0xb3c0
EndSplineSet
Validated: 1
Layer: 2
SplineSet
276 690 m 0,0,1
 306 690 306 690 325.5 681 c 128,-1,2
 345 672 345 672 354 662 c 128,-1,3
 363 652 363 652 383.5 643 c 128,-1,4
 404 634 404 634 436 634 c 0,5,6
 526 634 526 634 579 703 c 1,7,-1
 654 703 l 1,8,-1
 257 -11 l 1,9,-1
 180 -11 l 1,10,-1
 524 604 l 1,11,12
 476 588 476 588 428 588 c 0,13,14
 408 588 408 588 390 591 c 1,15,16
 396 567 396 567 396 554 c 0,17,18
 396 452 396 452 324.5 371 c 128,-1,19
 253 290 253 290 180 290 c 0,20,21
 117 290 117 290 83 329.5 c 128,-1,22
 49 369 49 369 49 439 c 0,23,24
 49 527 49 527 119.5 608.5 c 128,-1,25
 190 690 190 690 276 690 c 0,0,1
783 263 m 0,26,27
 783 146 783 146 716.5 67.5 c 128,-1,28
 650 -11 650 -11 576 -11 c 0,29,30
 498 -11 498 -11 467 28.5 c 128,-1,31
 436 68 436 68 436 138 c 0,32,33
 436 226 436 226 507 305 c 128,-1,34
 578 384 578 384 665 384 c 0,35,36
 718 384 718 384 750.5 347 c 128,-1,37
 783 310 783 310 783 263 c 0,26,27
346 568 m 0,38,39
 346 584 346 584 339 605 c 1,40,41
 324 610 324 610 306.5 623 c 128,-1,42
 289 636 289 636 281 636 c 0,43,44
 248 636 248 636 198.5 567.5 c 128,-1,45
 149 499 149 499 149 412 c 0,46,47
 149 350 149 350 198 350 c 1,48,49
 242 354 242 354 277 390 c 128,-1,50
 312 426 312 426 329 473.5 c 128,-1,51
 346 521 346 521 346 568 c 0,38,39
676 327 m 0,52,53
 637 327 637 327 602.5 281.5 c 128,-1,54
 568 236 568 236 551.5 185 c 128,-1,55
 535 134 535 134 535 102 c 0,56,57
 535 45 535 45 587 45 c 0,58,59
 647 45 647 45 690 118 c 128,-1,60
 733 191 733 191 733 257 c 0,61,62
 733 284 733 284 718 305.5 c 128,-1,63
 703 327 703 327 676 327 c 0,52,53
EndSplineSet
EndChar

StartChar: ampersand
Encoding: 38 38 7
Width: 777
Flags: W
HStem: -11 97<571.489 674.174> -11 79<201.099 325.422> 412 41<482 541.665 659.892 722> 647 56<310.645 405.847>
VStem: 31 115<121.949 243.5> 190 103<477.724 617.427> 425 77<512.862 628.12>
LayerCount: 3
Fore
SplineSet
768 120 m 1xbe
 710 31 671 -11 599 -11 c 0xbe
 531 -11 476 31 429 75 c 1
 372 25 296 -11 220 -11 c 0x7e
 100 -11 31 51 31 160 c 0
 31 273 143 356 221 398 c 1
 204 441 190 485 190 531 c 0
 190 625 258 703 355 703 c 0
 435 703 502 656 502 571 c 0
 502 482 427 427 353 393 c 1
 387 330 425 270 467 214 c 1
 501 255 547 326 547 373 c 0
 547 396 533 407 482 412 c 1
 482 453 l 1
 722 453 l 1
 722 412 l 1
 619 397 649 363 508 164 c 1
 545 123 585 86 644 86 c 0
 679 86 705 106 731 146 c 1
 768 120 l 1xbe
425 574 m 0
 425 613 398 647 359 647 c 0
 307 647 293 607 293 564 c 0
 293 530 312 481 327 449 c 1
 375 473 425 518 425 574 c 0
387 121 m 1
 333 189 289 264 247 341 c 1
 189 304 146 263 146 187 c 0
 146 126 201 68 263 68 c 0x7e
 298 68 349 91 387 121 c 1
EndSplineSet
Validated: 1
Layer: 2
SplineSet
768 120 m 1,0,1
 721 48 721 48 685.5 18.5 c 128,-1,2
 650 -11 650 -11 599 -11 c 0,3,4
 521 -11 521 -11 429 75 c 1,5,6
 331 -11 331 -11 220 -11 c 0,7,8
 130 -11 130 -11 80.5 33.5 c 128,-1,9
 31 78 31 78 31 160 c 0,10,11
 31 200 31 200 49 238 c 128,-1,12
 67 276 67 276 97.5 306 c 128,-1,13
 128 336 128 336 158 358 c 128,-1,14
 188 380 188 380 221 398 c 1,15,16
 190 476 190 476 190 531 c 0,17,18
 190 603 190 603 236.5 653 c 128,-1,19
 283 703 283 703 355 703 c 0,20,21
 418 703 418 703 460 667.5 c 128,-1,22
 502 632 502 632 502 571 c 0,23,24
 502 461 502 461 353 393 c 1,25,26
 405 297 405 297 467 214 c 1,27,28
 498 251 498 251 522.5 296 c 128,-1,29
 547 341 547 341 547 373 c 0,30,31
 547 391 547 391 533 399.5 c 128,-1,32
 519 408 519 408 482 412 c 1,33,-1
 482 453 l 1,34,-1
 722 453 l 1,35,-1
 722 412 l 1,36,37
 691 407 691 407 674.5 400.5 c 128,-1,38
 658 394 658 394 642.5 374.5 c 128,-1,39
 627 355 627 355 615.5 334 c 128,-1,40
 604 313 604 313 574 264 c 128,-1,41
 544 215 544 215 508 164 c 1,42,43
 542 127 542 127 573 106.5 c 128,-1,44
 604 86 604 86 644 86 c 0,45,46
 692 86 692 86 731 146 c 1,47,-1
 768 120 l 1,0,1
425 574 m 0,48,49
 425 604 425 604 406.5 625.5 c 128,-1,50
 388 647 388 647 359 647 c 0,51,52
 293 647 293 647 293 564 c 0,53,54
 293 522 293 522 327 449 c 1,55,56
 368 469 368 469 396.5 502 c 128,-1,57
 425 535 425 535 425 574 c 0,48,49
387 121 m 1,58,59
 323 201 323 201 247 341 c 1,60,61
 197 309 197 309 171.5 274.5 c 128,-1,62
 146 240 146 240 146 187 c 0,63,64
 146 141 146 141 181.5 104.5 c 128,-1,65
 217 68 217 68 263 68 c 0,66,67
 320 68 320 68 387 121 c 1,58,59
EndSplineSet
EndChar

StartChar: quotesingle
Encoding: 39 39 8
Width: 179
Flags: W
HStem: 442 265<69 111>
VStem: 34 113<609.556 693.899> 69 42<442 483.6>
LayerCount: 3
Fore
SplineSet
146 650 m 2xc0
 111 442 l 1
 69 442 l 1xa0
 35 650 l 2
 34 653 34 655 34 658 c 0
 34 684 61 707 91 707 c 0
 119 707 147 681 147 656 c 0
 147 654 146 652 146 650 c 2xc0
EndSplineSet
Validated: 1
Layer: 2
SplineSet
146 650 m 2,0,-1
 111 442 l 1,1,-1
 69 442 l 1,2,-1
 35 650 l 2,3,4
 34 653 34 653 34 658 c 0,5,6
 34 677 34 677 51 692 c 128,-1,7
 68 707 68 707 91 707 c 0,8,9
 112 707 112 707 129.5 691 c 128,-1,10
 147 675 147 675 147 656 c 0,11,12
 147 655 147 655 146.5 653 c 128,-1,13
 146 651 146 651 146 650 c 2,0,-1
EndSplineSet
EndChar

StartChar: parenleft
Encoding: 40 40 9
Width: 333
Flags: W
VStem: 37 109<122.211 413.27>
LayerCount: 3
Fore
SplineSet
321 -147 m 1
 295 -181 l 1
 154 -86 37 55 37 272 c 0
 37 450 127 599 300 707 c 1
 321 667 l 1
 181 571 146 432 146 281 c 0
 146 120 164 -23 321 -147 c 1
EndSplineSet
Validated: 1
Layer: 2
SplineSet
321 -147 m 1,0,-1
 295 -181 l 1,1,2
 37 -7 37 -7 37 272 c 0,3,4
 37 543 37 543 300 707 c 1,5,-1
 321 667 l 1,6,7
 223 600 223 600 184.5 503.5 c 128,-1,8
 146 407 146 407 146 281 c 0,9,10
 146 212 146 212 151.5 162 c 128,-1,11
 157 112 157 112 174 55 c 128,-1,12
 191 -2 191 -2 227.5 -52 c 128,-1,13
 264 -102 264 -102 321 -147 c 1,0,-1
EndSplineSet
EndChar

StartChar: parenright
Encoding: 41 41 10
Width: 333
Flags: W
VStem: 187 109<110.1 394.796>
LayerCount: 3
Fore
SplineSet
296 244 m 0
 296 68 194 -86 35 -181 c 1
 12 -146 l 1
 154 -48 187 91 187 241 c 0
 187 404 166 561 12 668 c 1
 38 705 l 1
 88 679 296 533 296 244 c 0
EndSplineSet
Validated: 1
Layer: 2
SplineSet
296 244 m 0,0,1
 296 114 296 114 226 3 c 128,-1,2
 156 -108 156 -108 35 -181 c 1,3,-1
 12 -146 l 1,4,5
 111 -78 111 -78 149 18.5 c 128,-1,6
 187 115 187 115 187 241 c 0,7,8
 187 310 187 310 181 363 c 128,-1,9
 175 416 175 416 157.5 474 c 128,-1,10
 140 532 140 532 103.5 580.5 c 128,-1,11
 67 629 67 629 12 668 c 1,12,-1
 38 705 l 1,13,14
 58 695 58 695 84.5 675.5 c 128,-1,15
 111 656 111 656 150 614.5 c 128,-1,16
 189 573 189 573 220 524 c 128,-1,17
 251 475 251 475 273.5 400.5 c 128,-1,18
 296 326 296 326 296 244 c 0,0,1
EndSplineSet
EndChar

StartChar: asterisk
Encoding: 42 42 11
Width: 499
Flags: W
HStem: 346 107<63.0015 136.806 362.169 435.758> 518 103<60.9414 139.798 353.556 434.097> 690 20G<234 270>
VStem: 204 95<263.671 408.638 559.296 703.329>
LayerCount: 3
Back
SplineSet
447 372 m 0
 421 327 375 349 352 379 c 0
 333 402 313 418 272 447 c 1
 276 404 287 370 295 343 c 0
 304 309 301 257 252 257 c 0
 200 257 197 307 210 343 c 0
 221 370 226 396 229 447 c 1
 186 421 166 404 149 379 c 1
 124 350 80 327 52 373 c 0
 28 416 74 445 106 455 c 1
 132 459 166 468 201 485 c 1
 160 507 135 515 108 518 c 1
 71 525 28 551 54 598 c 0
 78 641 126 616 151 591 c 0
 170 571 194 545 229 521 c 1
 226 571 221 596 210 624 c 0
 197 659 200 710 252 710 c 0
 301 710 304 657 295 624 c 0
 287 598 278 562 272 521 c 1
 306 545 329 574 347 594 c 1
 373 619 419 642 445 599 c 0
 470 556 429 527 390 522 c 0
 361 516 336 504 290 484 c 1
 330 467 366 459 393 453 c 0
 427 444 472 415 447 372 c 0
EndSplineSet
Fore
SplineSet
454 396 m 0
 454 376 436 346 408 346 c 0
 387 346 366 361 352 379 c 0
 333 402 313 418 272 447 c 1
 279 376 299 348 299 313 c 0
 299 285 288 257 252 257 c 0
 216 257 204 281 204 308 c 0
 204 349 223 342 229 447 c 1
 186 421 166 404 149 379 c 1
 134 362 113 347 92 347 c 0
 64 347 45 377 45 396 c 0
 45 427 80 447 106 455 c 1
 132 459 166 468 201 485 c 1
 160 507 135 515 108 518 c 1
 79 524 46 541 46 571 c 0
 46 582 55 621 91 621 c 0
 139 621 163 566 229 521 c 1
 223 625 204 618 204 659 c 0
 204 686 216 710 252 710 c 0
 288 710 299 682 299 654 c 0
 299 624 283 598 272 521 c 1
 306 545 329 574 347 594 c 1
 362 609 385 623 406 623 c 0
 434 623 453 596 453 574 c 0
 453 545 421 526 390 522 c 1
 361 516 336 504 290 484 c 1
 330 467 366 459 393 453 c 0
 420 446 454 426 454 396 c 0
EndSplineSet
Validated: 1
Layer: 2
SplineSet
454 396 m 0,0,1
 454 379 454 379 441 362.5 c 128,-1,2
 428 346 428 346 408 346 c 0,3,4
 378 346 378 346 352 379 c 0,5,6
 329 406 329 406 272 447 c 1,7,8
 276 409 276 409 287.5 369 c 128,-1,9
 299 329 299 329 299 313 c 0,10,11
 299 257 299 257 252 257 c 0,12,13
 204 257 204 257 204 308 c 0,14,15
 204 323 204 323 215 355.5 c 128,-1,16
 226 388 226 388 229 447 c 1,17,18
 172 412 172 412 149 379 c 1,19,20
 121 347 121 347 92 347 c 0,21,22
 73 347 73 347 59 363.5 c 128,-1,23
 45 380 45 380 45 396 c 0,24,25
 45 417 45 417 63.5 432.5 c 128,-1,26
 82 448 82 448 106 455 c 0,27,28
 155 462 155 462 201 485 c 1,29,30
 148 514 148 514 108 518 c 0,31,32
 83 523 83 523 64.5 536.5 c 128,-1,33
 46 550 46 550 46 571 c 0,34,35
 46 585 46 585 57 603 c 128,-1,36
 68 621 68 621 91 621 c 0,37,38
 112 621 112 621 131 606.5 c 128,-1,39
 150 592 150 592 177 565 c 128,-1,40
 204 538 204 538 229 521 c 1,41,42
 226 580 226 580 215 612 c 128,-1,43
 204 644 204 644 204 659 c 0,44,45
 204 710 204 710 252 710 c 0,46,47
 299 710 299 710 299 654 c 0,48,49
 299 640 299 640 288.5 600.5 c 128,-1,50
 278 561 278 561 272 521 c 1,51,52
 298 539 298 539 347 594 c 0,53,54
 376 623 376 623 406 623 c 0,55,56
 426 623 426 623 439.5 607.5 c 128,-1,57
 453 592 453 592 453 574 c 0,58,59
 453 553 453 553 434 539 c 128,-1,60
 415 525 415 525 390 522 c 0,61,62
 366 517 366 517 290 484 c 1,63,64
 330 467 330 467 393 453 c 0,65,66
 417 447 417 447 435.5 432 c 128,-1,67
 454 417 454 417 454 396 c 0,0,1
EndSplineSet
EndChar

StartChar: plus
Encoding: 43 43 12
Width: 563
Flags: W
HStem: 241 89<18 238 326 545>
VStem: 238 88<20 241 330 548>
LayerCount: 3
Fore
SplineSet
545 241 m 1
 326 241 l 1
 326 20 l 1
 238 20 l 1
 238 241 l 1
 18 241 l 1
 18 330 l 1
 238 330 l 1
 238 548 l 1
 326 548 l 1
 326 330 l 1
 545 330 l 1
 545 241 l 1
EndSplineSet
Validated: 1
Layer: 2
SplineSet
545 241 m 1,0,-1
 326 241 l 1,1,-1
 326 20 l 1,2,-1
 238 20 l 1,3,-1
 238 241 l 1,4,-1
 18 241 l 1,5,-1
 18 330 l 1,6,-1
 238 330 l 1,7,-1
 238 548 l 1,8,-1
 326 548 l 1,9,-1
 326 330 l 1,10,-1
 545 330 l 1,11,-1
 545 241 l 1,0,-1
EndSplineSet
EndChar

StartChar: comma
Encoding: 44 44 13
Width: 250
Flags: W
HStem: -2 131<67.7473 148.821>
VStem: 151 64<-46.1678 43.5>
LayerCount: 3
Fore
SplineSet
215 18 m 0
 215 -40 146 -120 84 -143 c 1
 65 -103 l 1
 103 -84 151 -35 151 -5 c 0
 151 -3 149 -2 147 -2 c 0
 138 -2 124 -5 115 -5 c 0
 80 -2 51 20 51 57 c 0
 51 103 77 129 123 129 c 0
 190 129 215 69 215 18 c 0
EndSplineSet
Validated: 1
Layer: 2
SplineSet
215 18 m 0,0,1
 215 -25 215 -25 173 -75 c 128,-1,2
 131 -125 131 -125 84 -143 c 1,3,-1
 65 -103 l 1,4,5
 95 -88 95 -88 123 -57.5 c 128,-1,6
 151 -27 151 -27 151 -5 c 0,7,8
 151 -2 151 -2 147 -2 c 0,9,10
 142 -2 142 -2 130.5 -3.5 c 128,-1,11
 119 -5 119 -5 115 -5 c 0,12,13
 87 -3 87 -3 69 13.5 c 128,-1,14
 51 30 51 30 51 57 c 0,15,16
 51 92 51 92 69.5 110.5 c 128,-1,17
 88 129 88 129 123 129 c 0,18,19
 169 129 169 129 192 95.5 c 128,-1,20
 215 62 215 62 215 18 c 0,0,1
EndSplineSet
EndChar

StartChar: hyphen
Encoding: 45 45 14
Width: 333
Flags: W
HStem: 241 88<31 301>
VStem: 31 270<241 329>
LayerCount: 3
Fore
SplineSet
301 241 m 1
 31 241 l 1
 31 329 l 1
 301 329 l 1
 301 241 l 1
EndSplineSet
Validated: 1
Layer: 2
SplineSet
301 241 m 1,0,-1
 31 241 l 1,1,-1
 31 329 l 1,2,-1
 301 329 l 1,3,-1
 301 241 l 1,0,-1
EndSplineSet
EndChar

StartChar: period
Encoding: 46 46 15
Width: 250
Flags: W
HStem: -11 140<76.4357 175.318>
VStem: 55 140<10.458 108.063>
LayerCount: 3
Fore
SplineSet
195 58 m 0
 195 17 163 -11 124 -11 c 0
 88 -11 55 23 55 58 c 0
 55 95 86 129 124 129 c 0
 163 129 195 100 195 58 c 0
EndSplineSet
Validated: 1
Layer: 2
SplineSet
195 58 m 0,0,1
 195 28 195 28 174.5 8.5 c 128,-1,2
 154 -11 154 -11 124 -11 c 0,3,4
 97 -11 97 -11 76 10.5 c 128,-1,5
 55 32 55 32 55 58 c 0,6,7
 55 86 55 86 75.5 107.5 c 128,-1,8
 96 129 96 129 124 129 c 0,9,10
 154 129 154 129 174.5 109 c 128,-1,11
 195 89 195 89 195 58 c 0,0,1
EndSplineSet
EndChar

StartChar: slash
Encoding: 47 47 16
Width: 278
Flags: W
HStem: 690 20G<223.636 319>
DStem2: -29 -104 60 -104 0.303204 0.952926<26.9851 854.211>
LayerCount: 3
Fore
SplineSet
319 710 m 1
 60 -104 l 1
 -29 -104 l 1
 230 710 l 1
 319 710 l 1
EndSplineSet
Validated: 1
Layer: 2
SplineSet
319 710 m 1,0,-1
 60 -104 l 1,1,-1
 -29 -104 l 1,2,-1
 230 710 l 1,3,-1
 319 710 l 1,0,-1
EndSplineSet
EndChar

StartChar: zero
Encoding: 48 48 17
Width: 537
Flags: W
HStem: -14 52<214.148 325.423> 650 50<216.234 322.863>
VStem: 29 122<182.254 503.211> 384 121<185.918 505.482>
LayerCount: 3
Fore
SplineSet
505 339 m 0
 505 197 447 -14 261 -14 c 0
 114 -14 29 143 29 346 c 0
 29 495 86 700 266 700 c 0
 422 700 505 544 505 339 c 0
384 338 m 0
 384 508 362 650 272 650 c 0
 164 650 151 485 151 326 c 0
 151 184 166 38 269 38 c 0
 376 38 384 192 384 338 c 0
EndSplineSet
Validated: 1
Layer: 2
SplineSet
505 339 m 0,0,1
 505 281 505 281 492.5 223 c 128,-1,2
 480 165 480 165 453.5 110 c 128,-1,3
 427 55 427 55 377 20.5 c 128,-1,4
 327 -14 327 -14 261 -14 c 0,5,6
 154 -14 154 -14 91.5 87.5 c 128,-1,7
 29 189 29 189 29 346 c 0,8,9
 29 406 29 406 41.5 464.5 c 128,-1,10
 54 523 54 523 79.5 578 c 128,-1,11
 105 633 105 633 153.5 666.5 c 128,-1,12
 202 700 202 700 266 700 c 0,13,14
 379 700 379 700 442 599 c 128,-1,15
 505 498 505 498 505 339 c 0,0,1
384 338 m 0,16,17
 384 650 384 650 272 650 c 0,18,19
 241 650 241 650 218 631 c 128,-1,20
 195 612 195 612 182.5 582.5 c 128,-1,21
 170 553 170 553 162.5 508 c 128,-1,22
 155 463 155 463 153 421.5 c 128,-1,23
 151 380 151 380 151 326 c 0,24,25
 151 265 151 265 155 219.5 c 128,-1,26
 159 174 159 174 171 130 c 128,-1,27
 183 86 183 86 207.5 62 c 128,-1,28
 232 38 232 38 269 38 c 0,29,30
 307 38 307 38 331.5 62.5 c 128,-1,31
 356 87 356 87 367 135 c 128,-1,32
 378 183 378 183 381 227.5 c 128,-1,33
 384 272 384 272 384 338 c 0,16,17
EndSplineSet
EndChar

StartChar: one
Encoding: 49 49 18
Width: 537
Flags: W
HStem: 0 37<129 209.539 346.461 427>
VStem: 223 110<50.6197 584.967>
LayerCount: 3
Fore
SplineSet
427 0 m 1
 129 0 l 1
 129 37 l 1
 209 43 223 55 223 92 c 2
 223 541 l 2
 223 574 216 585 200 585 c 0
 183 585 158 574 120 561 c 1
 120 599 l 1
 333 708 l 1
 333 92 l 2
 333 55 347 43 427 37 c 1
 427 0 l 1
EndSplineSet
Validated: 1
Layer: 2
SplineSet
427 0 m 1,0,-1
 129 0 l 1,1,-1
 129 37 l 1,2,3
 187 41 187 41 205 52 c 128,-1,4
 223 63 223 63 223 92 c 2,5,-1
 223 541 l 2,6,7
 223 585 223 585 200 585 c 0,8,9
 190 585 190 585 120 561 c 1,10,-1
 120 599 l 1,11,-1
 333 708 l 1,12,-1
 333 92 l 2,13,14
 333 63 333 63 351 52 c 128,-1,15
 369 41 369 41 427 37 c 1,16,-1
 427 0 l 1,0,-1
EndSplineSet
EndChar

StartChar: two
Encoding: 50 50 19
Width: 537
Flags: W
HStem: 0 101<180 446.034> 604 96<169.269 293.809>
VStem: 40 43<481.721 518.308> 349 110<408.287 549.688>
DStem2: 214 214 180 101 0.682745 0.730657<-105.778 178.083>
LayerCount: 3
Fore
SplineSet
513 155 m 1
 450 0 l 1
 40 0 l 1
 43 31 l 1
 214 214 l 2
 276 281 349 373 349 472 c 0
 349 551 298 604 218 604 c 0
 146 604 109 542 83 470 c 1
 40 484 l 1
 63 613 141 700 269 700 c 0
 373 700 459 617 459 513 c 0
 459 416 413 346 319 247 c 2
 180 101 l 1
 364 101 l 2
 432 101 438 104 482 172 c 1
 513 155 l 1
EndSplineSet
Validated: 1
Layer: 2
SplineSet
513 155 m 1,0,-1
 450 0 l 1,1,-1
 40 0 l 1,2,-1
 43 31 l 1,3,-1
 214 214 l 2,4,5
 349 360 349 360 349 472 c 0,6,7
 349 532 349 532 313.5 568 c 128,-1,8
 278 604 278 604 218 604 c 0,9,10
 131 604 131 604 83 470 c 1,11,-1
 40 484 l 1,12,13
 58 584 58 584 117 642 c 128,-1,14
 176 700 176 700 269 700 c 0,15,16
 347 700 347 700 403 645.5 c 128,-1,17
 459 591 459 591 459 513 c 0,18,19
 459 444 459 444 426.5 385 c 128,-1,20
 394 326 394 326 319 247 c 2,21,-1
 180 101 l 1,22,-1
 364 101 l 2,23,24
 415 101 415 101 432 111 c 128,-1,25
 449 121 449 121 482 172 c 1,26,-1
 513 155 l 1,0,-1
EndSplineSet
EndChar

StartChar: three
Encoding: 51 51 20
Width: 537
Flags: W
HStem: -11 60<181.565 306.159> 333 36<164 209.635> 619 84<171.077 295.679>
VStem: 329 103<482.128 585.796> 370 95<131.098 268.864>
LayerCount: 3
Fore
SplineSet
465 229 m 0xe8
 465 71 326 -11 183 -11 c 0
 140 -11 55 -3 55 58 c 0
 55 88 77 104 104 104 c 0
 154 104 187 49 247 49 c 0
 323 49 370 111 370 183 c 0xe8
 370 287 313 333 164 333 c 1
 163 369 l 1
 243 393 329 435 329 525 c 0
 329 582 289 619 232 619 c 0
 170 619 127 584 89 513 c 1
 52 524 l 1
 91 641 163 703 264 703 c 0
 378 703 432 642 432 558 c 0xf0
 432 495 396 452 352 419 c 1
 427 382 465 326 465 229 c 0xe8
EndSplineSet
Validated: 1
Layer: 2
SplineSet
465 229 m 0,0,1
 465 117 465 117 381.5 53 c 128,-1,2
 298 -11 298 -11 183 -11 c 0,3,4
 163 -11 163 -11 144 -8.5 c 128,-1,5
 125 -6 125 -6 103.5 0.5 c 128,-1,6
 82 7 82 7 68.5 22 c 128,-1,7
 55 37 55 37 55 58 c 0,8,9
 55 80 55 80 69 92 c 128,-1,10
 83 104 83 104 104 104 c 0,11,12
 128 104 128 104 172 76.5 c 128,-1,13
 216 49 216 49 247 49 c 0,14,15
 302 49 302 49 336 88 c 128,-1,16
 370 127 370 127 370 183 c 0,17,18
 370 262 370 262 322.5 297.5 c 128,-1,19
 275 333 275 333 164 333 c 1,20,-1
 163 369 l 1,21,22
 329 419 329 419 329 525 c 0,23,24
 329 567 329 567 302 593 c 128,-1,25
 275 619 275 619 232 619 c 0,26,27
 146 619 146 619 89 513 c 1,28,-1
 52 524 l 1,29,30
 112 703 112 703 264 703 c 0,31,32
 347 703 347 703 389.5 663.5 c 128,-1,33
 432 624 432 624 432 558 c 0,34,35
 432 479 432 479 352 419 c 1,36,37
 410 391 410 391 437.5 345.5 c 128,-1,38
 465 300 465 300 465 229 c 0,0,1
EndSplineSet
EndChar

StartChar: four
Encoding: 52 52 21
Width: 537
Flags: W
HStem: 0 21G<303 404> 157 87<98 303 404 505> 670 20G<324.049 404>
VStem: 303 101<0 157 244 531>
DStem2: 22 237 98 244 0.572125 0.820166<49.2227 401.896>
LayerCount: 3
Fore
SplineSet
505 157 m 1
 404 157 l 1
 404 0 l 1
 303 0 l 1
 303 157 l 1
 22 157 l 1
 22 237 l 1
 338 690 l 1
 404 690 l 1
 404 244 l 1
 505 244 l 1
 505 157 l 1
303 244 m 1
 303 531 l 1
 98 244 l 1
 303 244 l 1
EndSplineSet
Validated: 1
Layer: 2
SplineSet
505 157 m 1,0,-1
 404 157 l 1,1,-1
 404 0 l 1,2,-1
 303 0 l 1,3,-1
 303 157 l 1,4,-1
 22 157 l 1,5,-1
 22 237 l 1,6,-1
 338 690 l 1,7,-1
 404 690 l 1,8,-1
 404 244 l 1,9,-1
 505 244 l 1,10,-1
 505 157 l 1,0,-1
303 244 m 1,11,-1
 303 531 l 1,12,-1
 98 244 l 1,13,-1
 303 244 l 1,11,-1
EndSplineSet
EndChar

StartChar: five
Encoding: 53 53 22
Width: 537
Flags: W
HStem: -11 60<148.5 297.24> 585 105<212 421>
VStem: 367 94<140.261 294.569>
LayerCount: 3
Fore
SplineSet
180 -11 m 0
 117 -11 42 4 42 64 c 0
 42 93 65 112 100 112 c 0
 163 112 186 49 240 49 c 0
 319 49 367 123 367 210 c 0
 367 359 218 407 98 415 c 1
 82 418 74 428 74 439 c 0
 74 441 75 442 75 444 c 2
 189 690 l 1
 393 690 l 2
 419 690 425 690 450 719 c 1
 476 700 l 1
 421 585 l 1
 212 585 l 1
 181 522 l 1
 338 495 461 442 461 243 c 0
 461 86 335 -11 180 -11 c 0
EndSplineSet
Validated: 1
Layer: 2
SplineSet
180 -11 m 0,0,1
 123 -11 123 -11 82.5 6 c 128,-1,2
 42 23 42 23 42 64 c 0,3,4
 42 86 42 86 58 99 c 128,-1,5
 74 112 74 112 100 112 c 0,6,7
 133 112 133 112 173.5 80.5 c 128,-1,8
 214 49 214 49 240 49 c 0,9,10
 297 49 297 49 332 95.5 c 128,-1,11
 367 142 367 142 367 210 c 0,12,13
 367 263 367 263 342.5 303 c 128,-1,14
 318 343 318 343 276.5 365.5 c 128,-1,15
 235 388 235 388 191 400 c 128,-1,16
 147 412 147 412 98 415 c 0,17,18
 74 419 74 419 74 439 c 0,19,20
 74 440 74 440 74.5 441.5 c 128,-1,21
 75 443 75 443 75 444 c 2,22,-1
 189 690 l 1,23,-1
 393 690 l 2,24,25
 414 690 414 690 423 694 c 128,-1,26
 432 698 432 698 450 719 c 1,27,-1
 476 700 l 1,28,-1
 421 585 l 1,29,-1
 212 585 l 1,30,-1
 181 522 l 1,31,32
 246 511 246 511 292 494.5 c 128,-1,33
 338 478 338 478 379 447.5 c 128,-1,34
 420 417 420 417 440.5 366 c 128,-1,35
 461 315 461 315 461 243 c 0,36,37
 461 128 461 128 380.5 58.5 c 128,-1,38
 300 -11 300 -11 180 -11 c 0,0,1
EndSplineSet
EndChar

StartChar: six
Encoding: 54 54 23
Width: 537
Flags: W
HStem: -11 52<236.04 350.968> 386 69<213.657 328.38> 670 40<409.005 479>
VStem: 46 117<154.954 355.177> 389 113<122.54 313.494>
LayerCount: 3
Fore
SplineSet
502 229 m 0
 502 103 421 -11 286 -11 c 0
 154 -11 46 97 46 289 c 0
 46 511 200 671 409 702 c 1
 425 703 442 710 479 710 c 1
 484 670 l 1
 442 659 412 657 379 641 c 0
 300 604 218 538 192 422 c 1
 227 442 263 455 304 455 c 0
 429 455 502 369 502 229 c 0
389 193 m 0
 389 278 364 386 267 386 c 0
 240 386 196 374 174 352 c 1
 163 327 163 296 163 263 c 0
 163 137 209 41 301 41 c 0
 360 41 389 106 389 193 c 0
EndSplineSet
Validated: 1
Layer: 2
SplineSet
502 229 m 0,0,1
 502 130 502 130 443 59.5 c 128,-1,2
 384 -11 384 -11 286 -11 c 0,3,4
 183 -11 183 -11 114.5 69.5 c 128,-1,5
 46 150 46 150 46 289 c 0,6,7
 46 453 46 453 147.5 565.5 c 128,-1,8
 249 678 249 678 409 702 c 0,9,10
 412 702 412 702 434.5 706 c 128,-1,11
 457 710 457 710 479 710 c 1,12,-1
 484 670 l 1,13,14
 470 666 470 666 447.5 661.5 c 128,-1,15
 425 657 425 657 409.5 652.5 c 128,-1,16
 394 648 394 648 379 641 c 0,17,18
 225 569 225 569 192 422 c 1,19,20
 250 455 250 455 304 455 c 0,21,22
 397 455 397 455 449.5 394.5 c 128,-1,23
 502 334 502 334 502 229 c 0,0,1
389 193 m 0,24,25
 389 228 389 228 383.5 259.5 c 128,-1,26
 378 291 378 291 365 321 c 128,-1,27
 352 351 352 351 327 368.5 c 128,-1,28
 302 386 302 386 267 386 c 0,29,30
 245 386 245 386 217 376.5 c 128,-1,31
 189 367 189 367 174 352 c 1,32,33
 163 327 163 327 163 263 c 0,34,35
 163 164 163 164 198.5 102.5 c 128,-1,36
 234 41 234 41 301 41 c 0,37,38
 344 41 344 41 366.5 83 c 128,-1,39
 389 125 389 125 389 193 c 0,24,25
EndSplineSet
EndChar

StartChar: seven
Encoding: 55 55 24
Width: 537
Flags: W
HStem: -11 21G<175 273.468> 590 100<110.186 375>
DStem2: 175 -11 267 -11 0.307707 0.951481<28.309 633.382>
LayerCount: 3
Fore
SplineSet
484 660 m 1
 267 -11 l 1
 175 -11 l 1
 375 590 l 1
 187 590 l 2
 120 590 106 573 66 507 c 1
 29 525 l 1
 95 690 l 1
 484 690 l 1
 484 660 l 1
EndSplineSet
Validated: 1
Layer: 2
SplineSet
484 660 m 1,0,-1
 267 -11 l 1,1,-1
 175 -11 l 1,2,-1
 375 590 l 1,3,-1
 187 590 l 2,4,5
 139 590 139 590 118.5 575 c 128,-1,6
 98 560 98 560 66 507 c 1,7,-1
 29 525 l 1,8,-1
 95 690 l 1,9,-1
 484 690 l 1,10,-1
 484 660 l 1,0,-1
EndSplineSet
EndChar

StartChar: eight
Encoding: 56 56 25
Width: 537
Flags: W
HStem: -11 49<213.299 340.785> 653 50<200.307 326.215>
VStem: 65 99<89.8759 246.224 510.398 602.691> 362 94<478.137 616.463> 376 102<87.6599 207.998>
LayerCount: 3
Fore
SplineSet
478 169 m 0xe8
 478 54 373 -11 266 -11 c 0
 161 -11 65 52 65 167 c 0
 65 250 127 304 186 347 c 1
 126 406 71 442 71 542 c 0
 71 616 141 703 273 703 c 0
 359 703 456 653 456 554 c 0xf0
 456 470 398 421 333 386 c 1
 402 330 478 267 478 169 c 0xe8
362 551 m 0
 362 611 323 653 264 653 c 0
 212 653 169 619 169 565 c 0
 169 501 232 452 281 419 c 1
 329 449 362 495 362 551 c 0
376 141 m 0xe8
 376 221 292 270 232 312 c 1
 230 312 230 310 230 310 c 1
 192 280 164 226 164 178 c 0
 164 101 201 38 281 38 c 0
 339 38 376 83 376 141 c 0xe8
EndSplineSet
Validated: 1
Layer: 2
SplineSet
478 169 m 0,0,1
 478 87 478 87 414.5 38 c 128,-1,2
 351 -11 351 -11 266 -11 c 0,3,4
 183 -11 183 -11 124 36.5 c 128,-1,5
 65 84 65 84 65 167 c 0,6,7
 65 223 65 223 97.5 264.5 c 128,-1,8
 130 306 130 306 186 347 c 1,9,10
 179 354 179 354 157.5 374.5 c 128,-1,11
 136 395 136 395 128.5 402.5 c 128,-1,12
 121 410 121 410 106.5 428.5 c 128,-1,13
 92 447 92 447 86.5 461 c 128,-1,14
 81 475 81 475 76 496.5 c 128,-1,15
 71 518 71 518 71 542 c 0,16,17
 71 603 71 603 125.5 653 c 128,-1,18
 180 703 180 703 273 703 c 0,19,20
 344 703 344 703 400 663.5 c 128,-1,21
 456 624 456 624 456 554 c 0,22,23
 456 452 456 452 333 386 c 1,24,25
 379 349 379 349 404 325 c 128,-1,26
 429 301 429 301 453.5 258 c 128,-1,27
 478 215 478 215 478 169 c 0,0,1
362 551 m 0,28,29
 362 596 362 596 335 624.5 c 128,-1,30
 308 653 308 653 264 653 c 0,31,32
 224 653 224 653 196.5 628.5 c 128,-1,33
 169 604 169 604 169 565 c 0,34,35
 169 494 169 494 281 419 c 1,36,37
 362 470 362 470 362 551 c 0,28,29
376 141 m 0,38,39
 376 156 376 156 372 170 c 128,-1,40
 368 184 368 184 362.5 195 c 128,-1,41
 357 206 357 206 345.5 219.5 c 128,-1,42
 334 233 334 233 327 240.5 c 128,-1,43
 320 248 320 248 303.5 261 c 128,-1,44
 287 274 287 274 280 278.5 c 128,-1,45
 273 283 273 283 254.5 296 c 128,-1,46
 236 309 236 309 232 312 c 1,47,-1
 230 310 l 1,48,49
 201 287 201 287 182.5 250.5 c 128,-1,50
 164 214 164 214 164 178 c 0,51,52
 164 117 164 117 194 77.5 c 128,-1,53
 224 38 224 38 281 38 c 0,54,55
 324 38 324 38 350 67.5 c 128,-1,56
 376 97 376 97 376 141 c 0,38,39
EndSplineSet
EndChar

StartChar: nine
Encoding: 57 57 26
Width: 537
Flags: W
HStem: -20 43<72 147.525> 240 67<212.182 327.331> 653 50<201.066 311.809>
VStem: 41 117<371.877 562.724> 373 122<344.088 534.182>
LayerCount: 3
Fore
SplineSet
267 703 m 0
 404 703 495 570 495 401 c 0
 495 228 363 70 237 17 c 1
 178 -9 115 -20 72 -20 c 1
 66 23 l 1
 137 35 226 61 290 147 c 0
 319 186 346 232 361 280 c 1
 318 253 275 240 233 240 c 0
 120 240 41 324 41 462 c 0
 41 550 97 703 267 703 c 0
373 429 m 0
 373 510 359 653 253 653 c 0
 174 653 158 554 158 492 c 0
 158 412 178 307 273 307 c 0
 301 307 350 326 370 350 c 1
 373 375 373 399 373 429 c 0
EndSplineSet
Validated: 1
Layer: 2
SplineSet
267 703 m 0,0,1
 368 703 368 703 431.5 616.5 c 128,-1,2
 495 530 495 530 495 401 c 0,3,4
 495 278 495 278 416.5 169 c 128,-1,5
 338 60 338 60 237 17 c 0,6,7
 153 -20 153 -20 72 -20 c 1,8,-1
 66 23 l 1,9,10
 217 48 217 48 290 147 c 0,11,12
 341 215 341 215 361 280 c 1,13,14
 297 240 297 240 233 240 c 0,15,16
 147 240 147 240 94 300 c 128,-1,17
 41 360 41 360 41 462 c 0,18,19
 41 490 41 490 48 521 c 128,-1,20
 55 552 55 552 72 585 c 128,-1,21
 89 618 89 618 114 644 c 128,-1,22
 139 670 139 670 178.5 686.5 c 128,-1,23
 218 703 218 703 267 703 c 0,0,1
373 429 m 0,24,25
 373 466 373 466 369 499.5 c 128,-1,26
 365 533 365 533 353.5 570.5 c 128,-1,27
 342 608 342 608 316 630.5 c 128,-1,28
 290 653 290 653 253 653 c 128,-1,29
 216 653 216 653 193.5 624 c 128,-1,30
 171 595 171 595 164.5 562 c 128,-1,31
 158 529 158 529 158 492 c 0,32,33
 158 458 158 458 163 428.5 c 128,-1,34
 168 399 168 399 179.5 370 c 128,-1,35
 191 341 191 341 215 324 c 128,-1,36
 239 307 239 307 273 307 c 0,37,38
 295 307 295 307 325.5 320 c 128,-1,39
 356 333 356 333 370 350 c 1,40,41
 373 375 373 375 373 429 c 0,24,25
EndSplineSet
EndChar

StartChar: colon
Encoding: 58 58 27
Width: 278
Flags: W
HStem: -8 140<90.8903 190.068> 392 139<90.5 190.068>
VStem: 71 139<11.125 112.25 410.75 511.068>
LayerCount: 3
Fore
SplineSet
210 461 m 0
 210 419 178 392 140 392 c 0
 100 392 71 425 71 461 c 0
 71 498 98 531 140 531 c 0
 177 531 210 502 210 461 c 0
210 61 m 0
 210 20 178 -8 140 -8 c 0
 100 -8 71 26 71 61 c 0
 71 98 98 132 140 132 c 0
 177 132 210 103 210 61 c 0
EndSplineSet
Validated: 1
Layer: 2
SplineSet
210 461 m 0,0,1
 210 430 210 430 189.5 411 c 128,-1,2
 169 392 169 392 140 392 c 128,-1,3
 111 392 111 392 91 412.5 c 128,-1,4
 71 433 71 433 71 461 c 0,5,6
 71 490 71 490 90 510.5 c 128,-1,7
 109 531 109 531 140 531 c 0,8,9
 168 531 168 531 189 511 c 128,-1,10
 210 491 210 491 210 461 c 0,0,1
210 61 m 0,11,12
 210 31 210 31 189.5 11.5 c 128,-1,13
 169 -8 169 -8 140 -8 c 128,-1,14
 111 -8 111 -8 91 13 c 128,-1,15
 71 34 71 34 71 61 c 0,16,17
 71 90 71 90 90.5 111 c 128,-1,18
 110 132 110 132 140 132 c 0,19,20
 169 132 169 132 189.5 112 c 128,-1,21
 210 92 210 92 210 61 c 0,11,12
EndSplineSet
EndChar

StartChar: semicolon
Encoding: 59 59 28
Width: 278
Flags: W
HStem: -2 131<82.5207 165.06> 392 139<90.625 186.405>
VStem: 69 140<414.875 510.625> 166 64<-46.1678 45>
LayerCount: 3
Fore
SplineSet
209 464 m 0xe0
 209 429 175 392 140 392 c 0
 98 392 69 429 69 464 c 0
 69 499 103 531 140 531 c 0
 175 531 209 499 209 464 c 0xe0
230 18 m 0xd0
 230 -40 161 -120 100 -143 c 1
 80 -103 l 1
 118 -84 166 -35 166 -5 c 0
 166 -3 164 -2 163 -2 c 0
 154 -2 140 -5 131 -5 c 0
 95 -2 66 20 66 57 c 0
 66 103 92 129 138 129 c 0
 201 129 230 72 230 18 c 0xd0
EndSplineSet
Validated: 1
Layer: 2
SplineSet
209 464 m 0,0,1
 209 437 209 437 187.5 414.5 c 128,-1,2
 166 392 166 392 140 392 c 0,3,4
 110 392 110 392 89.5 414 c 128,-1,5
 69 436 69 436 69 464 c 0,6,7
 69 490 69 490 90.5 510.5 c 128,-1,8
 112 531 112 531 140 531 c 0,9,10
 166 531 166 531 187.5 510.5 c 128,-1,11
 209 490 209 490 209 464 c 0,0,1
230 18 m 0,12,13
 230 -25 230 -25 188.5 -75 c 128,-1,14
 147 -125 147 -125 100 -143 c 1,15,-1
 80 -103 l 1,16,17
 110 -88 110 -88 138 -57.5 c 128,-1,18
 166 -27 166 -27 166 -5 c 0,19,20
 166 -2 166 -2 163 -2 c 0,21,22
 158 -2 158 -2 147 -3.5 c 128,-1,23
 136 -5 136 -5 131 -5 c 0,24,25
 103 -3 103 -3 84.5 13.5 c 128,-1,26
 66 30 66 30 66 57 c 0,27,28
 66 92 66 92 85 110.5 c 128,-1,29
 104 129 104 129 138 129 c 0,30,31
 182 129 182 129 206 96 c 128,-1,32
 230 63 230 63 230 18 c 0,12,13
EndSplineSet
EndChar

StartChar: less
Encoding: 60 60 29
Width: 563
Flags: W
DStem2: 15 295 135 261 0.907959 0.419058<94.7072 549.734> 135 261 15 226 0.909253 -0.416243<0 454.608>
LayerCount: 3
Fore
SplineSet
548 -18 m 1
 15 226 l 1
 15 295 l 1
 548 541 l 1
 548 452 l 1
 135 261 l 1
 548 71 l 1
 548 -18 l 1
EndSplineSet
Validated: 1
Layer: 2
SplineSet
548 -18 m 1,0,-1
 15 226 l 1,1,-1
 15 295 l 1,2,-1
 548 541 l 1,3,-1
 548 452 l 1,4,-1
 135 261 l 1,5,-1
 548 71 l 1,6,-1
 548 -18 l 1,0,-1
EndSplineSet
EndChar

StartChar: equal
Encoding: 61 61 30
Width: 563
Flags: W
HStem: 120 89<18 545> 313 89<18 545>
LayerCount: 3
Fore
SplineSet
545 313 m 1
 18 313 l 1
 18 402 l 1
 545 402 l 1
 545 313 l 1
545 120 m 1
 18 120 l 1
 18 209 l 1
 545 209 l 1
 545 120 l 1
EndSplineSet
Validated: 1
Layer: 2
SplineSet
545 313 m 1,0,-1
 18 313 l 1,1,-1
 18 402 l 1,2,-1
 545 402 l 1,3,-1
 545 313 l 1,0,-1
545 120 m 1,4,-1
 18 120 l 1,5,-1
 18 209 l 1,6,-1
 545 209 l 1,7,-1
 545 120 l 1,4,-1
EndSplineSet
EndChar

StartChar: greater
Encoding: 62 62 31
Width: 563
Flags: W
HStem: -3 21G<15 58.6885>
DStem2: 15 556 15 467 0.907959 -0.419058<37.2962 491.416> 15 86 15 -3 0.909253 0.416243<0 453.699>
LayerCount: 3
Fore
SplineSet
548 241 m 1
 15 -3 l 1
 15 86 l 1
 427 276 l 1
 15 467 l 1
 15 556 l 1
 548 310 l 1
 548 241 l 1
EndSplineSet
Validated: 1
Layer: 2
SplineSet
548 241 m 1,0,-1
 15 -3 l 1,1,-1
 15 86 l 1,2,-1
 427 276 l 1,3,-1
 15 467 l 1,4,-1
 15 556 l 1,5,-1
 548 310 l 1,6,-1
 548 241 l 1,0,-1
EndSplineSet
EndChar

StartChar: question
Encoding: 63 63 32
Width: 443
Flags: W
HStem: -14 140<168 263.875> 647 53<132.912 251.635>
VStem: 37 79<531.5 622.866> 146 140<7.82204 103.131> 195 40<164 235.913> 290 117<444.898 607.271>
LayerCount: 3
Fore
SplineSet
116 595 m 0xec
 116 569 151 565 151 522 c 0
 151 490 127 470 94 470 c 0
 51 470 37 515 37 548 c 0
 37 645 129 700 217 700 c 0
 338 700 407 614 407 530 c 0
 407 462 364 399 326 355 c 0
 273 293 246 230 235 164 c 1
 195 164 l 1
 195 332 290 398 290 528 c 0
 290 588 260 647 195 647 c 0
 166 647 116 628 116 595 c 0xec
286 55 m 0xf4
 286 15 250 -14 217 -14 c 0
 181 -14 146 18 146 55 c 0
 146 92 181 126 217 126 c 0
 250 126 286 94 286 55 c 0xf4
EndSplineSet
Validated: 1
Layer: 2
SplineSet
116 595 m 0,0,1
 116 584 116 584 133.5 565 c 128,-1,2
 151 546 151 546 151 522 c 128,-1,3
 151 498 151 498 135 484 c 128,-1,4
 119 470 119 470 94 470 c 0,5,6
 65 470 65 470 51 494 c 128,-1,7
 37 518 37 518 37 548 c 0,8,9
 37 617 37 617 91.5 658.5 c 128,-1,10
 146 700 146 700 217 700 c 0,11,12
 303 700 303 700 355 648.5 c 128,-1,13
 407 597 407 597 407 530 c 0,14,15
 407 449 407 449 326 355 c 0,16,17
 253 269 253 269 235 164 c 1,18,-1
 195 164 l 1,19,20
 195 220 195 220 210 273 c 128,-1,21
 225 326 225 326 242.5 360 c 128,-1,22
 260 394 260 394 275 439.5 c 128,-1,23
 290 485 290 485 290 528 c 0,24,25
 290 577 290 577 265.5 612 c 128,-1,26
 241 647 241 647 195 647 c 0,27,28
 169 647 169 647 142.5 632.5 c 128,-1,29
 116 618 116 618 116 595 c 0,0,1
286 55 m 0,30,31
 286 26 286 26 264.5 6 c 128,-1,32
 243 -14 243 -14 217 -14 c 0,33,34
 190 -14 190 -14 168 7 c 128,-1,35
 146 28 146 28 146 55 c 0,36,37
 146 83 146 83 168 104.5 c 128,-1,38
 190 126 190 126 217 126 c 0,39,40
 243 126 243 126 264.5 104.5 c 128,-1,41
 286 83 286 83 286 55 c 0,30,31
EndSplineSet
EndChar

StartChar: at
Encoding: 64 64 33
Width: 920
Flags: W
HStem: -155 64<363.106 630.212> -22 20G<726.5 774> 41 68<393.545 477.112 633.002 719.285> 427 71<474.909 560.375> 636 63<392.096 614.914>
VStem: 43 120<125.148 381.568> 267 117<117.477 307.591> 816 64<239.008 446.854>
LayerCount: 3
Fore
SplineSet
880 343 m 0
 880 177 765 40 659 40 c 0
 625 40 565 49 538 109 c 1
 499 66 441 41 401 41 c 0
 324 41 267 86 267 197 c 0
 267 349 392 498 510 498 c 0
 551 498 581 478 599 455 c 1
 607 484 l 1
 719 484 l 1
 633 154 l 2
 632 149 631 145 631 141 c 0
 631 119 648 108 667 108 c 0
 737 108 816 232 816 341 c 0
 816 518 654 636 501 636 c 0
 295 636 163 427 163 261 c 0
 163 115 220 -91 495 -91 c 0
 588 -91 700 -55 753 -2 c 1
 774 -14 l 1
 753 -81 l 1
 753 -81 654 -155 493 -155 c 0
 284 -155 43 -35 43 269 c 0
 43 441 186 699 501 699 c 0
 631 699 880 611 880 343 c 0
570 356 m 0
 570 410 550 427 525 427 c 0
 475 427 384 344 384 187 c 0
 384 134 396 109 433 109 c 0
 464 109 502 147 511 166 c 1
 525 189 570 287 570 356 c 0
EndSplineSet
Validated: 1
Layer: 2
SplineSet
880 343 m 0,0,1
 880 222 880 222 810.5 131 c 128,-1,2
 741 40 741 40 659 40 c 0,3,4
 569 40 569 40 538 109 c 1,5,6
 510 78 510 78 471 59.5 c 128,-1,7
 432 41 432 41 401 41 c 0,8,9
 340 41 340 41 303.5 79 c 128,-1,10
 267 117 267 117 267 197 c 0,11,12
 267 310 267 310 344 404 c 128,-1,13
 421 498 421 498 510 498 c 0,14,15
 565 498 565 498 599 455 c 1,16,-1
 607 484 l 1,17,-1
 719 484 l 1,18,-1
 633 154 l 2,19,20
 631 144 631 144 631 141 c 0,21,22
 631 125 631 125 641.5 116.5 c 128,-1,23
 652 108 652 108 667 108 c 0,24,25
 719 108 719 108 767.5 183.5 c 128,-1,26
 816 259 816 259 816 341 c 0,27,28
 816 468 816 468 719 552 c 128,-1,29
 622 636 622 636 501 636 c 0,30,31
 403 636 403 636 323.5 576 c 128,-1,32
 244 516 244 516 203.5 431 c 128,-1,33
 163 346 163 346 163 261 c 0,34,35
 163 213 163 213 171 168 c 128,-1,36
 179 123 179 123 201.5 74.5 c 128,-1,37
 224 26 224 26 259 -9.5 c 128,-1,38
 294 -45 294 -45 355 -68 c 128,-1,39
 416 -91 416 -91 495 -91 c 0,40,41
 566 -91 566 -91 640 -66 c 128,-1,42
 714 -41 714 -41 753 -2 c 1,43,-1
 774 -14 l 1,44,-1
 753 -81 l 1,45,46
 742 -89 742 -89 721 -101.5 c 128,-1,47
 700 -114 700 -114 632.5 -134.5 c 128,-1,48
 565 -155 565 -155 493 -155 c 0,49,50
 411 -155 411 -155 334 -130.5 c 128,-1,51
 257 -106 257 -106 190.5 -57.5 c 128,-1,52
 124 -9 124 -9 83.5 75.5 c 128,-1,53
 43 160 43 160 43 269 c 0,54,55
 43 322 43 322 60 379.5 c 128,-1,56
 77 437 77 437 114 494.5 c 128,-1,57
 151 552 151 552 203 597 c 128,-1,58
 255 642 255 642 332.5 670.5 c 128,-1,59
 410 699 410 699 501 699 c 0,60,61
 543 699 543 699 590.5 688 c 128,-1,62
 638 677 638 677 690.5 650.5 c 128,-1,63
 743 624 743 624 784.5 584.5 c 128,-1,64
 826 545 826 545 853 482.5 c 128,-1,65
 880 420 880 420 880 343 c 0,0,1
570 356 m 0,66,67
 570 427 570 427 525 427 c 128,-1,68
 480 427 480 427 432 360.5 c 128,-1,69
 384 294 384 294 384 187 c 0,70,71
 384 146 384 146 395 127.5 c 128,-1,72
 406 109 406 109 433 109 c 0,73,74
 454 109 454 109 478.5 129 c 128,-1,75
 503 149 503 149 511 166 c 0,76,77
 527 193 527 193 548.5 252 c 128,-1,78
 570 311 570 311 570 356 c 0,66,67
EndSplineSet
EndChar

StartChar: A
Encoding: 65 65 34
Width: 721
Flags: W
HStem: 0 45<3 56.103 158.049 226 438 504.893 656.895 717> 217 64<235 429> 670 20G<326.625 387.705>
DStem2: 134 210 209 217 0.386252 0.922393<-115.058 35.4257 104.501 355.191> 379 690 330 513 0.399088 -0.916913<142.738 394.972 463.232 614.893>
LayerCount: 3
Fore
SplineSet
717 0 m 1
 438 0 l 1
 438 45 l 1
 488 47 506 54 506 74 c 0
 506 88 497 109 485 138 c 2
 453 217 l 1
 209 217 l 1
 194 177 157 108 157 74 c 0
 157 48 187 45 226 45 c 1
 226 0 l 1
 3 0 l 1
 3 43 l 1
 72 49 95 120 134 210 c 1
 335 690 l 1
 379 690 l 1
 621 134 l 2
 645 78 654 45 717 45 c 1
 717 0 l 1
429 281 m 1
 330 513 l 1
 235 281 l 1
 429 281 l 1
EndSplineSet
Validated: 1
Layer: 2
SplineSet
717 0 m 1,0,-1
 438 0 l 1,1,-1
 438 45 l 1,2,3
 476 47 476 47 491 53 c 128,-1,4
 506 59 506 59 506 74 c 0,5,6
 506 87 506 87 485 138 c 2,7,-1
 453 217 l 1,8,-1
 209 217 l 1,9,10
 205 205 205 205 190 172.5 c 128,-1,11
 175 140 175 140 166 114.5 c 128,-1,12
 157 89 157 89 157 74 c 0,13,14
 157 56 157 56 174.5 50.5 c 128,-1,15
 192 45 192 45 226 45 c 1,16,-1
 226 0 l 1,17,-1
 3 0 l 1,18,-1
 3 43 l 1,19,20
 14 44 14 44 24 47 c 128,-1,21
 34 50 34 50 43 56.5 c 128,-1,22
 52 63 52 63 59 68.5 c 128,-1,23
 66 74 66 74 73.5 86 c 128,-1,24
 81 98 81 98 85.5 105 c 128,-1,25
 90 112 90 112 98 128.5 c 128,-1,26
 106 145 106 145 109.5 153 c 128,-1,27
 113 161 113 161 121.5 181.5 c 128,-1,28
 130 202 130 202 134 210 c 2,29,-1
 335 690 l 1,30,-1
 379 690 l 1,31,-1
 621 134 l 2,32,33
 644.892768507 78.2502068176 644.892768507 78.2502068176 656.895172119 65.7229614258 c 0,34,35
 676.749923846 45 676.749923846 45 717 45 c 1,36,-1
 717 0 l 1,0,-1
429 281 m 1,37,-1
 330 513 l 1,38,-1
 235 281 l 1,39,-1
 429 281 l 1,37,-1
EndSplineSet
EndChar

StartChar: B
Encoding: 66 66 35
Width: 666
Flags: W
HStem: 0 61<233.263 407.641> 0 45<8 94.9824> 326 64<230 393.413> 625 65<230.428 393.492> 645 45<8 94.0937>
VStem: 104 126<66.6426 326 390 622.009> 447 127<438.265 576.025> 468 140<115.322 266.988>
LayerCount: 3
Fore
SplineSet
608 195 m 0x35
 608 69 499 0 335 0 c 2xb5
 8 0 l 1
 8 45 l 1
 89 45 104 68 104 92 c 2
 104 598 l 2
 104 621 89 645 8 645 c 1
 8 690 l 1x6d
 287 690 l 2
 450 690 574 642 574 508 c 0x36
 574 433 535 386 473 361 c 1
 547 335 608 281 608 195 c 0x35
447 505 m 0x36
 447 600 373 625 286 625 c 0
 246 625 230 618 230 598 c 2
 230 390 l 1
 300 390 l 2
 392 390 447 432 447 505 c 0x36
468 197 m 0xa5
 468 309 356 326 267 326 c 2
 230 326 l 1
 230 103 l 2
 230 74 240 61 300 61 c 0
 396 61 468 89 468 197 c 0xa5
EndSplineSet
Validated: 1
Layer: 2
SplineSet
608 195 m 0,0,1
 608 102 608 102 534 51 c 128,-1,2
 460 0 460 0 335 0 c 2,3,-1
 8 0 l 1,4,-1
 8 45 l 1,5,6
 104 45 104 45 104 92 c 2,7,-1
 104 598 l 2,8,9
 104 645 104 645 8 645 c 1,10,-1
 8 690 l 1,11,-1
 287 690 l 2,12,13
 419 690 419 690 496.5 646.5 c 128,-1,14
 574 603 574 603 574 508 c 0,15,16
 574 402 574 402 473 361 c 1,17,18
 533 340 533 340 570.5 298 c 128,-1,19
 608 256 608 256 608 195 c 0,0,1
447 505 m 0,20,21
 447 625 447 625 286 625 c 0,22,23
 230 625 230 625 230 598 c 2,24,-1
 230 390 l 1,25,-1
 300 390 l 2,26,27
 369 390 369 390 408 420 c 128,-1,28
 447 450 447 450 447 505 c 0,20,21
468 197 m 0,29,30
 468 326 468 326 267 326 c 2,31,-1
 230 326 l 1,32,-1
 230 103 l 2,33,34
 230 80 230 80 243.5 70.5 c 128,-1,35
 257 61 257 61 300 61 c 0,36,37
 380 61 380 61 424 91 c 128,-1,38
 468 121 468 121 468 197 c 0,29,30
EndSplineSet
EndChar

StartChar: C
Encoding: 67 67 36
Width: 666
Flags: W
HStem: -14 69<295.134 489.156> 634 66<289.594 475.823>
VStem: 22 139<209.291 471.515> 591 45<450 508.57>
LayerCount: 3
Fore
SplineSet
651 123 m 1
 584 38 476 -14 376 -14 c 0
 175 -14 22 115 22 343 c 0
 22 548 166 700 375 700 c 0
 461 700 512 661 546 661 c 0
 563 661 576 671 587 699 c 1
 628 699 l 1
 636 450 l 1
 591 450 l 1
 561 562 493 634 384 634 c 0
 227 634 161 507 161 335 c 0
 161 201 230 55 386 55 c 0
 481 55 544 86 621 163 c 1
 651 123 l 1
EndSplineSet
Validated: 1
Layer: 2
SplineSet
651 123 m 1,0,1
 601 60 601 60 526.5 23 c 128,-1,2
 452 -14 452 -14 376 -14 c 0,3,4
 221 -14 221 -14 121.5 81 c 128,-1,5
 22 176 22 176 22 343 c 0,6,7
 22 498 22 498 120.5 599 c 128,-1,8
 219 700 219 700 375 700 c 0,9,10
 424 700 424 700 480 680.5 c 128,-1,11
 536 661 536 661 546 661 c 0,12,13
 572 661 572 661 587 699 c 1,14,-1
 628 699 l 1,15,-1
 636 450 l 1,16,-1
 591 450 l 1,17,18
 568 537 568 537 515.5 585.5 c 128,-1,19
 463 634 463 634 384 634 c 0,20,21
 271 634 271 634 216 552.5 c 128,-1,22
 161 471 161 471 161 335 c 0,23,24
 161 283 161 283 174.5 234.5 c 128,-1,25
 188 186 188 186 214.5 145 c 128,-1,26
 241 104 241 104 285.5 79.5 c 128,-1,27
 330 55 330 55 386 55 c 0,28,29
 456 55 456 55 509 79.5 c 128,-1,30
 562 104 562 104 621 163 c 1,31,-1
 651 123 l 1,0,1
EndSplineSet
EndChar

StartChar: D
Encoding: 68 68 37
Width: 721
Flags: W
HStem: 0 65<225.418 405.268> 0 45<8 86.7207> 627 63<223.89 393.454> 645 45<8 85.9091>
VStem: 95 128<69.4752 625.766> 567 133<223.914 464.384>
LayerCount: 3
Fore
SplineSet
700 344 m 0x2c
 700 135 562 0 286 0 c 2xac
 8 0 l 1
 8 45 l 1
 81 45 95 68 95 92 c 2
 95 598 l 2
 95 621 81 645 8 645 c 1
 8 690 l 1x5c
 278 690 l 2
 541 690 700 576 700 344 c 0x2c
223 103 m 2
 223 66 252 65 280 65 c 0
 463 65 567 173 567 343 c 0
 567 531 444 627 267 627 c 0
 230 627 223 627 223 588 c 2
 223 103 l 2
EndSplineSet
Validated: 1
Layer: 2
SplineSet
700 344 m 0,0,1
 700 183 700 183 594.5 91.5 c 128,-1,2
 489 0 489 0 286 0 c 2,3,-1
 8 0 l 1,4,-1
 8 45 l 1,5,6
 95 45 95 45 95 92 c 2,7,-1
 95 598 l 2,8,9
 95 645 95 645 8 645 c 1,10,-1
 8 690 l 1,11,-1
 278 690 l 2,12,13
 479 690 479 690 589.5 602.5 c 128,-1,14
 700 515 700 515 700 344 c 0,0,1
223 103 m 2,15,16
 223 78 223 78 237.5 71.5 c 128,-1,17
 252 65 252 65 280 65 c 0,18,19
 416 65 416 65 491.5 139.5 c 128,-1,20
 567 214 567 214 567 343 c 0,21,22
 567 480 567 480 485.5 553.5 c 128,-1,23
 404 627 404 627 267 627 c 0,24,25
 238 627 238 627 230.5 621.5 c 128,-1,26
 223 616 223 616 223 588 c 2,27,-1
 223 103 l 2,15,16
EndSplineSet
EndChar

StartChar: E
Encoding: 69 69 38
Width: 609
Flags: W
HStem: 0 66<215.023 478.215> 0 45<0 79.1406> 326 66<215 424.904> 624 66<215.36 468.936> 645 45<0 78.2916>
VStem: 88 127<66.582 326 392 622.972> 455 44<229 297.088 419.589 487> 510 44<522 580.201>
LayerCount: 3
Fore
SplineSet
613 194 m 1xb7
 561 0 l 1
 0 0 l 1
 0 45 l 1
 72 45 88 68 88 92 c 2
 88 598 l 2
 88 621 72 645 0 645 c 1
 0 690 l 1
 554 690 l 1x6f
 554 522 l 1
 510 522 l 1
 499 581 468 624 407 624 c 2
 246 624 l 2
 229 624 215 614 215 598 c 2
 215 392 l 1
 343 392 l 2
 402 392 455 406 455 487 c 1
 499 487 l 1
 499 229 l 1
 455 229 l 1
 455 310 402 326 343 326 c 2
 215 326 l 1
 215 92 l 2
 215 81 215 66 227 66 c 2
 359 66 l 2
 435 66 508 68 561 194 c 1
 613 194 l 1xb7
EndSplineSet
Validated: 1
Layer: 2
SplineSet
613 194 m 1,0,-1
 561 0 l 1,1,-1
 0 0 l 1,2,-1
 0 45 l 1,3,4
 88 45 88 45 88 92 c 2,5,-1
 88 598 l 2,6,7
 88 645 88 645 0 645 c 1,8,-1
 0 690 l 1,9,-1
 554 690 l 1,10,-1
 554 522 l 1,11,-1
 510 522 l 1,12,13
 491 624 491 624 407 624 c 2,14,-1
 246 624 l 2,15,16
 233 624 233 624 224 617 c 128,-1,17
 215 610 215 610 215 598 c 2,18,-1
 215 392 l 1,19,-1
 343 392 l 2,20,21
 395 392 395 392 425 412 c 128,-1,22
 455 432 455 432 455 487 c 1,23,-1
 499 487 l 1,24,-1
 499 229 l 1,25,-1
 455 229 l 1,26,27
 455 285 455 285 425 305.5 c 128,-1,28
 395 326 395 326 343 326 c 2,29,-1
 215 326 l 1,30,-1
 215 92 l 2,31,32
 215 66 215 66 227 66 c 2,33,-1
 359 66 l 2,34,35
 388 66 388 66 404.5 67 c 128,-1,36
 421 68 421 68 446.5 75 c 128,-1,37
 472 82 472 82 489.5 94.5 c 128,-1,38
 507 107 507 107 526.5 132.5 c 128,-1,39
 546 158 546 158 561 194 c 1,40,-1
 613 194 l 1,0,-1
EndSplineSet
EndChar

StartChar: F
Encoding: 70 70 39
Width: 556
Flags: W
HStem: 0 45<0 79.1406 223.385 304> 326 66<215 415.255> 624 66<215.167 478.259> 645 45<0 78.2916>
VStem: 88 127<57.1204 326 392 622.979> 445 47<229 297.088 419.589 487> 508 48<522 592.508>
LayerCount: 3
Fore
SplineSet
556 522 m 1xde
 508 522 l 1
 498 618 456 624 403 624 c 2
 244 624 l 2xee
 221 624 215 613 215 598 c 2
 215 392 l 1
 333 392 l 2
 393 392 445 406 445 487 c 1
 492 487 l 1
 492 229 l 1
 445 229 l 1
 445 310 393 326 333 326 c 2
 215 326 l 1
 215 92 l 2
 215 68 229 45 304 45 c 1
 304 0 l 1
 0 0 l 1
 0 45 l 1
 72 45 88 68 88 92 c 2
 88 598 l 2
 88 621 72 645 0 645 c 1
 0 690 l 1
 556 690 l 1
 556 522 l 1xde
EndSplineSet
Validated: 1
Layer: 2
SplineSet
556 522 m 1,0,-1
 508 522 l 1,1,2
 504 557 504 557 495.5 578.5 c 128,-1,3
 487 600 487 600 471 609.5 c 128,-1,4
 455 619 455 619 441 621.5 c 128,-1,5
 427 624 427 624 403 624 c 2,6,-1
 244 624 l 2,7,8
 215 624 215 624 215 598 c 2,9,-1
 215 392 l 1,10,-1
 333 392 l 2,11,12
 386 392 386 392 415.5 411.5 c 128,-1,13
 445 431 445 431 445 487 c 1,14,-1
 492 487 l 1,15,-1
 492 229 l 1,16,-1
 445 229 l 1,17,18
 445 285 445 285 415 305.5 c 128,-1,19
 385 326 385 326 333 326 c 2,20,-1
 215 326 l 1,21,-1
 215 92 l 2,22,23
 215 45 215 45 304 45 c 1,24,-1
 304 0 l 1,25,-1
 0 0 l 1,26,-1
 0 45 l 1,27,28
 88 45 88 45 88 92 c 2,29,-1
 88 598 l 2,30,31
 88 645 88 645 0 645 c 1,32,-1
 0 690 l 1,33,-1
 556 690 l 1,34,-1
 556 522 l 1,0,-1
EndSplineSet
EndChar

StartChar: G
Encoding: 71 71 40
Width: 721
Flags: W
HStem: -14 66<297.435 501.632> 336 45<436 512.185 654.157 716> 636 64<284.576 478.853>
VStem: 15 140<211.862 469.382> 524 121<72.5113 322.967> 593 43<464 511.66>
LayerCount: 3
Fore
SplineSet
716 336 m 1xf8
 648 336 645 307 645 260 c 2
 645 61 l 1xf8
 581 26 465 -14 382 -14 c 0
 206 -14 15 98 15 341 c 0
 15 547 163 700 370 700 c 0
 447 700 505 665 543 665 c 0
 562 665 576 674 585 700 c 1
 628 700 l 1
 636 464 l 1
 593 464 l 1xf4
 554 573 492 636 379 636 c 0
 221 636 155 501 155 333 c 0
 155 186 235 52 395 52 c 0
 430 52 470 58 502 72 c 1
 524 83 524 88 524 111 c 2
 524 260 l 2
 524 309 519 336 436 336 c 1
 436 381 l 1
 716 381 l 1
 716 336 l 1xf8
EndSplineSet
Validated: 1
Layer: 2
SplineSet
716 336 m 1,0,1
 669 336 669 336 657 318.5 c 128,-1,2
 645 301 645 301 645 260 c 2,3,-1
 645 61 l 1,4,5
 592 32 592 32 516 9 c 128,-1,6
 440 -14 440 -14 382 -14 c 0,7,8
 314 -14 314 -14 250 8 c 128,-1,9
 186 30 186 30 133 72 c 128,-1,10
 80 114 80 114 47.5 184 c 128,-1,11
 15 254 15 254 15 341 c 0,12,13
 15 496 15 496 115 598 c 128,-1,14
 215 700 215 700 370 700 c 0,15,16
 413 700 413 700 471 682.5 c 128,-1,17
 529 665 529 665 543 665 c 0,18,19
 573 665 573 665 585 700 c 1,20,-1
 628 700 l 1,21,-1
 636 464 l 1,22,-1
 593 464 l 1,23,24
 562 549 562 549 511.5 592.5 c 128,-1,25
 461 636 461 636 379 636 c 0,26,27
 266 636 266 636 210.5 552 c 128,-1,28
 155 468 155 468 155 333 c 0,29,30
 155 215 155 215 218 133.5 c 128,-1,31
 281 52 281 52 395 52 c 0,32,33
 456 52 456 52 502 72 c 0,34,35
 518 80 518 80 521 86 c 128,-1,36
 524 92 524 92 524 111 c 2,37,-1
 524 260 l 2,38,39
 524 302 524 302 508.5 319 c 128,-1,40
 493 336 493 336 436 336 c 1,41,-1
 436 381 l 1,42,-1
 716 381 l 1,43,-1
 716 336 l 1,0,1
EndSplineSet
EndChar

StartChar: H
Encoding: 72 72 41
Width: 721
Flags: W
HStem: 0 45<8 86.7207 231.279 310 412 492.088 635.543 714> 321 66<223 501> 645 45<3 85.89 232.091 310 412 491.232 636.37 714>
VStem: 95 128<56.3647 321 387 633.312> 501 126<57.1204 321 387 632.543>
LayerCount: 3
Fore
SplineSet
714 0 m 1
 412 0 l 1
 412 45 l 1
 485 45 501 68 501 92 c 2
 501 321 l 1
 223 321 l 1
 223 92 l 2
 223 68 237 45 310 45 c 1
 310 0 l 1
 8 0 l 1
 8 45 l 1
 81 45 95 68 95 92 c 2
 95 598 l 2
 95 621 82 645 3 645 c 1
 3 690 l 1
 310 690 l 1
 310 645 l 1
 237 645 223 621 223 598 c 2
 223 387 l 1
 501 387 l 1
 501 598 l 2
 501 621 485 645 412 645 c 1
 412 690 l 1
 714 690 l 1
 714 645 l 1
 642 645 627 621 627 598 c 2
 627 92 l 2
 627 68 642 45 714 45 c 1
 714 0 l 1
EndSplineSet
Validated: 1
Layer: 2
SplineSet
714 0 m 1,0,-1
 412 0 l 1,1,-1
 412 45 l 1,2,3
 501 45 501 45 501 92 c 2,4,-1
 501 321 l 1,5,-1
 223 321 l 1,6,-1
 223 92 l 2,7,8
 223 45 223 45 310 45 c 1,9,-1
 310 0 l 1,10,-1
 8 0 l 1,11,-1
 8 45 l 1,12,13
 95 45 95 45 95 92 c 2,14,-1
 95 598 l 2,15,16
 95 645 95 645 3 645 c 1,17,-1
 3 690 l 1,18,-1
 310 690 l 1,19,-1
 310 645 l 1,20,21
 223 645 223 645 223 598 c 2,22,-1
 223 387 l 1,23,-1
 501 387 l 1,24,-1
 501 598 l 2,25,26
 501 645 501 645 412 645 c 1,27,-1
 412 690 l 1,28,-1
 714 690 l 1,29,-1
 714 645 l 1,30,31
 627 645 627 645 627 598 c 2,32,-1
 627 92 l 2,33,34
 627 45 627 45 714 45 c 1,35,-1
 714 0 l 1,0,-1
EndSplineSet
EndChar

StartChar: I
Encoding: 73 73 42
Width: 333
Flags: W
HStem: 0 45<6 94.877 239.439 329> 645 45<6 93.9745 240.364 329>
VStem: 104 126<57.8952 631.755>
LayerCount: 3
Fore
SplineSet
329 0 m 1
 6 0 l 1
 6 45 l 1
 89 45 104 68 104 92 c 2
 104 598 l 2
 104 621 89 645 6 645 c 1
 6 690 l 1
 329 690 l 1
 329 645 l 1
 246 645 230 621 230 598 c 2
 230 92 l 2
 230 68 246 45 329 45 c 1
 329 0 l 1
EndSplineSet
Validated: 1
Layer: 2
SplineSet
329 0 m 1,0,-1
 6 0 l 1,1,-1
 6 45 l 1,2,3
 104 45 104 45 104 92 c 2,4,-1
 104 598 l 2,5,6
 104 645 104 645 6 645 c 1,7,-1
 6 690 l 1,8,-1
 329 690 l 1,9,-1
 329 645 l 1,10,11
 230 645 230 645 230 598 c 2,12,-1
 230 92 l 2,13,14
 230 45 230 45 329 45 c 1,15,-1
 329 0 l 1,0,-1
EndSplineSet
EndChar

StartChar: J
Encoding: 74 74 43
Width: 388
Flags: W
HStem: -14 63<60.5 157.007> 645 45<66 153.975 300.364 389>
VStem: -2 119<49.3806 116.556> 164 126<91.5796 631.755>
LayerCount: 3
Fore
SplineSet
117 89 m 0
 117 85 116 84 116 77 c 0
 116 64 124 49 135 49 c 0
 160 49 164 91 164 126 c 2
 164 598 l 2
 164 621 149 645 66 645 c 1
 66 690 l 1
 389 690 l 1
 389 645 l 1
 306 645 290 621 290 598 c 2
 290 210 l 2
 290 60 210 -14 112 -14 c 0
 9 -14 -2 59 -2 71 c 0
 -2 100 23 132 58 132 c 0
 96 132 117 104 117 89 c 0
EndSplineSet
Validated: 1
Layer: 2
SplineSet
117 89 m 0,0,1
 117 87 117 87 116.5 84 c 128,-1,2
 116 81 116 81 116 77 c 0,3,4
 116 67 116 67 121.5 58 c 128,-1,5
 127 49 127 49 135 49 c 0,6,7
 164 49 164 49 164 126 c 2,8,-1
 164 598 l 2,9,10
 164 645 164 645 66 645 c 1,11,-1
 66 690 l 1,12,-1
 389 690 l 1,13,-1
 389 645 l 1,14,15
 290 645 290 645 290 598 c 2,16,-1
 290 210 l 2,17,18
 290 102 290 102 239.5 44 c 128,-1,19
 189 -14 189 -14 112 -14 c 0,20,21
 76 -14 76 -14 51 -3 c 128,-1,22
 26 8 26 8 16 24.5 c 128,-1,23
 6 41 6 41 2 52 c 128,-1,24
 -2 63 -2 63 -2 71 c 0,25,26
 -2 94 -2 94 15.5 113 c 128,-1,27
 33 132 33 132 58 132 c 0,28,29
 84 132 84 132 100.5 117.5 c 128,-1,30
 117 103 117 103 117 89 c 0,0,1
EndSplineSet
EndChar

StartChar: K
Encoding: 75 75 44
Width: 721
Flags: W
HStem: 0 45<8 89.2988 233.018 315 392 460.987 645.363 720> 645 45<8 88.4513 233.947 316 387 454.973 581.392 673>
VStem: 98 126<57.1204 306 390 632.543>
DStem2: 336 390 237 315 0.681535 -0.731786<0 327.677>
LayerCount: 3
Fore
SplineSet
720 0 m 1
 392 0 l 1
 392 45 l 1
 443 45 461 47 461 58 c 0
 461 70 411 141 326 224 c 1
 237 315 l 1
 224 306 l 1
 224 92 l 2
 224 68 240 45 315 45 c 1
 315 0 l 1
 8 0 l 1
 8 45 l 1
 83 45 98 68 98 92 c 2
 98 598 l 2
 98 621 83 645 8 645 c 1
 8 690 l 1
 316 690 l 1
 316 645 l 1
 240 645 224 621 224 598 c 2
 224 390 l 1
 292 449 455 584 455 624 c 0
 455 653 418 644 387 647 c 1
 387 690 l 1
 673 690 l 1
 673 645 l 1
 590 645 554 608 508 562 c 2
 336 390 l 1
 553 157 l 1
 602 101 641 45 720 45 c 1
 720 0 l 1
EndSplineSet
Validated: 1
Layer: 2
SplineSet
720 0 m 1,0,-1
 392 0 l 1,1,-1
 392 45 l 1,2,3
 461 45 461 45 461 58 c 0,4,5
 461 64 461 64 445.5 87 c 128,-1,6
 430 110 430 110 398 147.5 c 128,-1,7
 366 185 366 185 326 224 c 2,8,-1
 237 315 l 1,9,-1
 224 306 l 1,10,-1
 224 92 l 2,11,12
 224 45 224 45 315 45 c 1,13,-1
 315 0 l 1,14,-1
 8 0 l 1,15,-1
 8 45 l 1,16,17
 98 45 98 45 98 92 c 2,18,-1
 98 598 l 2,19,20
 98 645 98 645 8 645 c 1,21,-1
 8 690 l 1,22,-1
 316 690 l 1,23,-1
 316 645 l 1,24,25
 224 645 224 645 224 598 c 2,26,-1
 224 390 l 1,27,28
 230 395 230 395 257.5 418.5 c 128,-1,29
 285 442 285 442 300.5 455.5 c 128,-1,30
 316 469 316 469 343 493.5 c 128,-1,31
 370 518 370 518 386.5 534.5 c 128,-1,32
 403 551 403 551 420.5 570 c 128,-1,33
 438 589 438 589 446.5 602.5 c 128,-1,34
 455 616 455 616 455 624 c 128,-1,35
 455 632 455 632 451 637 c 128,-1,36
 447 642 447 642 439.5 644 c 128,-1,37
 432 646 432 646 424.5 646 c 128,-1,38
 417 646 417 646 405.5 646 c 128,-1,39
 394 646 394 646 387 647 c 1,40,-1
 387 690 l 1,41,-1
 673 690 l 1,42,-1
 673 645 l 1,43,44
 634 645 634 645 602 632 c 128,-1,45
 570 619 570 619 554 605.5 c 128,-1,46
 538 592 538 592 508 562 c 2,47,-1
 336 390 l 1,48,-1
 553 157 l 2,49,50
 555 154 555 154 572.5 134 c 128,-1,51
 590 114 590 114 594.5 110 c 128,-1,52
 599 106 599 106 614 90.5 c 128,-1,53
 629 75 629 75 637.5 70.5 c 128,-1,54
 646 66 646 66 660.5 58 c 128,-1,55
 675 50 675 50 689.5 47.5 c 128,-1,56
 704 45 704 45 720 45 c 1,57,-1
 720 0 l 1,0,-1
EndSplineSet
EndChar

StartChar: L
Encoding: 76 76 45
Width: 609
Flags: W
HStem: 0 66<215.395 475.087> 0 45<0 79.1406> 645 45<0 78.2916 224.151 303>
VStem: 88 127<71.465 632.543>
LayerCount: 3
Fore
SplineSet
614 198 m 1xb0
 559 0 l 1
 0 0 l 1
 0 45 l 1x70
 72 45 88 68 88 92 c 2
 88 598 l 2
 88 621 72 645 0 645 c 1
 0 690 l 1
 303 690 l 1
 303 645 l 1
 229 645 215 621 215 598 c 2
 215 92 l 2
 215 69 249 66 303 66 c 2
 331 66 l 2
 436 66 513 71 565 198 c 1
 614 198 l 1xb0
EndSplineSet
Validated: 1
Layer: 2
SplineSet
614 198 m 1,0,-1
 559 0 l 1,1,-1
 0 0 l 1,2,-1
 0 45 l 1,3,4
 88 45 88 45 88 92 c 2,5,-1
 88 598 l 2,6,7
 88 645 88 645 0 645 c 1,8,-1
 0 690 l 1,9,-1
 303 690 l 1,10,-1
 303 645 l 1,11,12
 215 645 215 645 215 598 c 2,13,-1
 215 92 l 2,14,15
 215 76 215 76 236 71 c 128,-1,16
 257 66 257 66 303 66 c 2,17,-1
 331 66 l 2,18,19
 379 66 379 66 406 69 c 128,-1,20
 433 72 433 72 466 84 c 128,-1,21
 499 96 499 96 522.5 124 c 128,-1,22
 546 152 546 152 565 198 c 1,23,-1
 614 198 l 1,0,-1
EndSplineSet
EndChar

StartChar: M
Encoding: 77 77 46
Width: 887
Flags: W
HStem: 0 45<8 94.9824 181.07 269 581 659.457 802.596 882> 645 45<9 94.1533 803.151 882>
VStem: 104 68<57.1204 505> 668 126<56.3647 528>
DStem2: 227 690 172 505 0.414482 -0.910058<145.564 540.178> 450 198 432 0 0.408063 0.912954<0 390.232>
LayerCount: 3
Fore
SplineSet
882 0 m 1
 581 0 l 1
 581 45 l 1
 653 45 668 68 668 92 c 2
 668 528 l 1
 432 0 l 1
 402 0 l 1
 172 505 l 1
 172 92 l 2
 172 68 187 45 269 45 c 1
 269 0 l 1
 8 0 l 1
 8 45 l 1
 89 45 104 68 104 92 c 2
 104 598 l 2
 104 621 89 645 9 645 c 1
 9 690 l 1
 227 690 l 1
 450 198 l 1
 662 690 l 1
 882 690 l 1
 882 645 l 1
 808 645 794 621 794 598 c 2
 794 92 l 2
 794 68 809 45 882 45 c 1
 882 0 l 1
EndSplineSet
Validated: 1
Layer: 2
SplineSet
882 0 m 1,0,-1
 581 0 l 1,1,-1
 581 45 l 1,2,3
 668 45 668 45 668 92 c 2,4,-1
 668 528 l 1,5,-1
 432 0 l 1,6,-1
 402 0 l 1,7,-1
 172 505 l 1,8,-1
 172 92 l 2,9,10
 172 45 172 45 269 45 c 1,11,-1
 269 0 l 1,12,-1
 8 0 l 1,13,-1
 8 45 l 1,14,15
 104 45 104 45 104 92 c 2,16,-1
 104 598 l 2,17,18
 104 645 104 645 9 645 c 1,19,-1
 9 690 l 1,20,-1
 227 690 l 1,21,-1
 450 198 l 1,22,-1
 662 690 l 1,23,-1
 882 690 l 1,24,-1
 882 645 l 1,25,26
 794 645 794 645 794 598 c 2,27,-1
 794 92 l 2,28,29
 794 45 794 45 882 45 c 1,30,-1
 882 0 l 1,0,-1
EndSplineSet
EndChar

StartChar: N
Encoding: 78 78 47
Width: 721
Flags: W
HStem: -14 21G<574.06 624> 0 45<0 87.666 174.807 263> 645 45<0 73.9981 458 544.652 633.906 720>
VStem: 97 69<57.8952 518> 554 70<229 632.543>
DStem2: 189 690 166 518 0.62326 -0.782015<120.172 587.999>
LayerCount: 3
Fore
SplineSet
720 645 m 1x78
 639 645 624 621 624 598 c 2
 624 -14 l 1
 590 -14 l 1xb8
 166 518 l 1
 166 92 l 2
 166 68 180 45 263 45 c 1
 263 0 l 1
 0 0 l 1
 0 45 l 1
 81 45 97 68 97 92 c 2
 97 596 l 1
 91 605 l 1
 63 636 57 645 0 645 c 1
 0 690 l 1
 189 690 l 1
 554 229 l 1
 554 598 l 2
 554 621 541 645 458 645 c 1
 458 690 l 1
 720 690 l 1
 720 645 l 1x78
EndSplineSet
Validated: 1
Layer: 2
SplineSet
720 645 m 1,0,1
 624 645 624 645 624 598 c 2,2,-1
 624 -14 l 1,3,-1
 590 -14 l 1,4,-1
 166 518 l 1,5,-1
 166 92 l 2,6,7
 166 45 166 45 263 45 c 1,8,-1
 263 0 l 1,9,-1
 0 0 l 1,10,-1
 0 45 l 1,11,12
 97 45 97 45 97 92 c 2,13,-1
 97 596 l 1,14,-1
 91 605 l 1,15,16
 68 631 68 631 54 638 c 128,-1,17
 40 645 40 645 0 645 c 1,18,-1
 0 690 l 1,19,-1
 189 690 l 1,20,-1
 554 229 l 1,21,-1
 554 598 l 2,22,23
 554 645 554 645 458 645 c 1,24,-1
 458 690 l 1,25,-1
 720 690 l 1,26,-1
 720 645 l 1,0,1
EndSplineSet
EndChar

StartChar: O
Encoding: 79 79 48
Width: 721
Flags: W
HStem: -14 62<276.053 444.819> 639 61<275.094 446.422>
VStem: 22 138<212.651 478.897> 562 137<209.614 476.486>
LayerCount: 3
Fore
SplineSet
699 343 m 0
 699 143 568 -14 361 -14 c 0
 178 -14 22 124 22 343 c 0
 22 550 153 700 361 700 c 0
 549 700 699 564 699 343 c 0
562 343 m 0
 562 492 514 639 361 639 c 0
 225 639 160 526 160 343 c 0
 160 146 241 48 361 48 c 0
 525 48 562 235 562 343 c 0
EndSplineSet
Validated: 1
Layer: 2
SplineSet
699 343 m 0,0,1
 699 190 699 190 606 88 c 128,-1,2
 513 -14 513 -14 361 -14 c 0,3,4
 219 -14 219 -14 120.5 84.5 c 128,-1,5
 22 183 22 183 22 343 c 0,6,7
 22 500 22 500 114.5 600 c 128,-1,8
 207 700 207 700 361 700 c 0,9,10
 506 700 506 700 602.5 602.5 c 128,-1,11
 699 505 699 505 699 343 c 0,0,1
562 343 m 0,12,13
 562 402 562 402 551.5 452.5 c 128,-1,14
 541 503 541 503 519 546.5 c 128,-1,15
 497 590 497 590 456.5 614.5 c 128,-1,16
 416 639 416 639 361 639 c 0,17,18
 261 639 261 639 210.5 561.5 c 128,-1,19
 160 484 160 484 160 343 c 0,20,21
 160 199 160 199 214 123.5 c 128,-1,22
 268 48 268 48 361 48 c 0,23,24
 419 48 419 48 461 78 c 128,-1,25
 503 108 503 108 523.5 156 c 128,-1,26
 544 204 544 204 553 250.5 c 128,-1,27
 562 297 562 297 562 343 c 0,12,13
EndSplineSet
EndChar

StartChar: P
Encoding: 80 80 49
Width: 556
Flags: W
HStem: 0 45<-2 79.0352 222.543 301> 289 63<214 356.807> 627 63<214.134 354.014> 645 45<5 79.1475>
VStem: 88 126<57.1204 292 352.458 626.668> 421 133<412.361 570.078>
LayerCount: 3
Fore
SplineSet
554 502 m 0xec
 554 347 422 289 287 289 c 0
 264 289 238 290 214 292 c 1
 214 92 l 2
 214 68 229 45 301 45 c 1
 301 0 l 1
 -2 0 l 1
 -2 45 l 1
 72 45 88 68 88 92 c 2
 88 598 l 2
 88 621 74 645 5 645 c 1
 5 690 l 1xdc
 267 690 l 2
 430 690 554 627 554 502 c 0xec
421 495 m 0
 421 601 333 627 244 627 c 0xec
 215 627 214 624 214 594 c 2
 214 355 l 1
 226 353 238 352 250 352 c 0
 350 352 421 387 421 495 c 0
EndSplineSet
Validated: 1
Layer: 2
SplineSet
554 502 m 0,0,1
 554 394 554 394 477 341.5 c 128,-1,2
 400 289 400 289 287 289 c 0,3,4
 250 289 250 289 214 292 c 1,5,-1
 214 92 l 2,6,7
 214 45 214 45 301 45 c 1,8,-1
 301 0 l 1,9,-1
 -2 0 l 1,10,-1
 -2 45 l 1,11,12
 88 45 88 45 88 92 c 2,13,-1
 88 598 l 2,14,15
 88 645 88 645 5 645 c 1,16,-1
 5 690 l 1,17,-1
 267 690 l 2,18,19
 394 690 394 690 474 641.5 c 128,-1,20
 554 593 554 593 554 502 c 0,0,1
421 495 m 0,21,22
 421 627 421 627 244 627 c 0,23,24
 223 627 223 627 218.5 622 c 128,-1,25
 214 617 214 617 214 594 c 2,26,-1
 214 355 l 1,27,28
 232 352 232 352 250 352 c 0,29,30
 421 352 421 352 421 495 c 0,21,22
EndSplineSet
EndChar

StartChar: Q
Encoding: 81 81 50
Width: 721
Flags: W
HStem: -177 42<604.359 713> 639 61<275.947 444.293>
VStem: 22 138<210.442 476.055> 562 137<210.476 475.419>
LayerCount: 3
Fore
SplineSet
713 -177 m 1
 347 -177 313 -44 258 -5 c 1
 250 5 237 8 230 9 c 0
 95 46 22 201 22 343 c 0
 22 545 149 700 361 700 c 0
 570 700 699 544 699 343 c 0
 699 154 578 14 449 -6 c 1
 515 -84 594 -132 713 -135 c 1
 713 -177 l 1
562 343 m 0
 562 531 484 639 361 639 c 0
 232 639 160 533 160 343 c 0
 160 155 237 48 361 48 c 0
 493 48 562 167 562 343 c 0
EndSplineSet
Validated: 1
Layer: 2
SplineSet
713 -177 m 1,0,1
 610 -177 610 -177 532 -163.5 c 128,-1,2
 454 -150 454 -150 409 -127 c 128,-1,3
 364 -104 364 -104 337.5 -83 c 128,-1,4
 311 -62 311 -62 289.5 -37 c 128,-1,5
 268 -12 268 -12 258 -5 c 0,6,7
 249 6 249 6 230 9 c 0,8,9
 134 35 134 35 78 132.5 c 128,-1,10
 22 230 22 230 22 343 c 0,11,12
 22 498 22 498 114 599 c 128,-1,13
 206 700 206 700 361 700 c 0,14,15
 514 700 514 700 606.5 598.5 c 128,-1,16
 699 497 699 497 699 343 c 0,17,18
 699 206 699 206 624.5 108 c 128,-1,19
 550 10 550 10 449 -6 c 1,20,21
 555 -131 555 -131 713 -135 c 1,22,-1
 713 -177 l 1,0,1
562 343 m 0,23,24
 562 483 562 483 508 561 c 128,-1,25
 454 639 454 639 361 639 c 0,26,27
 264 639 264 639 212 562 c 128,-1,28
 160 485 160 485 160 343 c 0,29,30
 160 203 160 203 213.5 125.5 c 128,-1,31
 267 48 267 48 361 48 c 0,32,33
 458 48 458 48 510 128 c 128,-1,34
 562 208 562 208 562 343 c 0,23,24
EndSplineSet
EndChar

StartChar: R
Encoding: 82 82 51
Width: 666
Flags: W
HStem: 0 45<0 76.1426 220.332 300 595.527 665> 306 61<212 249> 627 63<212.654 360.05> 645 45<0 75.3669>
VStem: 84 128<56.3647 306 367 625.766> 421 133<429.986 573.917>
DStem2: 384 323 249 307 0.612692 -0.790322<0 318.381>
LayerCount: 3
Fore
SplineSet
665 0 m 1xec
 487 0 l 1
 249 307 l 1
 212 306 l 1
 212 92 l 2
 212 68 226 45 300 45 c 1
 300 0 l 1
 0 0 l 1
 0 45 l 1
 71 45 84 68 84 92 c 2
 84 598 l 2
 84 621 71 645 0 645 c 1
 0 690 l 1xdc
 276 690 l 2
 452 690 554 624 554 501 c 0
 554 395 475 341 384 323 c 1
 568 95 l 2
 592 65 613 48 665 43 c 1
 665 0 l 1xec
421 499 m 0
 421 590 355 627 273 627 c 2
 254 627 l 2xec
 218 627 212 625 212 591 c 2
 212 367 l 1
 339 373 421 401 421 499 c 0
EndSplineSet
Validated: 1
Layer: 2
SplineSet
665 0 m 1,0,-1
 487 0 l 1,1,-1
 249 307 l 1,2,-1
 212 306 l 1,3,-1
 212 92 l 2,4,5
 212 45 212 45 300 45 c 1,6,-1
 300 0 l 1,7,-1
 0 0 l 1,8,-1
 0 45 l 1,9,10
 84 45 84 45 84 92 c 2,11,-1
 84 598 l 2,12,13
 84 645 84 645 0 645 c 1,14,-1
 0 690 l 1,15,-1
 276 690 l 2,16,17
 409 690 409 690 481.5 641.5 c 128,-1,18
 554 593 554 593 554 501 c 0,19,20
 554 426 554 426 506.5 382 c 128,-1,21
 459 338 459 338 384 323 c 1,22,-1
 568 95 l 2,23,24
 588 70 588 70 608 58.5 c 128,-1,25
 628 47 628 47 665 43 c 1,26,-1
 665 0 l 1,0,-1
421 499 m 0,27,28
 421 564 421 564 380 595.5 c 128,-1,29
 339 627 339 627 273 627 c 2,30,-1
 254 627 l 2,31,32
 226 627 226 627 219 621.5 c 128,-1,33
 212 616 212 616 212 591 c 2,34,-1
 212 367 l 1,35,36
 316 372 316 372 368.5 401 c 128,-1,37
 421 430 421 430 421 499 c 0,27,28
EndSplineSet
EndChar

StartChar: S
Encoding: 83 83 52
Width: 556
Flags: W
HStem: -14 63<188.685 337.606> 634 66<195.155 337.097>
VStem: 58 111<500.144 606.088> 61 43<-14 20.9915> 377 125<96.2878 215.486> 433 49<462 521.943>
LayerCount: 3
Fore
SplineSet
377 149 m 0xd8
 377 317 58 316 58 521 c 0
 58 627 144 700 247 700 c 0
 314 700 356 665 384 665 c 0
 398 665 408 674 416 700 c 1
 458 700 l 1
 482 462 l 1
 433 462 l 1
 410 559 349 634 263 634 c 0
 210 634 169 607 169 551 c 0xe4
 169 498 229 461 269 436 c 1
 410 352 502 306 502 181 c 0
 502 86 425 -14 280 -14 c 0
 215 -14 164 22 133 22 c 0
 118 22 108 13 104 -14 c 1
 61 -14 l 1
 29 226 l 1
 74 226 l 1
 106 129 172 49 272 49 c 0
 333 49 377 93 377 149 c 0xd8
EndSplineSet
Validated: 1
Layer: 2
SplineSet
377 149 m 0,0,1
 377 195 377 195 344 231.5 c 128,-1,2
 311 268 311 268 264 294.5 c 128,-1,3
 217 321 217 321 170.5 349 c 128,-1,4
 124 377 124 377 91 420.5 c 128,-1,5
 58 464 58 464 58 521 c 0,6,7
 58 599 58 599 113 649.5 c 128,-1,8
 168 700 168 700 247 700 c 0,9,10
 285 700 285 700 330 682.5 c 128,-1,11
 375 665 375 665 384 665 c 0,12,13
 405 665 405 665 416 700 c 1,14,-1
 458 700 l 1,15,-1
 482 462 l 1,16,-1
 433 462 l 1,17,18
 415 538 415 538 370 586 c 128,-1,19
 325 634 325 634 263 634 c 0,20,21
 221 634 221 634 195 612.5 c 128,-1,22
 169 591 169 591 169 551 c 0,23,24
 169 532 169 532 178 515 c 128,-1,25
 187 498 187 498 205 482 c 128,-1,26
 223 466 223 466 235 458 c 128,-1,27
 247 450 247 450 269 436 c 0,28,29
 390.246205013 363.76821829 390.246205013 363.76821829 421.729071443 338.256558518 c 0,30,31
 497.093366509 277.186253534 497.093366509 277.186253534 501.646084467 194.165994612 c 0,32,33
 502 187.712232392 502 187.712232392 502 181 c 0,34,35
 502 104 502 104 442.5 45 c 128,-1,36
 383 -14 383 -14 280 -14 c 0,37,38
 243 -14 243 -14 193.5 4 c 128,-1,39
 144 22 144 22 133 22 c 0,40,41
 109 22 109 22 104 -14 c 1,42,-1
 61 -14 l 1,43,-1
 29 226 l 1,44,-1
 74 226 l 1,45,46
 100 147 100 147 150.5 98 c 128,-1,47
 201 49 201 49 272 49 c 0,48,49
 317 49 317 49 347 78 c 128,-1,50
 377 107 377 107 377 149 c 0,0,1
EndSplineSet
EndChar

StartChar: T
Encoding: 84 84 53
Width: 609
Flags: W
HStem: 0 45<154 232.721 377.016 456> 622 68<94.413 241 369 517.297>
VStem: 6 48<495 570.412> 241 128<56.3647 622> 559 46<495 570.412>
LayerCount: 3
Fore
SplineSet
605 495 m 1
 559 495 l 1
 537 619 496 622 435 622 c 2
 369 622 l 1
 369 92 l 2
 369 68 382 45 456 45 c 1
 456 0 l 1
 154 0 l 1
 154 45 l 1
 227 45 241 68 241 92 c 2
 241 622 l 1
 175 622 l 2
 114 622 76 619 54 495 c 1
 6 495 l 1
 12 690 l 1
 599 690 l 1
 605 495 l 1
EndSplineSet
Validated: 1
Layer: 2
SplineSet
605 495 m 1,0,-1
 559 495 l 1,1,2
 551 540 551 540 540 567 c 128,-1,3
 529 594 529 594 511 605.5 c 128,-1,4
 493 617 493 617 478 619.5 c 128,-1,5
 463 622 463 622 435 622 c 2,6,-1
 369 622 l 1,7,-1
 369 92 l 2,8,9
 369 45 369 45 456 45 c 1,10,-1
 456 0 l 1,11,-1
 154 0 l 1,12,-1
 154 45 l 1,13,14
 241 45 241 45 241 92 c 2,15,-1
 241 622 l 1,16,-1
 175 622 l 2,17,18
 147 622 147 622 132.5 619.5 c 128,-1,19
 118 617 118 617 100.5 605.5 c 128,-1,20
 83 594 83 594 72.5 567 c 128,-1,21
 62 540 62 540 54 495 c 1,22,-1
 6 495 l 1,23,-1
 12 690 l 1,24,-1
 599 690 l 1,25,-1
 605 495 l 1,0,-1
EndSplineSet
EndChar

StartChar: U
Encoding: 85 85 54
Width: 721
Flags: W
HStem: -14 69<284.024 477.059> 645 45<5 82.6301 227.429 306 461 544.273 631.787 716>
VStem: 92 126<128.324 633.312> 554 68<135.796 632.543>
LayerCount: 3
Fore
SplineSet
716 645 m 1
 637 645 622 621 622 598 c 2
 622 280 l 2
 622 161 611 69 492 14 c 1
 459 -3 404 -14 359 -14 c 0
 169 -14 92 74 92 266 c 2
 92 598 l 2
 92 621 77 645 5 645 c 1
 5 690 l 1
 306 690 l 1
 306 645 l 1
 233 645 218 621 218 598 c 2
 218 258 l 2
 218 112 261 55 379 55 c 0
 554 55 554 190 554 280 c 2
 554 598 l 2
 554 621 539 645 461 645 c 1
 461 690 l 1
 716 690 l 1
 716 645 l 1
EndSplineSet
Validated: 1
Layer: 2
SplineSet
716 645 m 1,0,1
 622 645 622 645 622 598 c 2,2,-1
 622 280 l 2,3,4
 622 228 622 228 618 194.5 c 128,-1,5
 614 161 614 161 601.5 124.5 c 128,-1,6
 589 88 589 88 562 61 c 128,-1,7
 535 34 535 34 492 14 c 0,8,9
 438 -14 438 -14 359 -14 c 0,10,11
 218 -14 218 -14 155 53.5 c 128,-1,12
 92 121 92 121 92 266 c 2,13,-1
 92 598 l 2,14,15
 92 645 92 645 5 645 c 1,16,-1
 5 690 l 1,17,-1
 306 690 l 1,18,-1
 306 645 l 1,19,20
 218 645 218 645 218 598 c 2,21,-1
 218 258 l 2,22,23
 218 148 218 148 254.5 101.5 c 128,-1,24
 291 55 291 55 379 55 c 0,25,26
 421 55 421 55 452.5 64.5 c 128,-1,27
 484 74 484 74 502.5 94 c 128,-1,28
 521 114 521 114 532 132.5 c 128,-1,29
 543 151 543 151 547.5 182.5 c 128,-1,30
 552 214 552 214 553 231.5 c 128,-1,31
 554 249 554 249 554 280 c 2,32,-1
 554 598 l 2,33,34
 554 645 554 645 461 645 c 1,35,-1
 461 690 l 1,36,-1
 716 690 l 1,37,-1
 716 645 l 1,0,1
EndSplineSet
EndChar

StartChar: V
Encoding: 86 86 55
Width: 721
Flags: W
HStem: -14 21G<357.087 422.5> 645 45<8 67.665 223.083 298 484 554.691 653.167 713>
DStem2: 267 507 120 538 0.407059 -0.913402<-121.135 331.714> 402 204 393 -14 0.367039 0.930206<0 436.978>
LayerCount: 3
Fore
SplineSet
713 645 m 1
 659 645 642 616 628 581 c 0
 554 404 452 138 393 -14 c 1
 366 -14 l 1
 120 538 l 2
 95 593 74 645 8 645 c 1
 8 690 l 1
 298 690 l 1
 298 645 l 1
 235 645 223 641 223 621 c 0
 223 601 260 527 267 507 c 1
 402 204 l 1
 533 536 l 2
 541 556 556 593 556 614 c 0
 556 645 518 645 484 645 c 1
 484 690 l 1
 713 690 l 1
 713 645 l 1
EndSplineSet
Validated: 1
Layer: 2
SplineSet
713 645 m 1,0,1
 676 645 676 645 658.5 629 c 128,-1,2
 641 613 641 613 628 581 c 0,3,4
 571 446 571 446 393 -14 c 1,5,-1
 366 -14 l 1,6,-1
 120 538 l 2,7,8
 106 568 106 568 100 579.5 c 128,-1,9
 94 591 94 591 80 610.5 c 128,-1,10
 66 630 66 630 49 637.5 c 128,-1,11
 32 645 32 645 8 645 c 1,12,-1
 8 690 l 1,13,-1
 298 690 l 1,14,-1
 298 645 l 1,15,16
 251 645 251 645 237 640.5 c 128,-1,17
 223 636 223 636 223 621 c 0,18,19
 223 612 223 612 232 588.5 c 128,-1,20
 241 565 241 565 253 539 c 128,-1,21
 265 513 265 513 267 507 c 2,22,-1
 402 204 l 1,23,-1
 533 536 l 2,24,25
 556 593 556 593 556 614 c 0,26,27
 556 625 556 625 550.5 632 c 128,-1,28
 545 639 545 639 532 641.5 c 128,-1,29
 519 644 519 644 510 644.5 c 128,-1,30
 501 645 501 645 484 645 c 1,31,-1
 484 690 l 1,32,-1
 713 690 l 1,33,-1
 713 645 l 1,0,1
EndSplineSet
EndChar

StartChar: W
Encoding: 87 87 56
Width: 943
Flags: W
HStem: -14 21G<288.925 336.246 619.457 663.013> 645 45<-3 55.5322 201.415 266 304 377.328 519.014 596 725 791.973 881.83 948>
DStem2: 215 573 140 427 0.333491 -0.942753<-45.7373 363.556> 344 233 475 389 0.340619 0.940201<0 191.293> 527 590 475 389 0.352904 -0.93566<169.717 382.378> 664 233 656 -14 0.330915 0.943661<0 399.861>
LayerCount: 3
Fore
SplineSet
794 612 m 0
 794 645 758 644 725 647 c 1
 725 690 l 1
 948 690 l 1
 948 647 l 1
 892 642 875 631 865 582 c 1
 656 -14 l 1
 627 -14 l 1
 475 389 l 1
 329 -14 l 1
 296 -14 l 1
 140 427 l 1
 69 610 78 635 -3 647 c 1
 -3 690 l 1
 266 690 l 1
 266 645 l 1
 241 645 l 1
 217 642 201 644 201 617 c 0
 201 608 212 581 215 573 c 2
 344 233 l 1
 436 481 l 1
 424 522 409 570 389 607 c 0
 373 637 350 645 304 645 c 1
 304 690 l 1
 596 690 l 1
 596 645 l 1
 560 645 l 2
 538 645 519 643 519 627 c 0
 519 613 525 596 527 590 c 2
 664 233 l 1
 774 533 l 2
 786 566 794 594 794 612 c 0
EndSplineSet
Validated: 1
Layer: 2
SplineSet
794 612 m 0,0,1
 794 617 794 617 793 621.5 c 128,-1,2
 792 626 792 626 789 629.5 c 128,-1,3
 786 633 786 633 783.5 635 c 128,-1,4
 781 637 781 637 776 639 c 128,-1,5
 771 641 771 641 767.5 642 c 128,-1,6
 764 643 764 643 757.5 644 c 128,-1,7
 751 645 751 645 747 645.5 c 128,-1,8
 743 646 743 646 735.5 646.5 c 128,-1,9
 728 647 728 647 725 647 c 2,10,-1
 725 690 l 1,11,-1
 948 690 l 1,12,-1
 948 647 l 1,13,14
 905 643 905 643 888.5 630.5 c 128,-1,15
 872 618 872 618 865 582 c 1,16,-1
 656 -14 l 1,17,-1
 627 -14 l 1,18,-1
 475 389 l 1,19,-1
 329 -14 l 1,20,-1
 296 -14 l 1,21,-1
 140 427 l 2,22,23
 128 458 128 458 114 495.5 c 128,-1,24
 100 533 100 533 94.5 549.5 c 128,-1,25
 89 566 89 566 79.5 586 c 128,-1,26
 70 606 70 606 64.5 613.5 c 128,-1,27
 59 621 59 621 48.5 629.5 c 128,-1,28
 38 638 38 638 26.5 641 c 128,-1,29
 15 644 15 644 -3 647 c 1,30,-1
 -3 690 l 1,31,-1
 266 690 l 1,32,-1
 266 645 l 1,33,-1
 241 645 l 2,34,35
 238 645 238 645 232.5 644 c 128,-1,36
 227 643 227 643 224.5 643 c 128,-1,37
 222 643 222 643 218 642 c 128,-1,38
 214 641 214 641 212 640 c 128,-1,39
 210 639 210 639 207.5 637 c 128,-1,40
 205 635 205 635 204 632.5 c 128,-1,41
 203 630 203 630 202 626 c 128,-1,42
 201 622 201 622 201 617 c 0,43,44
 201 610 201 610 215 573 c 2,45,-1
 344 233 l 1,46,-1
 436 481 l 1,47,48
 411 566 411 566 389 607 c 0,49,50
 377 629 377 629 358.5 637 c 128,-1,51
 340 645 340 645 304 645 c 1,52,-1
 304 690 l 1,53,-1
 596 690 l 1,54,-1
 596 645 l 1,55,-1
 560 645 l 2,56,57
 519 645 519 645 519 627 c 0,58,59
 519 614 519 614 527 590 c 2,60,-1
 664 233 l 1,61,-1
 774 533 l 2,62,63
 794 588 794 588 794 612 c 0,0,1
EndSplineSet
EndChar

StartChar: X
Encoding: 88 88 57
Width: 721
Flags: W
HStem: 0 45<0 65.127 182.865 257 396 470.985 646.972 717> 645 45<12 87.2695 263.009 338 447 517.985 631.602 710>
DStem2: 155 163 238 154 0.629027 0.777383<-53.2561 206.066 354.831 586.63> 352 476 201 485 0.568604 -0.822611<-173.63 45.2203 153.271 406.603>
LayerCount: 3
Fore
SplineSet
717 0 m 1
 396 0 l 1
 396 45 l 1
 451 45 471 48 471 63 c 0
 471 83 443 131 416 164 c 1
 338 280 l 1
 238 154 l 2
 213 123 182 85 182 72 c 0
 182 56 206 45 257 45 c 1
 257 0 l 1
 0 0 l 1
 0 45 l 1
 66 45 106 100 155 163 c 1
 298 339 l 1
 201 485 l 2
 123 602 94 642 12 645 c 1
 12 690 l 1
 338 690 l 1
 338 645 l 1
 275 645 263 645 263 627 c 0
 263 598 335 499 352 476 c 2
 378 439 l 1
 473 556 l 2
 485 571 518 602 518 625 c 0
 518 643 498 645 477 645 c 2
 447 645 l 1
 447 690 l 1
 710 690 l 1
 710 645 l 1
 630 645 578 582 550 547 c 2
 418 381 l 1
 596 123 l 1
 639 65 662 45 717 45 c 1
 717 0 l 1
EndSplineSet
Validated: 1
Layer: 2
SplineSet
717 0 m 1,0,-1
 396 0 l 1,1,-1
 396 45 l 1,2,3
 439 45 439 45 455 48.5 c 128,-1,4
 471 52 471 52 471 63 c 0,5,6
 471 77 471 77 454 107.5 c 128,-1,7
 437 138 437 138 416 164 c 2,8,-1
 338 280 l 1,9,-1
 238 154 l 2,10,11
 182 85 182 85 182 72 c 0,12,13
 182 45 182 45 257 45 c 1,14,-1
 257 0 l 1,15,-1
 0 0 l 1,16,-1
 0 45 l 1,17,18
 24 45 24 45 44 53 c 128,-1,19
 64 61 64 61 85.5 82.5 c 128,-1,20
 107 104 107 104 117.5 116.5 c 128,-1,21
 128 129 128 129 155 163 c 2,22,-1
 298 339 l 1,23,-1
 201 485 l 2,24,25
 137 581 137 581 103.5 612 c 128,-1,26
 70 643 70 643 12 645 c 1,27,-1
 12 690 l 1,28,-1
 338 690 l 1,29,-1
 338 645 l 1,30,31
 288 645 288 645 275.5 642.5 c 128,-1,32
 263 640 263 640 263 627 c 0,33,34
 263 596 263 596 352 476 c 2,35,-1
 378 439 l 1,36,-1
 473 556 l 2,37,38
 475 559 475 559 484.5 569.5 c 128,-1,39
 494 580 494 580 500.5 588 c 128,-1,40
 507 596 507 596 512.5 606.5 c 128,-1,41
 518 617 518 617 518 625 c 0,42,43
 518 645 518 645 477 645 c 2,44,-1
 447 645 l 1,45,-1
 447 690 l 1,46,-1
 710 690 l 1,47,-1
 710 645 l 1,48,49
 628 645 628 645 550 547 c 2,50,-1
 418 381 l 1,51,-1
 596 123 l 2,52,53
 630 77 630 77 653.5 61 c 128,-1,54
 677 45 677 45 717 45 c 1,55,-1
 717 0 l 1,0,-1
EndSplineSet
EndChar

StartChar: Y
Encoding: 89 89 58
Width: 721
Flags: W
HStem: 0 45<201 293.402 438.281 530> 645 45<11 75.0889 243.008 315 472 540.987 654.339 714>
VStem: 303 126<57.8952 303>
DStem2: 264 582 180 484 0.5586 -0.829437<-50.8032 236.305> 396 386 429 315 0.546508 0.837454<0 278.003>
LayerCount: 3
Fore
SplineSet
541 624 m 0
 541 644 524 645 472 645 c 1
 472 690 l 1
 714 690 l 1
 714 647 l 1
 637 636 596 570 568 528 c 2
 429 315 l 1
 429 92 l 2
 429 68 444 45 530 45 c 1
 530 0 l 1
 201 0 l 1
 201 45 l 1
 287 45 303 68 303 92 c 2
 303 303 l 1
 180 484 l 2
 115 579 91 644 11 645 c 1
 11 690 l 1
 315 690 l 1
 315 645 l 1
 288 645 l 2
 254 645 243 644 243 630 c 0
 243 611 253 596 264 582 c 1
 396 386 l 1
 522 584 l 2
 529 596 541 610 541 624 c 0
EndSplineSet
Validated: 1
Layer: 2
SplineSet
541 624 m 0,0,1
 541 638 541 638 527.5 641.5 c 128,-1,2
 514 645 514 645 472 645 c 1,3,-1
 472 690 l 1,4,-1
 714 690 l 1,5,-1
 714 647 l 1,6,7
 687 643 687 643 664 631.5 c 128,-1,8
 641 620 641 620 621 597.5 c 128,-1,9
 601 575 601 575 593 564 c 128,-1,10
 585 553 585 553 568 528 c 2,11,-1
 429 315 l 1,12,-1
 429 92 l 2,13,14
 429 45 429 45 530 45 c 1,15,-1
 530 0 l 1,16,-1
 201 0 l 1,17,-1
 201 45 l 1,18,19
 303 45 303 45 303 92 c 2,20,-1
 303 303 l 1,21,-1
 180 484 l 2,22,23
 168 501 168 501 146 535.5 c 128,-1,24
 124 570 124 570 114.5 582.5 c 128,-1,25
 105 595 105 595 87.5 613.5 c 128,-1,26
 70 632 70 632 52 638.5 c 128,-1,27
 34 645 34 645 11 645 c 1,28,-1
 11 690 l 1,29,-1
 315 690 l 1,30,-1
 315 645 l 1,31,-1
 288 645 l 2,32,33
 261 645 261 645 252 642.5 c 128,-1,34
 243 640 243 640 243 630 c 0,35,36
 243 609 243 609 264 582 c 2,37,-1
 396 386 l 1,38,-1
 522 584 l 2,39,40
 524 587 524 587 528 593 c 128,-1,41
 532 599 532 599 534.5 603.5 c 128,-1,42
 537 608 537 608 539 613.5 c 128,-1,43
 541 619 541 619 541 624 c 0,0,1
EndSplineSet
EndChar

StartChar: Z
Encoding: 90 90 59
Width: 609
Flags: W
HStem: 0 63<169 496.501> 627 63<125.904 421>
VStem: 17 51<493 552.957> 564 46<146.885 201>
DStem2: -5 29 169 63 0.580207 0.814469<128.648 734.221>
LayerCount: 3
Fore
SplineSet
610 201 m 1
 584 0 l 1
 -5 0 l 1
 -5 29 l 1
 421 627 l 1
 237 627 l 2
 141 627 86 610 68 493 c 1
 17 493 l 1
 40 690 l 1
 593 690 l 1
 590 662 l 1
 169 63 l 1
 390 63 l 2
 492 63 535 89 564 201 c 1
 610 201 l 1
EndSplineSet
Validated: 1
Layer: 2
SplineSet
610 201 m 1,0,-1
 584 0 l 1,1,-1
 -5 0 l 1,2,-1
 -5 29 l 1,3,-1
 421 627 l 1,4,-1
 237 627 l 2,5,6
 158 627 158 627 119.5 601 c 128,-1,7
 81 575 81 575 68 493 c 1,8,-1
 17 493 l 1,9,-1
 40 690 l 1,10,-1
 593 690 l 1,11,-1
 590 662 l 1,12,-1
 169 63 l 1,13,-1
 390 63 l 2,14,15
 469 63 469 63 506 91 c 128,-1,16
 543 119 543 119 564 201 c 1,17,-1
 610 201 l 1,0,-1
EndSplineSet
EndChar

StartChar: bracketleft
Encoding: 91 91 60
Width: 333
Flags: W
HStem: -157 51<179.903 312> 639 51<178.953 312>
VStem: 75 102<-103.33 636.951>
LayerCount: 3
Fore
SplineSet
312 -157 m 1
 75 -157 l 1
 75 690 l 1
 312 690 l 1
 312 639 l 1
 221 639 l 2
 186 639 177 631 177 596 c 2
 177 -55 l 2
 177 -97 186 -106 224 -106 c 2
 312 -106 l 1
 312 -157 l 1
EndSplineSet
Validated: 1
Layer: 2
SplineSet
312 -157 m 1,0,-1
 75 -157 l 1,1,-1
 75 690 l 1,2,-1
 312 690 l 1,3,-1
 312 639 l 1,4,-1
 221 639 l 2,5,6
 195 639 195 639 186 630.5 c 128,-1,7
 177 622 177 622 177 596 c 2,8,-1
 177 -55 l 2,9,10
 177 -86 177 -86 186 -96 c 128,-1,11
 195 -106 195 -106 224 -106 c 2,12,-1
 312 -106 l 1,13,-1
 312 -157 l 1,0,-1
EndSplineSet
EndChar

StartChar: backslash
Encoding: 92 92 61
Width: 278
Flags: W
HStem: 0 21G<270.109 382>
DStem2: -3 707 -104 707 0.478243 -0.878228<0 756.728>
LayerCount: 3
Fore
SplineSet
382 0 m 1
 281 0 l 1
 -104 707 l 1
 -3 707 l 1
 382 0 l 1
EndSplineSet
Validated: 1
Layer: 2
SplineSet
382 0 m 1,0,-1
 281 0 l 1,1,-1
 -104 707 l 1,2,-1
 -3 707 l 1,3,-1
 382 0 l 1,0,-1
EndSplineSet
EndChar

StartChar: bracketright
Encoding: 93 93 62
Width: 333
Flags: W
HStem: -157 51<22 154.345> 639 51<22 155.148>
VStem: 157 100<-103.074 637.832>
LayerCount: 3
Fore
SplineSet
257 -157 m 1
 22 -157 l 1
 22 -106 l 1
 103 -106 l 2
 152 -106 157 -98 157 -51 c 2
 157 592 l 2
 157 623 154 639 123 639 c 2
 22 639 l 1
 22 690 l 1
 257 690 l 1
 257 -157 l 1
EndSplineSet
Validated: 1
Layer: 2
SplineSet
257 -157 m 1,0,-1
 22 -157 l 1,1,-1
 22 -106 l 1,2,-1
 103 -106 l 2,3,4
 139 -106 139 -106 148 -96.5 c 128,-1,5
 157 -87 157 -87 157 -51 c 2,6,-1
 157 592 l 2,7,8
 157 618 157 618 151 628.5 c 128,-1,9
 145 639 145 639 123 639 c 2,10,-1
 22 639 l 1,11,-1
 22 690 l 1,12,-1
 257 690 l 1,13,-1
 257 -157 l 1,0,-1
EndSplineSet
EndChar

StartChar: asciicircum
Encoding: 94 94 63
Width: 468
Flags: W
LayerCount: 3
Fore
SplineSet
475 257 m 1
 375 257 l 1
 235 576 l 1
 94 257 l 1
 -5 257 l 1
 195 687 l 1
 275 687 l 1
 475 257 l 1
EndSplineSet
Validated: 1
Layer: 2
SplineSet
475 257 m 1,0,-1
 375 257 l 1,1,-1
 235 576 l 1,2,-1
 94 257 l 1,3,-1
 -5 257 l 1,4,-1
 195 687 l 1,5,-1
 275 687 l 1,6,-1
 475 257 l 1,0,-1
EndSplineSet
EndChar

StartChar: underscore
Encoding: 95 95 64
Width: 499
Flags: W
HStem: -166 68<-12 511>
LayerCount: 3
Fore
SplineSet
511 -166 m 1
 -12 -166 l 1
 -12 -98 l 1
 511 -98 l 1
 511 -166 l 1
EndSplineSet
Validated: 1
Layer: 2
SplineSet
511 -166 m 1,0,-1
 -12 -166 l 1,1,-1
 -12 -98 l 1,2,-1
 511 -98 l 1,3,-1
 511 -166 l 1,0,-1
EndSplineSet
EndChar

StartChar: grave
Encoding: 96 96 65
Width: 333
Flags: W
HStem: 507 195
VStem: 5 270
LayerCount: 3
Fore
SplineSet
275 507 m 1
 200 508 l 1
 54 599 l 1
 34 610 5 633 5 653 c 0
 5 684 20 702 48 702 c 0
 68 702 98 688 114 665 c 1
 275 507 l 1
EndSplineSet
Validated: 1
Layer: 2
SplineSet
275 507 m 1,0,-1
 200 508 l 1,1,-1
 54 599 l 2,2,3
 36 609 36 609 20.5 624 c 128,-1,4
 5 639 5 639 5 653 c 0,5,6
 5 702 5 702 48 702 c 0,7,8
 64 702 64 702 83.5 691.5 c 128,-1,9
 103 681 103 681 114 665 c 2,10,-1
 275 507 l 1,0,-1
EndSplineSet
EndChar

StartChar: a
Encoding: 97 97 66
Width: 443
Flags: W
HStem: -11 82<109 213.857 334.5 407.986> 435 47<157.057 256.132>
VStem: 25 112<87.36 177.608> 42 115<318.257 414.93> 270 109<90.9775 260 301.764 422.421>
LayerCount: 3
Fore
SplineSet
42 356 m 0xd8
 42 381 67 482 224 482 c 0
 344 482 379 432 379 300 c 2
 379 89 l 2
 379 77 382 71 390 71 c 0
 402 71 422 83 455 108 c 1
 453 52 l 1
 436 32 390 -11 359 -11 c 0
 310 -11 286 18 278 54 c 1
 235 18 183 -11 143 -11 c 0
 75 -11 25 43 25 108 c 0xe8
 25 229 181 276 270 310 c 1
 270 399 266 435 210 435 c 0
 194 435 164 430 155 415 c 0
 154 412 154 410 154 406 c 0
 154 395 157 380 157 361 c 0
 157 332 129 304 100 304 c 0
 61 304 42 327 42 356 c 0xd8
270 108 m 1
 270 260 l 1
 212 238 137 220 137 143 c 0
 137 108 155 74 195 74 c 0
 210 74 258 89 270 108 c 1
EndSplineSet
Validated: 1
Layer: 2
SplineSet
42 356 m 0,0,1
 42 369 42 369 49 387 c 128,-1,2
 56 405 56 405 73.5 428 c 128,-1,3
 91 451 91 451 130 466.5 c 128,-1,4
 169 482 169 482 224 482 c 0,5,6
 313 482 313 482 346 441.5 c 128,-1,7
 379 401 379 401 379 300 c 2,8,-1
 379 89 l 2,9,10
 379 71 379 71 390 71 c 0,11,12
 406 71 406 71 455 108 c 1,13,-1
 453 52 l 1,14,15
 435 31 435 31 407.5 10 c 128,-1,16
 380 -11 380 -11 359 -11 c 0,17,18
 292 -11 292 -11 278 54 c 1,19,20
 200 -11 200 -11 143 -11 c 0,21,22
 93 -11 93 -11 59 24 c 128,-1,23
 25 59 25 59 25 108 c 0,24,25
 25 126 25 126 30 142.5 c 128,-1,26
 35 159 35 159 41.5 172 c 128,-1,27
 48 185 48 185 61.5 198.5 c 128,-1,28
 75 212 75 212 85.5 221.5 c 128,-1,29
 96 231 96 231 114.5 242 c 128,-1,30
 133 253 133 253 145 259 c 128,-1,31
 157 265 157 265 178.5 274 c 128,-1,32
 200 283 200 283 210 287 c 128,-1,33
 220 291 220 291 241.5 299.5 c 128,-1,34
 263 308 263 308 270 310 c 1,35,36
 270 383 270 383 259.5 409 c 128,-1,37
 249 435 249 435 210 435 c 0,38,39
 167 435 167 435 155 415 c 0,40,41
 154 412 154 412 154 406 c 0,42,43
 154 402 154 402 155.5 387 c 128,-1,44
 157 372 157 372 157 361 c 0,45,46
 157 339 157 339 139.5 321.5 c 128,-1,47
 122 304 122 304 100 304 c 0,48,49
 72 304 72 304 57 318.5 c 128,-1,50
 42 333 42 333 42 356 c 0,0,1
270 108 m 1,51,-1
 270 260 l 1,52,53
 266 259 266 259 245 251 c 128,-1,54
 224 243 224 243 217.5 240 c 128,-1,55
 211 237 211 237 194 229 c 128,-1,56
 177 221 177 221 170.5 214 c 128,-1,57
 164 207 164 207 154 196.5 c 128,-1,58
 144 186 144 186 140.5 172.5 c 128,-1,59
 137 159 137 159 137 143 c 0,60,61
 137 114 137 114 152 94 c 128,-1,62
 167 74 167 74 195 74 c 0,63,64
 209 74 209 74 235.5 84.5 c 128,-1,65
 262 95 262 95 270 108 c 1,51,-1
EndSplineSet
EndChar

StartChar: b
Encoding: 98 98 67
Width: 499
Flags: W
HStem: -11 59<181.156 320.457> 396 86<212.762 318.159> 619 40<-3 58.972> 693 20G<114.857 172>
VStem: 61 111<61.1035 375.318 429 618.463> 373 112<148.303 329.471>
LayerCount: 3
Fore
SplineSet
485 255 m 0
 485 118 387 -11 243 -11 c 0
 183 -11 121 6 78 40 c 0
 68 48 61 61 61 80 c 2
 61 571 l 2
 61 615 56 619 27 619 c 2
 -3 619 l 1
 -3 659 l 1
 41 671 68 676 92 685 c 2
 172 713 l 1
 172 429 l 1
 204 464 252 482 301 482 c 0
 424 482 485 362 485 255 c 0
172 89 m 2
 172 55 235 48 257 48 c 0
 349 48 373 135 373 212 c 0
 373 286 352 396 258 396 c 0
 194 396 172 359 172 321 c 2
 172 89 l 2
EndSplineSet
Validated: 1
Layer: 2
SplineSet
485 255 m 0,0,1
 485 148 485 148 416.5 68.5 c 128,-1,2
 348 -11 348 -11 243 -11 c 0,3,4
 142 -11 142 -11 78 40 c 0,5,6
 61 54 61 54 61 80 c 2,7,-1
 61 571 l 2,8,9
 61 603 61 603 55 611 c 128,-1,10
 49 619 49 619 27 619 c 2,11,-1
 -3 619 l 1,12,-1
 -3 659 l 1,13,14
 91 685 91 685 92 685 c 2,15,-1
 172 713 l 1,16,-1
 172 429 l 1,17,18
 220 482 220 482 301 482 c 0,19,20
 387 482 387 482 436 413 c 128,-1,21
 485 344 485 344 485 255 c 0,0,1
172 89 m 2,22,23
 172 67 172 67 201 57.5 c 128,-1,24
 230 48 230 48 257 48 c 0,25,26
 300 48 300 48 327.5 74 c 128,-1,27
 355 100 355 100 364 134.5 c 128,-1,28
 373 169 373 169 373 212 c 0,29,30
 373 243 373 243 368 272.5 c 128,-1,31
 363 302 363 302 351 331.5 c 128,-1,32
 339 361 339 361 315 378.5 c 128,-1,33
 291 396 291 396 258 396 c 0,34,35
 213 396 213 396 192.5 374.5 c 128,-1,36
 172 353 172 353 172 321 c 2,37,-1
 172 89 l 2,22,23
EndSplineSet
EndChar

StartChar: c
Encoding: 99 99 68
Width: 443
Flags: W
HStem: -11 95<186.799 300.431> 429 53<169.828 283.836>
VStem: 12 103<167.177 341.134> 295 115<330.735 416.006>
LayerCount: 3
Fore
SplineSet
429 167 m 1
 379 66 319 -11 212 -11 c 0
 98 -11 12 95 12 226 c 0
 12 362 92 482 249 482 c 0
 310 482 406 447 410 373 c 1
 410 344 382 316 353 316 c 0
 324 316 295 344 295 372 c 0
 295 406 275 429 230 429 c 0
 151 429 115 344 115 267 c 0
 115 181 161 84 257 84 c 0
 318 84 356 129 395 186 c 1
 429 167 l 1
EndSplineSet
Validated: 1
Layer: 2
SplineSet
429 167 m 1,0,1
 387 81 387 81 336.5 35 c 128,-1,2
 286 -11 286 -11 212 -11 c 0,3,4
 127 -11 127 -11 69.5 58 c 128,-1,5
 12 127 12 127 12 226 c 0,6,7
 12 334 12 334 74.5 408 c 128,-1,8
 137 482 137 482 249 482 c 0,9,10
 303 482 303 482 355 453 c 128,-1,11
 407 424 407 424 410 373 c 0,12,13
 410 351 410 351 392.5 333.5 c 128,-1,14
 375 316 375 316 353 316 c 128,-1,15
 331 316 331 316 313 333.5 c 128,-1,16
 295 351 295 351 295 372 c 0,17,18
 295 429 295 429 230 429 c 0,19,20
 175 429 175 429 145 380 c 128,-1,21
 115 331 115 331 115 267 c 0,22,23
 115 195 115 195 152.5 139.5 c 128,-1,24
 190 84 190 84 257 84 c 0,25,26
 299 84 299 84 329.5 110 c 128,-1,27
 360 136 360 136 395 186 c 1,28,-1
 429 167 l 1,0,1
EndSplineSet
EndChar

StartChar: d
Encoding: 100 100 69
Width: 499
Flags: W
HStem: -11 74<186.895 290.045> 48 36<462.518 502> 427 55<177.27 294.87> 619 40<261 324.914> 693 20G<378.857 436>
VStem: 14 110<140.563 328.786> 327 109<83.9288 393.5 456 618.341>
LayerCount: 3
Fore
SplineSet
502 48 m 1x7e
 447 31 396 14 327 -22 c 1
 327 38 l 1
 296 9 255 -11 212 -11 c 0xbe
 80 -11 14 104 14 223 c 0
 14 346 101 482 237 482 c 0
 275 482 306 468 327 456 c 1
 327 571 l 2
 327 615 323 619 289 619 c 2
 261 619 l 1
 261 659 l 1
 307 671 332 677 356 685 c 2
 436 713 l 1
 436 103 l 2
 436 86 446 82 462 82 c 0
 473 82 487 84 502 84 c 1
 502 48 l 1x7e
327 129 m 2
 327 312 l 2
 327 376 300 427 235 427 c 0
 158 427 124 338 124 253 c 0
 124 132 177 63 250 63 c 0
 300 63 327 100 327 129 c 2
EndSplineSet
Validated: 1
Layer: 2
SplineSet
502 48 m 1,0,1
 402 17 402 17 327 -22 c 1,2,-1
 327 38 l 1,3,4
 275 -11 275 -11 212 -11 c 0,5,6
 118 -11 118 -11 66 58 c 128,-1,7
 14 127 14 127 14 223 c 0,8,9
 14 322 14 322 77 402 c 128,-1,10
 140 482 140 482 237 482 c 0,11,12
 282 482 282 482 327 456 c 1,13,-1
 327 571 l 2,14,15
 327 604 327 604 321 611.5 c 128,-1,16
 315 619 315 619 289 619 c 2,17,-1
 261 619 l 1,18,-1
 261 659 l 1,19,20
 339 679 339 679 356 685 c 2,21,-1
 436 713 l 1,22,-1
 436 103 l 2,23,24
 436 82 436 82 462 82 c 0,25,26
 467 82 467 82 480.5 83 c 128,-1,27
 494 84 494 84 502 84 c 1,28,-1
 502 48 l 1,0,1
327 129 m 2,29,-1
 327 312 l 2,30,31
 327 363 327 363 304 395 c 128,-1,32
 281 427 281 427 235 427 c 0,33,34
 181 427 181 427 152.5 375.5 c 128,-1,35
 124 324 124 324 124 253 c 0,36,37
 124 164 124 164 159 113.5 c 128,-1,38
 194 63 194 63 250 63 c 0,39,40
 285 63 285 63 306 84 c 128,-1,41
 327 105 327 105 327 129 c 2,29,-1
EndSplineSet
EndChar

StartChar: e
Encoding: 101 101 70
Width: 443
Flags: W
HStem: -11 92<184.404 300.524> 276 56<109 286> 422 60<142.774 257.663>
VStem: 11 92<180.054 273.559>
LayerCount: 3
Fore
SplineSet
438 178 m 1
 401 71 316 -11 212 -11 c 0
 91 -11 11 100 11 226 c 0
 11 376 97 482 226 482 c 0
 341 482 412 399 415 276 c 1
 103 276 l 1
 109 189 152 81 253 81 c 0
 315 81 364 131 399 194 c 1
 438 178 l 1
286 332 m 1
 281 378 258 422 204 422 c 0
 146 422 118 382 109 332 c 1
 286 332 l 1
EndSplineSet
Validated: 1
Layer: 2
SplineSet
438 178 m 1,0,1
 409 95 409 95 348.5 42 c 128,-1,2
 288 -11 288 -11 212 -11 c 0,3,4
 124 -11 124 -11 67.5 59 c 128,-1,5
 11 129 11 129 11 226 c 0,6,7
 11 339 11 339 70.5 410.5 c 128,-1,8
 130 482 130 482 226 482 c 0,9,10
 311 482 311 482 362 425.5 c 128,-1,11
 413 369 413 369 415 276 c 1,12,-1
 103 276 l 1,13,14
 108 199 108 199 146 140 c 128,-1,15
 184 81 184 81 253 81 c 0,16,17
 336 81 336 81 399 194 c 1,18,-1
 438 178 l 1,0,1
286 332 m 1,19,20
 282 371 282 371 262 396.5 c 128,-1,21
 242 422 242 422 204 422 c 0,22,23
 125 422 125 422 109 332 c 1,24,-1
 286 332 l 1,19,20
EndSplineSet
EndChar

StartChar: f
Encoding: 102 102 71
Width: 333
Flags: W
HStem: 0 37<8 78.562 213.612 292> 416 56<9 91 200 321> 654 53<209.429 280.162>
VStem: 91 109<50.6197 416 472 599.963>
LayerCount: 3
Fore
SplineSet
344 579 m 0
 280 579 298 654 242 654 c 0
 206 654 200 617 200 587 c 2
 200 472 l 1
 321 472 l 1
 321 416 l 1
 200 416 l 1
 200 92 l 2
 200 55 215 43 292 37 c 1
 292 0 l 1
 8 0 l 1
 8 37 l 1
 77 43 91 55 91 92 c 2
 91 416 l 1
 9 416 l 1
 9 472 l 1
 91 472 l 1
 91 504 92 530 98 559 c 0
 117 642 184 707 273 707 c 0
 354 707 393 662 393 632 c 0
 393 611 373 579 344 579 c 0
EndSplineSet
Validated: 1
Layer: 2
SplineSet
344 579 m 0,0,1
 323 579 323 579 309 590.5 c 128,-1,2
 295 602 295 602 290 616.5 c 128,-1,3
 285 631 285 631 273 642.5 c 128,-1,4
 261 654 261 654 242 654 c 0,5,6
 200 654 200 654 200 587 c 2,7,-1
 200 472 l 1,8,-1
 321 472 l 1,9,-1
 321 416 l 1,10,-1
 200 416 l 1,11,-1
 200 92 l 2,12,13
 200 64 200 64 217.5 52.5 c 128,-1,14
 235 41 235 41 292 37 c 1,15,-1
 292 0 l 1,16,-1
 8 0 l 1,17,-1
 8 37 l 1,18,19
 59 41 59 41 75 52.5 c 128,-1,20
 91 64 91 64 91 92 c 2,21,-1
 91 416 l 1,22,-1
 9 416 l 1,23,-1
 9 472 l 1,24,-1
 91 472 l 1,25,26
 91 525 91 525 98 559 c 0,27,28
 113 623 113 623 160.5 665 c 128,-1,29
 208 707 208 707 273 707 c 0,30,31
 329 707 329 707 361 682.5 c 128,-1,32
 393 658 393 658 393 632 c 0,33,34
 393 614 393 614 378.5 596.5 c 128,-1,35
 364 579 364 579 344 579 c 0,0,1
EndSplineSet
EndChar

StartChar: g
Encoding: 103 103 72
Width: 499
Flags: W
HStem: -217 80<134.97 318.247> 147 51<202.658 299.578> 386 60<408.773 482> 430 52<182.309 275.075>
VStem: 15 96<-114.201 -51.1163> 57 107<243.715 393.087> 61 85<53 117.926> 316 102<228.025 379.303> 421 52<-97.8378 -24.6819>
LayerCount: 3
Fore
SplineSet
482 386 m 1xe580
 406 386 l 1
 415 359 418 332 418 312 c 0
 418 209 338 147 244 147 c 0
 229 147 210 151 192 154 c 1
 181 150 146 127 146 103 c 0xe380
 146 90 204 89 223 88 c 0
 366 81 473 88 473 -37 c 0
 473 -157 298 -217 200 -217 c 0
 75 -217 15 -144 15 -101 c 0xe980
 15 -61 54 -32 104 11 c 1
 83 22 61 40 61 66 c 0xe380
 61 104 101 143 140 174 c 1
 88 200 57 244 57 309 c 0
 57 415 141 482 244 482 c 0xd580
 317 482 334 446 425 446 c 0
 441 446 460 447 482 450 c 1
 482 386 l 1xe580
316 284 m 0
 316 335 292 430 230 430 c 0
 178 430 164 390 164 347 c 0xd580
 164 290 181 198 255 198 c 0
 304 198 316 241 316 284 c 0
421 -55 m 0
 421 -11 356 -15 298 -14 c 0
 255 -14 198 -12 151 -5 c 1
 134 -25 111 -52 111 -78 c 0xc980
 111 -111 147 -137 240 -137 c 0
 349 -137 421 -108 421 -55 c 0
EndSplineSet
Validated: 1
Layer: 2
SplineSet
482 386 m 1,0,-1
 406 386 l 1,1,2
 418 350 418 350 418 312 c 0,3,4
 418 237 418 237 367.5 192 c 128,-1,5
 317 147 317 147 244 147 c 0,6,7
 234 147 234 147 192 154 c 1,8,9
 180 150 180 150 163 134.5 c 128,-1,10
 146 119 146 119 146 103 c 0,11,12
 146 92 146 92 223 88 c 0,13,14
 349.350217211 81.8150243323 349.350217211 81.8150243323 377.662569984 76.021622784 c 0,15,16
 454.563964468 60.2857119806 454.563964468 60.2857119806 468.95616281 0.726158136886 c 0,17,18
 473 -16.0085430652 473 -16.0085430652 473 -37 c 0,19,20
 473 -93 473 -93 424 -136 c 128,-1,21
 375 -179 375 -179 314.5 -198 c 128,-1,22
 254 -217 254 -217 200 -217 c 0,23,24
 115 -217 115 -217 65 -178.5 c 128,-1,25
 15 -140 15 -140 15 -101 c 0,26,27
 15 -94 15 -94 16 -88 c 128,-1,28
 17 -82 17 -82 20.5 -75.5 c 128,-1,29
 24 -69 24 -69 26.5 -64 c 128,-1,30
 29 -59 29 -59 35.5 -52 c 128,-1,31
 42 -45 42 -45 46 -40.5 c 128,-1,32
 50 -36 50 -36 59 -28 c 128,-1,33
 68 -20 68 -20 72 -16 c 128,-1,34
 76 -12 76 -12 88 -2.5 c 128,-1,35
 100 7 100 7 104 11 c 1,36,37
 61 34 61 34 61 66 c 0,38,39
 61 111 61 111 140 174 c 1,40,41
 57 216 57 216 57 309 c 0,42,43
 57 387 57 387 111 434.5 c 128,-1,44
 165 482 165 482 244 482 c 0,45,46
 278 482 278 482 327.5 464 c 128,-1,47
 377 446 377 446 425 446 c 0,48,49
 453 446 453 446 482 450 c 1,50,-1
 482 386 l 1,0,-1
316 284 m 0,51,52
 316 313 316 313 308 344.5 c 128,-1,53
 300 376 300 376 279.5 403 c 128,-1,54
 259 430 259 430 230 430 c 0,55,56
 164 430 164 430 164 347 c 0,57,58
 164 291 164 291 185 244.5 c 128,-1,59
 206 198 206 198 255 198 c 0,60,61
 316 198 316 198 316 284 c 0,51,52
421 -55 m 0,62,63
 421 -41 421 -41 412.5 -32 c 128,-1,64
 404 -23 404 -23 387.5 -19.5 c 128,-1,65
 371 -16 371 -16 354 -15 c 128,-1,66
 337 -14 337 -14 314.547672478 -14.1940744262 c 0,67,68
 303 -14 303 -14 298 -14 c 0,69,70
 211 -14 211 -14 151 -5 c 1,71,72
 111 -52 111 -52 111 -78 c 0,73,74
 111 -137 111 -137 240 -137 c 0,75,76
 323 -137 323 -137 372 -115.5 c 128,-1,77
 421 -94 421 -94 421 -55 c 0,62,63
EndSplineSet
EndChar

StartChar: h
Encoding: 104 104 73
Width: 499
Flags: W
HStem: 0 37<-3 50.0964 178.904 232 267 320.096 449.24 502> 404 78<218.4 313.034> 619 40<-3 58.0762> 693 20G<111.857 169>
VStem: 60 109<46.2868 373.795 422 618.006> 330 109<46.9316 388.205>
LayerCount: 3
Fore
SplineSet
502 0 m 1
 267 0 l 1
 267 37 l 1
 318 41 330 57 330 92 c 2
 330 300 l 2
 330 350 329 404 266 404 c 0
 217 404 194 379 169 352 c 1
 169 92 l 2
 169 57 181 41 232 37 c 1
 232 0 l 1
 -3 0 l 1
 -3 37 l 1
 48 41 60 57 60 92 c 2
 60 571 l 2
 60 613 55 619 22 619 c 2
 -3 619 l 1
 -3 659 l 1
 40 671 65 677 89 685 c 2
 169 713 l 1
 169 422 l 1
 203 458 249 482 301 482 c 0
 410 482 439 421 439 301 c 2
 439 92 l 2
 439 57 452 41 502 37 c 1
 502 0 l 1
EndSplineSet
Validated: 1
Layer: 2
SplineSet
502 0 m 1,0,-1
 267 0 l 1,1,-1
 267 37 l 1,2,3
 304 40 304 40 317 52.5 c 128,-1,4
 330 65 330 65 330 92 c 2,5,-1
 330 300 l 2,6,7
 330 325 330 325 328.5 338.5 c 128,-1,8
 327 352 327 352 321.5 369.5 c 128,-1,9
 316 387 316 387 302 395.5 c 128,-1,10
 288 404 288 404 266 404 c 0,11,12
 243 404 243 404 224 395.5 c 128,-1,13
 205 387 205 387 195.5 378.5 c 128,-1,14
 186 370 186 370 169 352 c 1,15,-1
 169 92 l 2,16,17
 169 65 169 65 182 52.5 c 128,-1,18
 195 40 195 40 232 37 c 1,19,-1
 232 0 l 1,20,-1
 -3 0 l 1,21,-1
 -3 37 l 1,22,23
 34 40 34 40 47 52.5 c 128,-1,24
 60 65 60 65 60 92 c 2,25,-1
 60 571 l 2,26,27
 60 602 60 602 53.5 610.5 c 128,-1,28
 47 619 47 619 22 619 c 2,29,-1
 -3 619 l 1,30,-1
 -3 659 l 1,31,32
 83 683 83 683 89 685 c 2,33,-1
 169 713 l 1,34,-1
 169 422 l 1,35,36
 226 482 226 482 301 482 c 0,37,38
 379 482 379 482 409 439 c 128,-1,39
 439 396 439 396 439 301 c 2,40,-1
 439 92 l 2,41,42
 439 65 439 65 452.5 52.5 c 128,-1,43
 466 40 466 40 502 37 c 1,44,-1
 502 0 l 1,0,-1
EndSplineSet
EndChar

StartChar: i
Encoding: 105 105 74
Width: 278
Flags: W
HStem: 0 38<11 75.1975 205.97 272> 579 128<86.5937 180.006>
VStem: 71 126<595.644 690.5> 86 109<49.1885 394.41>
LayerCount: 3
Fore
SplineSet
197 642 m 0xe0
 197 608 167 579 134 579 c 0
 97 579 71 608 71 642 c 0
 71 679 97 707 134 707 c 0
 167 707 197 679 197 642 c 0xe0
272 0 m 1
 11 0 l 1
 11 38 l 1
 72 41 86 57 86 92 c 2
 86 335 l 2
 86 379 82 395 57 395 c 0
 46 395 31 392 11 386 c 1
 11 425 l 1
 195 488 l 1
 195 92 l 2xd0
 195 57 209 41 272 38 c 1
 272 0 l 1
EndSplineSet
Validated: 1
Layer: 2
SplineSet
197 642 m 0,0,1
 197 617 197 617 178 598 c 128,-1,2
 159 579 159 579 134 579 c 0,3,4
 107 579 107 579 89 597.5 c 128,-1,5
 71 616 71 616 71 642 c 0,6,7
 71 670 71 670 88.5 688.5 c 128,-1,8
 106 707 106 707 134 707 c 0,9,10
 159 707 159 707 178 688 c 128,-1,11
 197 669 197 669 197 642 c 0,0,1
272 0 m 1,12,-1
 11 0 l 1,13,-1
 11 38 l 1,14,15
 55 40 55 40 70.5 52.5 c 128,-1,16
 86 65 86 65 86 92 c 2,17,-1
 86 335 l 2,18,19
 86 370 86 370 80.5 382.5 c 128,-1,20
 75 395 75 395 57 395 c 0,21,22
 41 395 41 395 11 386 c 1,23,-1
 11 425 l 1,24,-1
 195 488 l 1,25,-1
 195 92 l 2,26,27
 195 64 195 64 211 52 c 128,-1,28
 227 40 227 40 272 38 c 1,29,-1
 272 0 l 1,12,-1
EndSplineSet
EndChar

StartChar: j
Encoding: 106 106 75
Width: 278
Flags: W
HStem: -217 56<21.5 102.189> 579 128<114.644 207.356>
VStem: 98 126<595.644 690.5> 109 109<-108.054 393.555>
LayerCount: 3
Fore
SplineSet
224 642 m 0xe0
 224 608 195 579 161 579 c 0
 127 579 98 608 98 642 c 0
 98 679 127 707 161 707 c 0
 195 707 224 679 224 642 c 0xe0
-67 -146 m 0
 -67 -104 -31 -94 -13 -94 c 0
 3 -94 17 -101 26 -112 c 1
 47 -146 73 -161 84 -161 c 0
 108 -161 109 -110 109 -81 c 2
 109 355 l 2
 109 385 103 394 80 394 c 0
 69 394 54 392 35 389 c 1
 35 425 l 1
 218 488 l 1
 218 25 l 2xd0
 218 -137 154 -217 35 -217 c 0
 8 -217 -67 -204 -67 -146 c 0
EndSplineSet
Validated: 1
Layer: 2
SplineSet
224 642 m 0,0,1
 224 616 224 616 205 597.5 c 128,-1,2
 186 579 186 579 161 579 c 128,-1,3
 136 579 136 579 117 597.5 c 128,-1,4
 98 616 98 616 98 642 c 0,5,6
 98 669 98 669 116.5 688 c 128,-1,7
 135 707 135 707 161 707 c 128,-1,8
 187 707 187 707 205.5 688 c 128,-1,9
 224 669 224 669 224 642 c 0,0,1
-67 -146 m 0,10,11
 -67 -118 -67 -118 -49.5 -106 c 128,-1,12
 -32 -94 -32 -94 -13 -94 c 0,13,14
 11 -94 11 -94 26 -112 c 0,15,16
 40 -135 40 -135 57 -148 c 128,-1,17
 74 -161 74 -161 84 -161 c 0,18,19
 109 -161 109 -161 109 -81 c 2,20,-1
 109 355 l 2,21,22
 109 378 109 378 103 386 c 128,-1,23
 97 394 97 394 80 394 c 0,24,25
 67 394 67 394 35 389 c 1,26,-1
 35 425 l 1,27,-1
 218 488 l 1,28,-1
 218 25 l 2,29,30
 218 -217 218 -217 35 -217 c 0,31,32
 17 -217 17 -217 -4 -212 c 128,-1,33
 -25 -207 -25 -207 -46 -189.5 c 128,-1,34
 -67 -172 -67 -172 -67 -146 c 0,10,11
EndSplineSet
EndChar

StartChar: k
Encoding: 107 107 76
Width: 499
Flags: W
HStem: 0 38<-11 54.1138 184.479 249 270 303.995 450.419 511> 433 39<258 308.996 396.015 487> 617 42<-2 41.5283> 693 20G<116.857 174>
VStem: 65 109<48.4951 224 301 619.982>
DStem2: 247 293 174 224 0.61643 -0.78741<9.33193 227.19>
LayerCount: 3
Fore
SplineSet
511 0 m 1
 270 0 l 1
 270 38 l 1
 297 38 304 43 304 49 c 0
 304 51 303 53 301 55 c 2
 174 224 l 1
 174 92 l 2
 174 57 187 41 249 38 c 1
 249 0 l 1
 -11 0 l 1
 -11 38 l 1
 51 41 65 57 65 92 c 2
 65 591 l 2
 65 614 60 620 42 620 c 0
 32 620 18 619 -2 617 c 1
 -2 659 l 1
 45 671 69 677 94 685 c 2
 174 713 l 1
 174 301 l 1
 280 395 l 1
 290 406 301 415 309 427 c 1
 309 432 304 433 292 433 c 2
 258 433 l 1
 258 472 l 1
 487 472 l 1
 487 433 l 1
 378 433 330 367 247 293 c 1
 384 118 l 2
 413 81 452 41 511 37 c 1
 511 0 l 1
EndSplineSet
Validated: 1
Layer: 2
SplineSet
511 0 m 1,0,-1
 270 0 l 1,1,-1
 270 38 l 1,2,3
 304 38 304 38 304 49 c 0,4,5
 304 52 304 52 301 55 c 2,6,-1
 174 224 l 1,7,-1
 174 92 l 2,8,9
 174 64 174 64 189 52 c 128,-1,10
 204 40 204 40 249 38 c 1,11,-1
 249 0 l 1,12,-1
 -11 0 l 1,13,-1
 -11 38 l 1,14,15
 34 40 34 40 49.5 52 c 128,-1,16
 65 64 65 64 65 92 c 2,17,-1
 65 591 l 2,18,19
 65 608 65 608 60.5 614 c 128,-1,20
 56 620 56 620 42 620 c 128,-1,21
 28 620 28 620 -2 617 c 1,22,-1
 -2 659 l 1,23,24
 71 678 71 678 94 685 c 2,25,-1
 174 713 l 1,26,-1
 174 301 l 1,27,-1
 280 395 l 1,28,-1
 309 427 l 1,29,30
 309 433 309 433 292 433 c 2,31,-1
 258 433 l 1,32,-1
 258 472 l 1,33,-1
 487 472 l 1,34,-1
 487 433 l 1,35,36
 456 433 456 433 430 427 c 128,-1,37
 404 421 404 421 377.5 403.5 c 128,-1,38
 351 386 351 386 337.5 375.5 c 128,-1,39
 324 365 324 365 292 334.5 c 128,-1,40
 260 304 260 304 247 293 c 1,41,-1
 384 118 l 2,42,43
 444 42 444 42 511 37 c 1,44,-1
 511 0 l 1,0,-1
EndSplineSet
EndChar

StartChar: l
Encoding: 108 108 77
Width: 278
Flags: W
HStem: 0 38<8 73.7598 205.324 272> 624 36<8 79.3769> 691 20G<165 195>
VStem: 84 111<48.4951 623.222>
LayerCount: 3
Fore
SplineSet
272 0 m 1
 8 0 l 1
 8 38 l 1
 72 41 84 57 84 92 c 2
 84 571 l 2
 84 619 80 624 46 624 c 2
 8 624 l 1
 8 660 l 1
 65 671 135 690 195 711 c 1
 195 92 l 2
 195 57 207 41 272 38 c 1
 272 0 l 1
EndSplineSet
Validated: 1
Layer: 2
SplineSet
272 0 m 1,0,-1
 8 0 l 1,1,-1
 8 38 l 1,2,3
 54 40 54 40 69 52 c 128,-1,4
 84 64 84 64 84 92 c 2,5,-1
 84 571 l 2,6,7
 84 607 84 607 78 615.5 c 128,-1,8
 72 624 72 624 46 624 c 2,9,-1
 8 624 l 1,10,-1
 8 660 l 1,11,12
 100 678 100 678 195 711 c 1,13,-1
 195 92 l 2,14,15
 195 64 195 64 210 52 c 128,-1,16
 225 40 225 40 272 38 c 1,17,-1
 272 0 l 1,0,-1
EndSplineSet
EndChar

StartChar: m
Encoding: 109 109 78
Width: 777
Flags: W
HStem: 0 37<2 54.7596 183.904 237 270 323.096 452.24 505 541 593.76 722.904 776> 404 78<231.776 320.745 496.188 590.971>
VStem: 65 109<46.9316 376.858> 333 109<46.9316 376.919> 604 109<46.9316 389.728>
LayerCount: 3
Fore
SplineSet
776 0 m 1
 541 0 l 1
 541 37 l 1
 591 41 604 57 604 92 c 2
 604 295 l 2
 604 381 593 404 538 404 c 0
 498 404 462 384 442 353 c 1
 442 92 l 2
 442 57 455 41 505 37 c 1
 505 0 l 1
 270 0 l 1
 270 37 l 1
 321 41 333 57 333 92 c 2
 333 322 l 2
 333 363 326 404 276 404 c 0
 240 404 194 386 174 355 c 1
 174 92 l 2
 174 57 186 41 237 37 c 1
 237 0 l 1
 2 0 l 1
 2 37 l 1
 52 41 65 57 65 92 c 2
 65 346 l 2
 65 381 50 389 2 389 c 1
 2 427 l 1
 174 488 l 1
 174 398 l 1
 176 398 179 426 189 433 c 0
 224 461 269 482 316 482 c 0
 366 482 406 452 425 409 c 1
 464 447 522 482 574 482 c 0
 702 482 713 375 713 280 c 2
 713 92 l 2
 713 57 725 41 776 37 c 1
 776 0 l 1
EndSplineSet
Validated: 1
Layer: 2
SplineSet
776 0 m 1,0,-1
 541 0 l 1,1,-1
 541 37 l 1,2,3
 577 40 577 40 590.5 52.5 c 128,-1,4
 604 65 604 65 604 92 c 2,5,-1
 604 295 l 2,6,7
 604 361 604 361 591.5 382.5 c 128,-1,8
 579 404 579 404 538 404 c 0,9,10
 475 404 475 404 442 353 c 1,11,-1
 442 92 l 2,12,13
 442 65 442 65 455.5 52.5 c 128,-1,14
 469 40 469 40 505 37 c 1,15,-1
 505 0 l 1,16,-1
 270 0 l 1,17,-1
 270 37 l 1,18,19
 307 40 307 40 320 52.5 c 128,-1,20
 333 65 333 65 333 92 c 2,21,-1
 333 322 l 2,22,23
 333 360 333 360 321.5 382 c 128,-1,24
 310 404 310 404 276 404 c 0,25,26
 247 404 247 404 217.5 390.5 c 128,-1,27
 188 377 188 377 174 355 c 1,28,-1
 174 92 l 2,29,30
 174 65 174 65 187 52.5 c 128,-1,31
 200 40 200 40 237 37 c 1,32,-1
 237 0 l 1,33,-1
 2 0 l 1,34,-1
 2 37 l 1,35,36
 38 40 38 40 51.5 52.5 c 128,-1,37
 65 65 65 65 65 92 c 2,38,-1
 65 346 l 2,39,40
 65 372 65 372 52 380.5 c 128,-1,41
 39 389 39 389 2 389 c 1,42,-1
 2 427 l 1,43,-1
 174 488 l 1,44,-1
 174 398 l 2,45,46
 175 398 175 398 176.5 405 c 128,-1,47
 178 412 178 412 181.5 421 c 128,-1,48
 185 430 185 430 189 433 c 0,49,50
 250 482 250 482 316 482 c 0,51,52
 353 482 353 482 381.5 462 c 128,-1,53
 410 442 410 442 425 409 c 1,54,55
 500 482 500 482 574 482 c 0,56,57
 611 482 611 482 637.5 469.5 c 128,-1,58
 664 457 664 457 678.5 439 c 128,-1,59
 693 421 693 421 701 392 c 128,-1,60
 709 363 709 363 711 338.5 c 128,-1,61
 713 314 713 314 713 280 c 2,62,-1
 713 92 l 2,63,64
 713 65 713 65 726 52.5 c 128,-1,65
 739 40 739 40 776 37 c 1,66,-1
 776 0 l 1,0,-1
EndSplineSet
EndChar

StartChar: n
Encoding: 110 110 79
Width: 499
Flags: W
HStem: 0 37<-3 50.0964 178.904 232 267 320.096 449.24 502> 395 37<-3 18.8909> 404 78<222.549 315.114>
VStem: 60 109<46.2868 373.359> 330 109<46.9316 388.986>
LayerCount: 3
Fore
SplineSet
502 0 m 1xb8
 267 0 l 1
 267 37 l 1
 318 41 330 57 330 92 c 2
 330 307 l 2
 330 358 327 404 266 404 c 0xb8
 223 404 192 378 169 353 c 1
 169 92 l 2
 169 57 181 41 232 37 c 1
 232 0 l 1
 -3 0 l 1
 -3 37 l 1
 48 41 60 57 60 92 c 2
 60 336 l 2
 60 386 56 396 26 396 c 0
 18 396 8 396 -3 395 c 1
 -3 432 l 1xd8
 169 487 l 1
 169 421 l 1
 204 453 247 482 310 482 c 0
 393 482 439 425 439 309 c 2
 439 92 l 2
 439 57 452 41 502 37 c 1
 502 0 l 1xb8
EndSplineSet
Validated: 1
Layer: 2
SplineSet
502 0 m 1,0,-1
 267 0 l 1,1,-1
 267 37 l 1,2,3
 304 40 304 40 317 52.5 c 128,-1,4
 330 65 330 65 330 92 c 2,5,-1
 330 307 l 2,6,7
 330 339 330 339 327 356.5 c 128,-1,8
 324 374 324 374 309.5 389 c 128,-1,9
 295 404 295 404 266 404 c 0,10,11
 216 404 216 404 169 353 c 1,12,-1
 169 92 l 2,13,14
 169 65 169 65 182 52.5 c 128,-1,15
 195 40 195 40 232 37 c 1,16,-1
 232 0 l 1,17,-1
 -3 0 l 1,18,-1
 -3 37 l 1,19,20
 34 40 34 40 47 52.5 c 128,-1,21
 60 65 60 65 60 92 c 2,22,-1
 60 336 l 2,23,24
 60 374 60 374 54 385 c 128,-1,25
 48 396 48 396 26 396 c 0,26,27
 8 396 8 396 -3 395 c 1,28,-1
 -3 432 l 1,29,-1
 169 487 l 1,30,-1
 169 421 l 1,31,32
 236 482 236 482 310 482 c 0,33,34
 439 482 439 482 439 309 c 2,35,-1
 439 92 l 2,36,37
 439 65 439 65 452.5 52.5 c 128,-1,38
 466 40 466 40 502 37 c 1,39,-1
 502 0 l 1,0,-1
EndSplineSet
EndChar

StartChar: o
Encoding: 111 111 80
Width: 499
Flags: W
HStem: -11 56<203.494 317.854> 427 55<176.029 296.171>
VStem: 18 117<138.501 345.789> 366 116<139.249 333.785>
LayerCount: 3
Fore
SplineSet
482 250 m 0
 482 114 392 -11 246 -11 c 0
 111 -11 18 103 18 230 c 0
 18 370 100 482 246 482 c 0
 386 482 482 389 482 250 c 0
366 203 m 0
 366 287 341 427 233 427 c 0
 164 427 135 361 135 279 c 0
 135 148 176 45 264 45 c 0
 336 45 366 124 366 203 c 0
EndSplineSet
Validated: 1
Layer: 2
SplineSet
482 250 m 0,0,1
 482 143 482 143 417 66 c 128,-1,2
 352 -11 352 -11 246 -11 c 0,3,4
 147 -11 147 -11 82.5 60.5 c 128,-1,5
 18 132 18 132 18 230 c 0,6,7
 18 339 18 339 79 410.5 c 128,-1,8
 140 482 140 482 246 482 c 0,9,10
 351 482 351 482 416.5 418 c 128,-1,11
 482 354 482 354 482 250 c 0,0,1
366 203 m 0,12,13
 366 239 366 239 360 274 c 128,-1,14
 354 309 354 309 340.5 345.5 c 128,-1,15
 327 382 327 382 299 404.5 c 128,-1,16
 271 427 271 427 233 427 c 0,17,18
 184 427 184 427 159.5 386 c 128,-1,19
 135 345 135 345 135 279 c 0,20,21
 135 175 135 175 168 110 c 128,-1,22
 201 45 201 45 264 45 c 0,23,24
 314 45 314 45 340 91 c 128,-1,25
 366 137 366 137 366 203 c 0,12,13
EndSplineSet
EndChar

StartChar: p
Encoding: 112 112 81
Width: 499
Flags: W
HStem: -217 39<-9 54.0569 181.681 255> -11 59<197.478 318.293> 395 37<-9 14.0364> 402 80<212.942 318.215>
VStem: 63 109<-167.097 20 73.5859 379.202> 372 110<142.476 337.148>
LayerCount: 3
Fore
SplineSet
172 429 m 1xec
 177 431 211 482 306 482 c 0xdc
 424 482 482 379 482 255 c 0
 482 114 389 -11 253 -11 c 0
 224 -11 195 2 172 20 c 1
 172 -124 l 2
 172 -161 186 -175 255 -178 c 1
 255 -217 l 1
 -9 -217 l 1
 -9 -180 l 1
 49 -175 63 -161 63 -124 c 2
 63 339 l 2
 63 379 63 397 19 397 c 0
 11 397 2 396 -9 395 c 1
 -9 432 l 1
 172 487 l 1
 172 429 l 1xec
172 115 m 2
 172 69 232 48 263 48 c 0
 329 48 372 123 372 215 c 0
 372 290 355 402 258 402 c 0
 232 402 172 385 172 336 c 2
 172 115 l 2
EndSplineSet
Validated: 1
Layer: 2
SplineSet
172 429 m 1,0,1
 173 429 173 429 178.5 435 c 128,-1,2
 184 441 184 441 194 448.5 c 128,-1,3
 204 456 204 456 218.5 464 c 128,-1,4
 233 472 233 472 256 477 c 128,-1,5
 279 482 279 482 306 482 c 0,6,7
 391 482 391 482 436.5 417.5 c 128,-1,8
 482 353 482 353 482 255 c 0,9,10
 482 146 482 146 417.5 67.5 c 128,-1,11
 353 -11 353 -11 253 -11 c 0,12,13
 212 -11 212 -11 172 20 c 1,14,-1
 172 -124 l 2,15,16
 172 -153 172 -153 188.5 -164.5 c 128,-1,17
 205 -176 205 -176 255 -178 c 1,18,-1
 255 -217 l 1,19,-1
 -9 -217 l 1,20,-1
 -9 -180 l 1,21,22
 34 -176 34 -176 48.5 -164 c 128,-1,23
 63 -152 63 -152 63 -124 c 2,24,-1
 63 339 l 2,25,26
 63 363 63 363 61.5 373 c 128,-1,27
 60 383 60 383 50 390 c 128,-1,28
 40 397 40 397 19 397 c 0,29,30
 13 397 13 397 -9 395 c 1,31,-1
 -9 432 l 1,32,-1
 172 487 l 1,33,-1
 172 429 l 1,0,1
172 115 m 2,34,35
 172 84 172 84 203 66 c 128,-1,36
 234 48 234 48 263 48 c 0,37,38
 311 48 311 48 341.5 96 c 128,-1,39
 372 144 372 144 372 215 c 0,40,41
 372 248 372 248 367.5 277 c 128,-1,42
 363 306 363 306 351.5 336 c 128,-1,43
 340 366 340 366 316 384 c 128,-1,44
 292 402 292 402 258 402 c 0,45,46
 231 402 231 402 201.5 385 c 128,-1,47
 172 368 172 368 172 336 c 2,48,-1
 172 115 l 2,34,35
EndSplineSet
EndChar

StartChar: q
Encoding: 113 113 82
Width: 499
Flags: W
HStem: -217 37<244 313.549 448.524 510> -11 86<175.11 272.641> 433 49<180.923 308.988>
VStem: 12 111<141.592 334.694> 327 109<-167.097 46 95.5048 414.859>
LayerCount: 3
Fore
SplineSet
510 -217 m 1
 244 -217 l 1
 244 -178 l 1
 313 -175 327 -161 327 -124 c 2
 327 46 l 1
 287 15 243 -11 194 -11 c 0
 55 -11 12 117 12 226 c 0
 12 361 106 482 250 482 c 0
 290 482 327 473 359 453 c 1
 401 479 l 2
 409 483 415 485 419 485 c 0
 434 485 436 467 436 452 c 2
 436 -124 l 2
 436 -161 450 -175 510 -180 c 1
 510 -217 l 1
233 75 m 0
 270 75 327 93 327 131 c 2
 327 359 l 2
 327 379 325 433 244 433 c 0
 154 433 123 333 123 257 c 0
 123 154 160 75 233 75 c 0
EndSplineSet
Validated: 1
Layer: 2
SplineSet
510 -217 m 1,0,-1
 244 -217 l 1,1,-1
 244 -178 l 1,2,3
 294 -176 294 -176 310.5 -164.5 c 128,-1,4
 327 -153 327 -153 327 -124 c 2,5,-1
 327 46 l 1,6,7
 253 -11 253 -11 194 -11 c 0,8,9
 154 -11 154 -11 122 3.5 c 128,-1,10
 90 18 90 18 70 41 c 128,-1,11
 50 64 50 64 36.5 95.5 c 128,-1,12
 23 127 23 127 17.5 159 c 128,-1,13
 12 191 12 191 12 226 c 0,14,15
 12 331 12 331 78.5 406.5 c 128,-1,16
 145 482 145 482 250 482 c 0,17,18
 313 482 313 482 359 453 c 1,19,-1
 401 479 l 2,20,21
 413 485 413 485 419 485 c 0,22,23
 436 485 436 485 436 452 c 2,24,-1
 436 -124 l 2,25,26
 436 -152 436 -152 451 -164 c 128,-1,27
 466 -176 466 -176 510 -180 c 1,28,-1
 510 -217 l 1,0,-1
233 75 m 0,29,30
 266 75 266 75 296.5 90 c 128,-1,31
 327 105 327 105 327 131 c 2,32,-1
 327 359 l 2,33,34
 327 433 327 433 244 433 c 0,35,36
 183 433 183 433 153 379 c 128,-1,37
 123 325 123 325 123 257 c 0,38,39
 123 176 123 176 151.5 125.5 c 128,-1,40
 180 75 180 75 233 75 c 0,29,30
EndSplineSet
EndChar

StartChar: r
Encoding: 114 114 83
Width: 333
Flags: W
HStem: 0 38<-8 57.1138 187.479 252> 396 86<218.179 298.5>
VStem: 68 109<48.4951 376.048>
LayerCount: 3
Fore
SplineSet
347 417 m 0
 347 372 319 361 293 361 c 0
 258 361 250 396 226 396 c 0
 209 396 177 355 177 330 c 2
 177 92 l 2
 177 57 190 41 252 38 c 1
 252 0 l 1
 -8 0 l 1
 -8 38 l 1
 54 41 68 57 68 92 c 2
 68 310 l 2
 68 369 63 392 33 392 c 0
 23 392 9 389 -8 384 c 1
 -8 425 l 1
 177 488 l 1
 177 419 l 1
 201 452 238 482 278 482 c 0
 319 482 347 460 347 417 c 0
EndSplineSet
Validated: 1
Layer: 2
SplineSet
347 417 m 0,0,1
 347 361 347 361 293 361 c 0,2,3
 274 361 274 361 255.5 378.5 c 128,-1,4
 237 396 237 396 226 396 c 0,5,6
 213 396 213 396 195 372 c 128,-1,7
 177 348 177 348 177 330 c 2,8,-1
 177 92 l 2,9,10
 177 64 177 64 192 52 c 128,-1,11
 207 40 207 40 252 38 c 1,12,-1
 252 0 l 1,13,-1
 -8 0 l 1,14,-1
 -8 38 l 1,15,16
 37 40 37 40 52.5 52 c 128,-1,17
 68 64 68 64 68 92 c 2,18,-1
 68 310 l 2,19,20
 68 357 68 357 61.5 374.5 c 128,-1,21
 55 392 55 392 33 392 c 0,22,23
 19 392 19 392 -8 384 c 1,24,-1
 -8 425 l 1,25,-1
 177 488 l 1,26,-1
 177 419 l 1,27,28
 223 482 223 482 278 482 c 0,29,30
 310 482 310 482 328.5 465 c 128,-1,31
 347 448 347 448 347 417 c 0,0,1
EndSplineSet
EndChar

StartChar: s
Encoding: 115 115 84
Width: 388
Flags: W
HStem: -11 49<133.438 251.21> -3 21G<38 76> 435 47<138.607 244.622> 453 20G<295 327>
VStem: 38 88<333.802 419.644> 38 37<-3 11.9956 120.522 178> 266 93<57.7601 145.09> 290 37<313 368.342>
LayerCount: 3
Fore
SplineSet
190 482 m 0xaa
 239 482 265 461 281 461 c 0
 290 461 292 467 298 473 c 1
 327 473 l 1
 327 313 l 1
 290 313 l 1x19
 270 386 250 435 189 435 c 0
 157 435 126 415 126 382 c 0
 126 283 359 263 359 137 c 0
 359 43 287 -11 200 -11 c 0xaa
 153 -11 118 12 90 12 c 0
 78 12 77 6 75 -3 c 1
 38 -3 l 1
 38 178 l 1x46
 78 178 l 1
 91 101 121 38 198 38 c 0
 233 38 266 60 266 97 c 0
 266 203 38 206 38 347 c 0
 38 433 111 482 190 482 c 0xaa
EndSplineSet
Validated: 1
Layer: 2
SplineSet
190 482 m 0,0,1
 219 482 219 482 248 471.5 c 128,-1,2
 277 461 277 461 281 461 c 0,3,4
 284 461 284 461 286.5 462 c 128,-1,5
 289 463 289 463 290.5 464.5 c 128,-1,6
 292 466 292 466 294.5 469 c 128,-1,7
 297 472 297 472 298 473 c 2,8,-1
 327 473 l 1,9,-1
 327 313 l 1,10,-1
 290 313 l 1,11,12
 273 376 273 376 252 405.5 c 128,-1,13
 231 435 231 435 189 435 c 0,14,15
 164 435 164 435 145 420.5 c 128,-1,16
 126 406 126 406 126 382 c 0,17,18
 126 355 126 355 150 331.5 c 128,-1,19
 174 308 174 308 208.5 289 c 128,-1,20
 243 270 243 270 277 250 c 128,-1,21
 311 230 311 230 335 201 c 128,-1,22
 359 172 359 172 359 137 c 0,23,24
 359 69 359 69 313.5 29 c 128,-1,25
 268 -11 268 -11 200 -11 c 0,26,27
 174 -11 174 -11 138 0.5 c 128,-1,28
 102 12 102 12 90 12 c 128,-1,29
 78 12 78 12 75 -3 c 1,30,-1
 38 -3 l 1,31,-1
 38 178 l 1,32,-1
 78 178 l 1,33,34
 102 38 102 38 198 38 c 0,35,36
 226 38 226 38 246 54 c 128,-1,37
 266 70 266 70 266 97 c 0,38,39
 266 126 266 126 242.5 149.5 c 128,-1,40
 219 173 219 173 185.5 191 c 128,-1,41
 152 209 152 209 118.5 228 c 128,-1,42
 85 247 85 247 61.5 277.5 c 128,-1,43
 38 308 38 308 38 347 c 0,44,45
 38 409 38 409 82.5 445.5 c 128,-1,46
 127 482 127 482 190 482 c 0,0,1
EndSplineSet
EndChar

StartChar: t
Encoding: 116 116 85
Width: 278
Flags: W
HStem: -11 78<115 220.846> 416 56<169 267>
VStem: 58 111<70.525 416>
LayerCount: 3
Fore
SplineSet
202 67 m 0
 232 67 250 93 266 111 c 1
 296 81 l 1
 250 22 201 -11 151 -11 c 0
 79 -11 58 30 58 133 c 2
 58 416 l 1
 41 416 l 2
 26 416 2 417 2 435 c 0
 2 439 3 444 6 450 c 1
 61 487 100 545 169 624 c 1
 169 472 l 1
 267 472 l 1
 267 416 l 1
 169 416 l 1
 169 158 l 2
 169 107 171 67 202 67 c 0
EndSplineSet
Validated: 1
Layer: 2
SplineSet
202 67 m 0,0,1
 209 67 209 67 216 69.5 c 128,-1,2
 223 72 223 72 228 74.5 c 128,-1,3
 233 77 233 77 239.5 83 c 128,-1,4
 246 89 246 89 248.5 91.5 c 128,-1,5
 251 94 251 94 258 102 c 128,-1,6
 265 110 265 110 266 111 c 2,7,-1
 296 81 l 1,8,9
 224 -11 224 -11 151 -11 c 0,10,11
 98 -11 98 -11 78 21.5 c 128,-1,12
 58 54 58 54 58 133 c 2,13,-1
 58 416 l 1,14,-1
 41 416 l 2,15,16
 2 416 2 416 2 435 c 0,17,18
 2 442 2 442 6 450 c 1,19,20
 25 463 25 463 46 483 c 128,-1,21
 67 503 67 503 81.5 520 c 128,-1,22
 96 537 96 537 123 570 c 128,-1,23
 150 603 150 603 169 624 c 1,24,-1
 169 472 l 1,25,-1
 267 472 l 1,26,-1
 267 416 l 1,27,-1
 169 416 l 1,28,-1
 169 158 l 2,29,30
 169 127 169 127 170.5 110.5 c 128,-1,31
 172 94 172 94 179.5 80.5 c 128,-1,32
 187 67 187 67 202 67 c 0,0,1
EndSplineSet
EndChar

StartChar: u
Encoding: 117 117 86
Width: 499
Flags: W
HStem: -11 83<184.171 268.889> 40 37<474.235 492> 433 39<-3 55.0957 247 313.593>
VStem: 60 109<87.7434 428.493> 319 110<97.582 427.438>
LayerCount: 3
Fore
SplineSet
232 72 m 0xb8
 259 72 319 96 319 135 c 2
 319 372 l 2
 319 422 315 433 247 433 c 1
 247 472 l 1
 429 472 l 1
 429 132 l 2
 429 94 431 76 474 76 c 0
 479 76 485 76 492 77 c 1
 492 40 l 1x78
 442 25 390 6 326 -17 c 1
 326 58 l 1
 303 32 258 -11 189 -11 c 0
 101 -11 60 51 60 144 c 2
 60 373 l 2
 60 422 54 433 -3 433 c 1
 -3 472 l 1
 169 472 l 1
 169 149 l 2
 169 106 184 72 232 72 c 0xb8
EndSplineSet
Validated: 1
Layer: 2
SplineSet
232 72 m 0,0,1
 257 72 257 72 288 90.5 c 128,-1,2
 319 109 319 109 319 135 c 2,3,-1
 319 372 l 2,4,5
 319 411 319 411 307.5 422 c 128,-1,6
 296 433 296 433 247 433 c 1,7,-1
 247 472 l 1,8,-1
 429 472 l 1,9,-1
 429 132 l 2,10,11
 429 100 429 100 436.5 88 c 128,-1,12
 444 76 444 76 474 76 c 0,13,14
 485 76 485 76 492 77 c 1,15,-1
 492 40 l 1,16,17
 447 27 447 27 326 -17 c 1,18,-1
 326 58 l 1,19,20
 265 -11 265 -11 189 -11 c 0,21,22
 125 -11 125 -11 92.5 30.5 c 128,-1,23
 60 72 60 72 60 144 c 2,24,-1
 60 373 l 2,25,26
 60 411 60 411 49.5 422 c 128,-1,27
 39 433 39 433 -3 433 c 1,28,-1
 -3 472 l 1,29,-1
 169 472 l 1,30,-1
 169 149 l 2,31,32
 169 72 169 72 232 72 c 0,0,1
EndSplineSet
EndChar

StartChar: v
Encoding: 118 118 87
Width: 499
Flags: W
HStem: -11 21G<244 252> 433 39<-2 45.8459 175.453 218 316 358.869 439.155 479>
DStem2: 270 164 220 25 0.397892 -0.917432<-262.138 0> 270 164 276 25 0.381179 0.924501<0 261.618>
LayerCount: 3
Fore
SplineSet
479 433 m 1
 435 433 427 393 410 350 c 2
 276 25 l 1
 273 14 257 -11 247 -11 c 0
 241 -11 225 14 220 25 c 2
 63 387 l 2
 49 418 31 433 -2 433 c 1
 -2 472 l 1
 218 472 l 1
 218 433 l 1
 184 433 175 423 175 409 c 0
 175 399 180 387 184 375 c 2
 270 164 l 1
 336 339 l 2
 348 372 359 396 359 411 c 0
 359 426 348 433 316 433 c 1
 316 472 l 1
 479 472 l 1
 479 433 l 1
EndSplineSet
Validated: 1
Layer: 2
SplineSet
479 433 m 1,0,1
 468 433 468 433 459.5 429.5 c 128,-1,2
 451 426 451 426 445.5 422 c 128,-1,3
 440 418 440 418 434 407 c 128,-1,4
 428 396 428 396 426 391 c 128,-1,5
 424 386 424 386 418 370.5 c 128,-1,6
 412 355 412 355 410 350 c 2,7,-1
 276 25 l 2,8,9
 273 15 273 15 263.5 2 c 128,-1,10
 254 -11 254 -11 247 -11 c 0,11,12
 243 -11 243 -11 233.5 2 c 128,-1,13
 224 15 224 15 220 25 c 2,14,-1
 63 387 l 2,15,16
 42 433 42 433 -2 433 c 1,17,-1
 -2 472 l 1,18,-1
 218 472 l 1,19,-1
 218 433 l 1,20,21
 175 433 175 433 175 409 c 0,22,23
 175 402 175 402 184 375 c 2,24,-1
 270 164 l 1,25,-1
 336 339 l 2,26,27
 359 402 359 402 359 411 c 0,28,29
 359 433 359 433 316 433 c 1,30,-1
 316 472 l 1,31,-1
 479 472 l 1,32,-1
 479 433 l 1,0,1
EndSplineSet
EndChar

StartChar: w
Encoding: 119 119 88
Width: 721
Flags: W
HStem: -11 21G<232 238 485 491.5> 433 39<9 50.4448 167.033 214 250 300.633 420.725 476 558 600.794 675.935 705>
DStem2: 221 261 77 350 0.376017 -0.926613<-159.075 110.482> 261 158 370 250 0.424907 0.905237<0 129.597> 507 167 507 5 0.373105 0.927789<0 259.864>
LayerCount: 3
Fore
SplineSet
705 436 m 1
 674 425 665 393 657 378 c 1
 507 5 l 2
 504 -2 495 -11 488 -11 c 0
 482 -11 475 -2 468 3 c 1
 370 250 l 1
 255 5 l 2
 252 -2 241 -11 235 -11 c 0
 229 -11 220 -2 217 5 c 2
 77 350 l 2
 54 406 54 433 9 433 c 1
 9 472 l 1
 214 472 l 1
 214 432 l 1
 178 432 167 432 167 412 c 0
 167 387 212 287 221 261 c 1
 261 158 l 1
 336 323 l 1
 315 399 307 433 250 433 c 1
 250 472 l 1
 476 472 l 1
 476 433 l 1
 435 433 420 426 420 407 c 0
 420 396 425 380 433 359 c 2
 507 167 l 1
 579 339 l 1
 591 372 601 395 601 410 c 0
 601 426 590 433 558 433 c 1
 558 472 l 1
 705 472 l 1
 705 436 l 1
EndSplineSet
Validated: 1
Layer: 2
SplineSet
705 436 m 1,0,1
 694 432 694 432 685 423.5 c 128,-1,2
 676 415 676 415 672.5 409 c 128,-1,3
 669 403 669 403 663.5 391 c 128,-1,4
 658 379 658 379 657 378 c 2,5,-1
 507 5 l 2,6,7
 500 -11 500 -11 488 -11 c 0,8,9
 485 -11 485 -11 482 -9 c 128,-1,10
 479 -7 479 -7 474.5 -3 c 128,-1,11
 470 1 470 1 468 3 c 2,12,-1
 370 250 l 1,13,-1
 255 5 l 2,14,15
 253 -0 253 -0 246 -5.5 c 128,-1,16
 239 -11 239 -11 235 -11 c 0,17,18
 224 -11 224 -11 217 5 c 2,19,-1
 77 350 l 2,20,21
 73 360 73 360 67.5 375 c 128,-1,22
 62 390 62 390 59 396.5 c 128,-1,23
 56 403 56 403 51 412 c 128,-1,24
 46 421 46 421 41 424.5 c 128,-1,25
 36 428 36 428 28 430.5 c 128,-1,26
 20 433 20 433 9 433 c 1,27,-1
 9 472 l 1,28,-1
 214 472 l 1,29,-1
 214 432 l 1,30,31
 193 432 193 432 185 431 c 128,-1,32
 177 430 177 430 172 426 c 128,-1,33
 167 422 167 422 167 412 c 0,34,35
 167 401 167 401 178 370 c 128,-1,36
 189 339 189 339 204 303.5 c 128,-1,37
 219 268 219 268 221 261 c 2,38,-1
 261 158 l 1,39,-1
 336 323 l 1,40,41
 326 360 326 360 321.5 373.5 c 128,-1,42
 317 387 317 387 307 405 c 128,-1,43
 297 423 297 423 284 428 c 128,-1,44
 271 433 271 433 250 433 c 1,45,-1
 250 472 l 1,46,-1
 476 472 l 1,47,-1
 476 433 l 1,48,49
 445 433 445 433 432.5 427 c 128,-1,50
 420 421 420 421 420 407 c 128,-1,51
 420 393 420 393 433 359 c 2,52,-1
 507 167 l 1,53,-1
 579 339 l 2,54,55
 601 399 601 399 601 410 c 0,56,57
 601 433 601 433 558 433 c 1,58,-1
 558 472 l 1,59,-1
 705 472 l 1,60,-1
 705 436 l 1,0,1
EndSplineSet
EndChar

StartChar: x
Encoding: 120 120 89
Width: 499
Flags: W
HStem: 0 38<5 55.572 139.007 175 266 315.985 439.594 492> 433 39<12 75.9803 201.006 244 264 303.993 384.87 445>
DStem2: 86 97 160 91 0.554044 0.832487<-9.44407 148.887 288.441 390.533> 249 335 189 244 0.545456 -0.83814<-96.1579 0 109.61 277.851>
LayerCount: 3
Fore
SplineSet
492 0 m 1
 266 0 l 1
 266 38 l 1
 296 40 316 39 316 47 c 0
 316 49 315 51 313 54 c 2
 221 186 l 1
 160 91 l 2
 147 71 139 58 139 50 c 0
 139 41 149 38 175 38 c 1
 175 0 l 1
 5 0 l 1
 5 38 l 1
 49 38 63 63 86 97 c 2
 189 244 l 1
 108 369 l 1
 86 401 83 430 12 433 c 1
 12 472 l 1
 244 472 l 1
 244 433 l 1
 209 433 201 427 201 419 c 0
 201 409 232 362 249 335 c 1
 270 361 304 402 304 422 c 0
 304 432 295 433 264 433 c 1
 264 472 l 1
 445 472 l 1
 445 433 l 1
 401 433 373 409 355 384 c 2
 284 281 l 1
 401 103 l 2
 424 68 447 38 492 38 c 1
 492 0 l 1
EndSplineSet
Validated: 1
Layer: 2
SplineSet
492 0 m 1,0,-1
 266 0 l 1,1,-1
 266 38 l 1,2,3
 271 38 271 38 278 38.5 c 128,-1,4
 285 39 285 39 289 39 c 128,-1,5
 293 39 293 39 298 39.5 c 128,-1,6
 303 40 303 40 306 40.5 c 128,-1,7
 309 41 309 41 311.5 42 c 128,-1,8
 314 43 314 43 315 44 c 128,-1,9
 316 45 316 45 316 47 c 0,10,11
 316 50 316 50 313 54 c 2,12,-1
 221 186 l 1,13,-1
 160 91 l 2,14,15
 139 59 139 59 139 50 c 0,16,17
 139 38 139 38 175 38 c 1,18,-1
 175 0 l 1,19,-1
 5 0 l 1,20,-1
 5 38 l 1,21,22
 26 38 26 38 41.5 47.5 c 128,-1,23
 57 57 57 57 63.5 65 c 128,-1,24
 70 73 70 73 86 97 c 2,25,-1
 189 244 l 1,26,-1
 108 369 l 2,27,28
 105 374 105 374 97 387 c 128,-1,29
 89 400 89 400 84.5 405 c 128,-1,30
 80 410 80 410 70.5 418 c 128,-1,31
 61 426 61 426 46.5 429 c 128,-1,32
 32 432 32 432 12 433 c 1,33,-1
 12 472 l 1,34,-1
 244 472 l 1,35,-1
 244 433 l 1,36,37
 201 433 201 433 201 419 c 0,38,39
 201 411 201 411 249 335 c 1,40,41
 304 403 304 403 304 422 c 0,42,43
 304 429 304 429 296 431 c 128,-1,44
 288 433 288 433 264 433 c 1,45,-1
 264 472 l 1,46,-1
 445 472 l 1,47,-1
 445 433 l 1,48,49
 390 433 390 433 355 384 c 2,50,-1
 284 281 l 1,51,-1
 401 103 l 2,52,53
 422 71 422 71 442 54.5 c 128,-1,54
 462 38 462 38 492 38 c 1,55,-1
 492 0 l 1,0,-1
EndSplineSet
EndChar

StartChar: y
Encoding: 121 121 90
Width: 499
Flags: W
HStem: -217 107<62.7591 168.569> 433 39<3 50.4558 176.382 233 329 374.993 452.438 488>
DStem2: 286 160 230 32 0.421257 -0.906941<-272.773 0> 286 160 287 0 0.345915 0.938266<-291.32 -143.321 0 270.894>
LayerCount: 3
Fore
SplineSet
83 -92 m 0
 101 -92 140 -110 153 -110 c 0
 173 -110 189 -83 220 -6 c 0
 223 4 231 18 231 28 c 0
 231 29 230 31 230 32 c 2
 60 398 l 2
 51 419 38 430 3 435 c 1
 3 472 l 1
 233 472 l 1
 233 433 l 1
 190 433 176 425 176 410 c 0
 176 403 180 394 184 384 c 2
 286 160 l 1
 373 409 l 2
 374 412 375 414 375 416 c 0
 375 425 365 432 329 433 c 1
 329 472 l 1
 488 472 l 1
 488 433 l 1
 459 433 442 402 435 384 c 2
 287 0 l 2
 258 -78 207 -217 103 -217 c 0
 59 -217 19 -189 19 -146 c 0
 19 -125 32 -92 83 -92 c 0
EndSplineSet
Validated: 1
Layer: 2
SplineSet
83 -92 m 0,0,1
 93 -92 93 -92 120 -101 c 128,-1,2
 147 -110 147 -110 153 -110 c 0,3,4
 168 -110 168 -110 182 -87.5 c 128,-1,5
 196 -65 196 -65 220 -6 c 0,6,7
 220 -5 220 -5 225.5 8.5 c 128,-1,8
 231 22 231 22 231 28 c 2,9,-1
 230.5 30 l 1,10,-1
 230 32 l 1,11,-1
 60 398 l 2,12,13
 47 429 47 429 3 435 c 1,14,-1
 3 472 l 1,15,-1
 233 472 l 1,16,-1
 233 433 l 1,17,18
 176 433 176 433 176 410 c 0,19,20
 176 404 176 404 184 384 c 2,21,-1
 286 160 l 1,22,-1
 373 409 l 2,23,24
 375 415 375 415 375 416 c 0,25,26
 375 432 375 432 329 433 c 1,27,-1
 329 472 l 1,28,-1
 488 472 l 1,29,-1
 488 433 l 1,30,31
 454 433 454 433 435 384 c 2,32,-1
 287 0 l 2,33,34
 274 -34 274 -34 266.5 -53.5 c 128,-1,35
 259 -73 259 -73 240 -108.5 c 128,-1,36
 221 -144 221 -144 204 -164 c 128,-1,37
 187 -184 187 -184 160 -200.5 c 128,-1,38
 133 -217 133 -217 103 -217 c 0,39,40
 69 -217 69 -217 44 -197 c 128,-1,41
 19 -177 19 -177 19 -146 c 0,42,43
 19 -126 19 -126 34 -109 c 128,-1,44
 49 -92 49 -92 83 -92 c 0,0,1
EndSplineSet
EndChar

StartChar: z
Encoding: 122 122 91
Width: 443
Flags: W
HStem: 0 55<157 359.405> 416 56<98.5 270>
VStem: 41 40<330 397.687> 392 40<96.5266 159.575>
DStem2: 12 29 157 55 0.5547 0.83205<102.065 465.116>
LayerCount: 3
Fore
SplineSet
432 158 m 1
 415 0 l 1
 12 0 l 1
 12 29 l 1
 270 416 l 1
 167 416 l 2
 92 416 88 389 81 330 c 1
 41 330 l 1
 45 472 l 1
 418 472 l 1
 415 442 l 1
 157 55 l 1
 260 55 l 2
 287 55 316 57 343 68 c 1
 378 77 379 124 392 167 c 1
 432 158 l 1
EndSplineSet
Validated: 1
Layer: 2
SplineSet
432 158 m 1,0,-1
 415 0 l 1,1,-1
 12 0 l 1,2,-1
 12 29 l 1,3,-1
 270 416 l 1,4,-1
 167 416 l 2,5,6
 115 416 115 416 101 398.5 c 128,-1,7
 87 381 87 381 81 330 c 1,8,-1
 41 330 l 1,9,-1
 45 472 l 1,10,-1
 418 472 l 1,11,-1
 415 442 l 1,12,-1
 157 55 l 1,13,-1
 260 55 l 2,14,15
 311 55 311 55 343 68 c 0,16,17
 355 71 355 71 363.5 82 c 128,-1,18
 372 93 372 93 375.5 103.5 c 128,-1,19
 379 114 379 114 384 135.5 c 128,-1,20
 389 157 389 157 392 167 c 1,21,-1
 432 158 l 1,0,-1
EndSplineSet
EndChar

StartChar: braceleft
Encoding: 123 123 92
Width: 479
Flags: W
HStem: -164 24<314 341> 682 25<316.589 341>
VStem: 174 96<-112.02 228.483 311.388 650.982>
LayerCount: 3
Fore
SplineSet
344 -140 m 1
 341 -164 l 1
 220 -164 174 -141 174 -5 c 2
 174 155 l 2
 174 214 166 241 63 269 c 1
 161 296 174 326 174 382 c 2
 174 556 l 2
 174 684 233 707 341 707 c 1
 344 682 l 1
 286 667 270 633 270 571 c 2
 270 396 l 2
 270 332 260 292 214 269 c 1
 261 244 270 200 270 134 c 2
 270 -31 l 2
 270 -91 287 -129 344 -140 c 1
EndSplineSet
Validated: 1
Layer: 2
SplineSet
344 -140 m 1,0,-1
 341 -164 l 1,1,2
 245 -164 245 -164 209.5 -133.5 c 128,-1,3
 174 -103 174 -103 174 -5 c 2,4,-1
 174 155 l 2,5,6
 174 204 174 204 154.5 226.5 c 128,-1,7
 135 249 135 249 63 269 c 1,8,9
 132 288 132 288 153 312 c 128,-1,10
 174 336 174 336 174 382 c 2,11,-1
 174 556 l 2,12,13
 174 646 174 646 213.5 676.5 c 128,-1,14
 253 707 253 707 341 707 c 1,15,-1
 344 682 l 1,16,17
 302 671 302 671 286 645.5 c 128,-1,18
 270 620 270 620 270 571 c 2,19,-1
 270 396 l 2,20,21
 270 344 270 344 258.5 314.5 c 128,-1,22
 247 285 247 285 214 269 c 1,23,24
 247 251 247 251 258.5 219.5 c 128,-1,25
 270 188 270 188 270 134 c 2,26,-1
 270 -31 l 2,27,28
 270 -79 270 -79 286.5 -105.5 c 128,-1,29
 303 -132 303 -132 344 -140 c 1,0,-1
EndSplineSet
EndChar

StartChar: bar
Encoding: 124 124 93
Width: 199
Flags: W
HStem: 0 21G<55 144>
VStem: 55 89<0 707>
LayerCount: 3
Fore
SplineSet
144 0 m 1
 55 0 l 1
 55 707 l 1
 144 707 l 1
 144 0 l 1
EndSplineSet
Validated: 1
Layer: 2
SplineSet
144 0 m 1,0,-1
 55 0 l 1,1,-1
 55 707 l 1,2,-1
 144 707 l 1,3,-1
 144 0 l 1,0,-1
EndSplineSet
EndChar

StartChar: braceright
Encoding: 125 125 94
Width: 479
Flags: W
HStem: -164 24<140 166.584> 682 25<140 167.256>
VStem: 210 96<-112.02 226.885 311.388 650.982>
LayerCount: 3
Fore
SplineSet
419 269 m 1
 315 241 306 214 306 155 c 2
 306 -5 l 2
 306 -141 259 -164 140 -164 c 1
 137 -140 l 1
 194 -129 210 -91 210 -31 c 2
 210 134 l 2
 210 198 218 244 266 269 c 1
 220 292 210 332 210 396 c 2
 210 571 l 2
 210 633 195 667 137 682 c 1
 140 707 l 1
 247 707 306 684 306 556 c 2
 306 382 l 2
 306 326 318 296 419 269 c 1
EndSplineSet
Validated: 1
Layer: 2
SplineSet
419 269 m 1,0,1
 346 249 346 249 326 226 c 128,-1,2
 306 203 306 203 306 155 c 2,3,-1
 306 -5 l 2,4,5
 306 -103 306 -103 270 -133.5 c 128,-1,6
 234 -164 234 -164 140 -164 c 1,7,-1
 137 -140 l 1,8,9
 178 -132 178 -132 194 -105.5 c 128,-1,10
 210 -79 210 -79 210 -31 c 2,11,-1
 210 134 l 2,12,13
 210 188 210 188 221.5 220 c 128,-1,14
 233 252 233 252 266 269 c 1,15,16
 233 285 233 285 221.5 314.5 c 128,-1,17
 210 344 210 344 210 396 c 2,18,-1
 210 571 l 2,19,20
 210 620 210 620 194.5 645.5 c 128,-1,21
 179 671 179 671 137 682 c 1,22,-1
 140 707 l 1,23,24
 228 707 228 707 267 676.5 c 128,-1,25
 306 646 306 646 306 556 c 2,26,-1
 306 382 l 2,27,28
 306 336 306 336 327 312 c 128,-1,29
 348 288 348 288 419 269 c 1,0,1
EndSplineSet
EndChar

StartChar: asciitilde
Encoding: 126 126 95
Width: 540
Flags: W
HStem: 198 88<309.895 429.846> 267 89<108.246 239.461>
LayerCount: 3
Fore
SplineSet
538 321 m 1x80
 502 257 450 198 381 198 c 0x80
 304 198 229 267 160 267 c 0
 109 267 86 220 57 169 c 1
 5 229 l 1
 40 292 84 356 160 356 c 0x40
 229 356 329 286 382 286 c 0
 422 286 458 330 485 381 c 1
 538 321 l 1x80
EndSplineSet
Validated: 1
Layer: 2
SplineSet
538 321 m 1,0,1
 469 198 469 198 381 198 c 0,2,3
 342 198 342 198 268 232.5 c 128,-1,4
 194 267 194 267 160 267 c 0,5,6
 138 267 138 267 118.5 252.5 c 128,-1,7
 99 238 99 238 90.5 225 c 128,-1,8
 82 212 82 212 62.5272858426 178.774314964 c 0,9,10
 59 172 59 172 57 169 c 2,11,-1
 5 229 l 1,12,13
 38 288 38 288 73.5 322 c 128,-1,14
 109 356 109 356 160 356 c 0,15,16
 196 356 196 356 277 321 c 128,-1,17
 358 286 358 286 382 286 c 0,18,19
 435 286 435 286 485 381 c 1,20,-1
 538 321 l 1,0,1
EndSplineSet
EndChar

StartChar: uni0E10.descless
Encoding: 63232 63232 96
Width: 508
Flags: W
HStem: -5 50<269.021 317.129> 166 44<96.7727 165.43> 315 43<96.9443 182.319> 489 76<253.065 410.73> 528 70<105.197 256.064>
VStem: 43 44<218.932 306.022> 166 101<45.4684 169> 192 75<218.867 305.565> 319 102<45.9959 369.11>
DStem2: 86 478 17 445 0.966178 -0.257877<0 259.53>
LayerCount: 3
Fore
SplineSet
447 579 m 0xf680
 447 572 432 489 348 489 c 0xf680
 286 489 212 528 156 528 c 0
 125 528 100 516 86 478 c 1
 358 407 l 1
 373 402 421 395 421 335 c 2
 421 106 l 2
 421 34 379 -5 293 -5 c 0
 221 -5 166 38 166 106 c 2
 166 169 l 1xee80
 157 167 149 166 140 166 c 0
 80 166 43 213 43 265 c 0
 43 300 70 358 140 358 c 0
 230 358 267 313 267 258 c 2xed80
 267 75 l 2
 267 61 275 45 293 45 c 0
 312 45 319 61 319 74 c 2
 319 333 l 2
 319 358 310 367 298 370 c 2
 17 445 l 1
 33 497 69 598 189 598 c 0xee80
 235 598 310 565 365 565 c 0
 419 565 415 594 435 594 c 0
 442 594 447 590 447 579 c 0xf680
140 210 m 0
 175 210 192 236 192 262 c 0xe580
 192 289 175 315 140 315 c 0
 104 315 87 289 87 262 c 0
 87 236 104 210 140 210 c 0
EndSplineSet
Validated: 1
Layer: 2
SplineSet
447 579 m 0,0,1
 447 570 447 570 441 552 c 128,-1,2
 435 534 435 534 410.5 511.5 c 128,-1,3
 386 489 386 489 348 489 c 0,4,5
 316 489 316 489 249.5 508.5 c 128,-1,6
 183 528 183 528 156 528 c 0,7,8
 104 528 104 528 86 478 c 1,9,-1
 358 407 l 2,10,11
 359 407 359 407 366 405 c 128,-1,12
 373 403 373 403 377 401 c 128,-1,13
 381 399 381 399 389 395.5 c 128,-1,14
 397 392 397 392 401.5 387 c 128,-1,15
 406 382 406 382 411 375 c 128,-1,16
 416 368 416 368 418.5 357.5 c 128,-1,17
 421 347 421 347 421 335 c 2,18,-1
 421 106 l 2,19,20
 421 -5 421 -5 293 -5 c 0,21,22
 238 -5 238 -5 202 25.5 c 128,-1,23
 166 56 166 56 166 106 c 2,24,-1
 166 169 l 1,25,26
 152 166 152 166 140 166 c 0,27,28
 97 166 97 166 70 195 c 128,-1,29
 43 224 43 224 43 265 c 0,30,31
 43 298 43 298 68 328 c 128,-1,32
 93 358 93 358 140 358 c 0,33,34
 204 358 204 358 235.5 330 c 128,-1,35
 267 302 267 302 267 258 c 2,36,-1
 267 75 l 2,37,38
 267 63 267 63 273.5 54 c 128,-1,39
 280 45 280 45 293 45 c 0,40,41
 319 45 319 45 319 74 c 2,42,-1
 319 333 l 2,43,44
 319 365 319 365 298 370 c 2,45,-1
 17 445 l 1,46,47
 25 472 25 472 34.5 492 c 128,-1,48
 44 512 44 512 63 539.5 c 128,-1,49
 82 567 82 567 114.5 582.5 c 128,-1,50
 147 598 147 598 189 598 c 0,51,52
 211 598 211 598 273.5 581.5 c 128,-1,53
 336 565 336 565 365 565 c 0,54,55
 396 565 396 565 412.5 579.5 c 128,-1,56
 429 594 429 594 435 594 c 0,57,58
 447 594 447 594 447 579 c 0,0,1
140 210 m 128,-1,60
 165 210 165 210 178.5 225.5 c 128,-1,61
 192 241 192 241 192 262 c 0,62,63
 192 284 192 284 178.5 299.5 c 128,-1,64
 165 315 165 315 140 315 c 128,-1,65
 115 315 115 315 101 299.5 c 128,-1,66
 87 284 87 284 87 262 c 0,67,68
 87 241 87 241 101 225.5 c 128,-1,59
 115 210 115 210 140 210 c 128,-1,60
EndSplineSet
EndChar

StartChar: uni0E34.left
Encoding: 63233 63233 97
Width: 0
Flags: W
HStem: 713 21G<-701.5 -695.5> 726 45<-630.641 -428.045> 839 55<-575.14 -397.892>
LayerCount: 3
Back
SplineSet
-233 636 m 1
 -368 694 -470 726 -577 726 c 0
 -617 726 -657 722 -700 713 c 1
 -669 833 -570 894 -470 894 c 0
 -351 894 -233 808 -233 636 c 1
-293 708 m 1
 -322 788 -400 839 -477 839 c 0
 -528 839 -579 818 -616 768 c 1
 -597 770 -578 771 -558 771 c 0
 -472 771 -377 750 -293 708 c 1
EndSplineSet
Fore
Refer: 180 3636 N 1 0 0 1 -164 0 2
Validated: 5
Layer: 2
Refer: 180 3636 N 1 0 0 1 -164 0 2
EndChar

StartChar: uni0E35.left
Encoding: 63234 63234 98
Width: 0
Flags: W
HStem: 713 21G<-702 -695.5> 726 45<-630.641 -428.045> 839 55<-575.462 -397.846>
VStem: -358 100<862 948>
LayerCount: 3
Back
SplineSet
-233 636 m 1
 -368 694 -470 726 -577 726 c 0
 -617 726 -657 722 -700 713 c 1
 -671 829 -577 882 -482 882 c 0
 -438 882 -394 870 -355 849 c 1
 -355 948 l 1
 -258 948 l 1
 -258 751 l 1
 -247 739 -233 690 -233 636 c 1
-296 710 m 1
 -320 781 -403 827 -483 827 c 0
 -533 827 -582 809 -616 768 c 1
 -596 770 -576 772 -555 772 c 0
 -470 772 -379 752 -296 710 c 1
EndSplineSet
Fore
Refer: 181 3637 N 1 0 0 1 -164 0 2
Validated: 1
Layer: 2
Refer: 181 3637 N 1 0 0 1 -164 0 2
EndChar

StartChar: uni0E36.left
Encoding: 63235 63235 99
Width: 0
Flags: W
HStem: 713 21G<-702 -695.5> 726 45<-630.641 -428.045> 839 55<-575.241 -402.359> 906 46<-348.535 -265.777>
VStem: -258 49<815.522 898.239>
LayerCount: 3
Back
SplineSet
-233 636 m 1
 -368 694 -470 726 -577 726 c 0
 -617 726 -657 722 -700 713 c 1
 -670 832 -572 881 -483 881 c 0
 -460 881 -437 878 -416 872 c 1
 -416 875 l 0
 -416 909 -387 952 -327 952 c 0
 -262 952 -232 908 -232 866 c 0
 -232 833 -250 801 -283 791 c 1
 -250 768 -233 688 -233 636 c 1
-327 819 m 0
 -292 819 -275 843 -275 866 c 0
 -275 890 -292 914 -327 914 c 0
 -362 914 -379 890 -379 866 c 0
 -379 843 -362 819 -327 819 c 0
-296 710 m 1
 -320 781 -403 827 -483 827 c 0
 -533 827 -582 809 -616 768 c 1
 -596 770 -576 772 -555 772 c 0
 -470 772 -379 752 -296 710 c 1
EndSplineSet
Fore
Refer: 182 3638 N 1 0 0 1 -164 0 2
Validated: 1
Layer: 2
Refer: 182 3638 N 1 0 0 1 -164 0 2
EndChar

StartChar: uni0E37.left
Encoding: 63236 63236 100
Width: 0
Flags: W
HStem: 713 21G<-701.5 -695.5> 726 45<-630.641 -428.045> 839 55<-573.39 -477.474>
VStem: -477 75<894 949> -339 80<849 949>
LayerCount: 3
Back
SplineSet
-296 710 m 1xd0
 -320 781 -403 827 -483 827 c 0
 -533 827 -582 809 -616 768 c 1
 -596 770 -576 772 -555 772 c 0
 -470 772 -379 752 -296 710 c 1xd0
-258 743 m 1
 -246 733 -233 684 -233 636 c 1
 -368 694 -470 726 -577 726 c 0
 -617 726 -657 722 -700 713 c 1
 -670 831 -573 883 -476 882 c 1xd0
 -475 948 l 1
 -402 948 l 1
 -401 869 l 1
 -387 866 -352 851 -338 839 c 1
 -336 948 l 1
 -260 948 l 1xb0
 -258 743 l 1
EndSplineSet
Fore
Refer: 183 3639 N 1 0 0 1 -164 0 2
Validated: 1
Layer: 2
Refer: 183 3639 N 1 0 0 1 -164 0 2
EndChar

StartChar: ellipsis
Encoding: 8230 8230 101
Width: 998
Flags: W
HStem: -14 140<119.299 215.75 450.625 548.375 784.299 880.75>
VStem: 98 139<6.875 104.625> 430 140<7.625 104.625> 763 139<6.875 104.625>
CounterMasks: 1 70
LayerCount: 3
Fore
SplineSet
902 57 m 0
 902 18 869 -14 831 -14 c 0
 794 -14 763 20 763 57 c 0
 763 92 796 126 831 126 c 0
 868 126 902 94 902 57 c 0
570 57 m 0
 570 18 536 -14 499 -14 c 0
 461 -14 430 20 430 57 c 0
 430 92 462 126 499 126 c 0
 536 126 570 94 570 57 c 0
237 57 m 0
 237 18 204 -14 166 -14 c 0
 129 -14 98 20 98 57 c 0
 98 92 131 126 166 126 c 0
 203 126 237 94 237 57 c 0
EndSplineSet
Validated: 1
Layer: 2
SplineSet
902 57 m 0,0,1
 902 28 902 28 881 7 c 128,-1,2
 860 -14 860 -14 831 -14 c 0,3,4
 804 -14 804 -14 783.5 7.5 c 128,-1,5
 763 29 763 29 763 57 c 0,6,7
 763 83 763 83 784 104.5 c 128,-1,8
 805 126 805 126 831 126 c 0,9,10
 859 126 859 126 880.5 105.5 c 128,-1,11
 902 85 902 85 902 57 c 0,0,1
570 57 m 0,12,13
 570 28 570 28 548.5 7 c 128,-1,14
 527 -14 527 -14 499 -14 c 128,-1,15
 471 -14 471 -14 450.5 7.5 c 128,-1,16
 430 29 430 29 430 57 c 0,17,18
 430 84 430 84 451 105 c 128,-1,19
 472 126 472 126 499 126 c 0,20,21
 527 126 527 126 548.5 105.5 c 128,-1,22
 570 85 570 85 570 57 c 0,12,13
237 57 m 0,23,24
 237 28 237 28 216 7 c 128,-1,25
 195 -14 195 -14 166 -14 c 0,26,27
 139 -14 139 -14 118.5 7.5 c 128,-1,28
 98 29 98 29 98 57 c 0,29,30
 98 83 98 83 119 104.5 c 128,-1,31
 140 126 140 126 166 126 c 0,32,33
 194 126 194 126 215.5 105.5 c 128,-1,34
 237 85 237 85 237 57 c 0,23,24
EndSplineSet
EndChar

StartChar: uni0E48.low_left
Encoding: 63237 63237 102
Width: 0
Flags: HW
HStem: 688 238<-347 -267>
VStem: -347 80<688 786>
LayerCount: 3
Back
SplineSet
-266 926 m 1
 -281 688 l 1
 -353 688 l 1
 -370 926 l 1
 -266 926 l 1
EndSplineSet
Fore
Refer: 107 63242 N 1 0 0 1 -164 0 2
Validated: 1
Layer: 2
Refer: 107 63242 N 1 0 0 1 -164 0 2
EndChar

StartChar: uni0E49.low_left
Encoding: 63238 63238 103
Width: 0
Flags: HW
HStem: 677 50<-542 -483.332> 778 45<-509.262 -462.557> 925 53<-509.753 -426.933>
VStem: -574 56<830.236 916.927> -418 57<832.575 915.573> -215 108<877.83 972>
LayerCount: 3
Back
SplineSet
-229 940 m 17
 -266 627 -570 665 -624 670 c 1
 -624 710 l 1
 -578 716 -559 736 -550 757 c 1
 -550 760 l 1
 -550 760 -559 757 -576 759 c 0
 -626 767 -652 808 -652 850 c 0
 -652 895 -621 940 -556 940 c 0
 -458 940 -458 851 -458 849 c 0
 -458 765 -502 725 -502 725 c 1
 -502 722 l 1
 -502 722 -326 737 -330 940 c 1
 -229 940 l 17
-556 800 m 0
 -526 800 -510 823 -510 846 c 0
 -510 869 -526 892 -556 892 c 0
 -586 892 -602 869 -602 846 c 0
 -602 823 -586 800 -556 800 c 0
EndSplineSet
Fore
Refer: 108 63243 N 1 0 0 1 -164 0 2
Validated: 1
Layer: 2
Refer: 108 63243 N 1 0 0 1 -164 0 2
EndChar

StartChar: uni0E4A.low_left
Encoding: 63239 63239 104
Width: 0
Flags: HW
HStem: 671 40<-553.666 -483.578 -397 -374.817> 794 39<-553.861 -484.211>
VStem: -637 60<809 880.508> -478 42<715.68 788.883> -340 66<756.908 876.227> -235 91<892.938 954> -228 84<826.724 952.97>
LayerCount: 3
Back
SplineSet
-237 917 m 17
 -227 790 -307 677 -447 677 c 1
 -447 713 l 1
 -413 731 -400 763 -400 794 c 0
 -400 827 -416 858 -438 866 c 1
 -493 828 l 1
 -556 869 l 1
 -587 863 -601 822 -598 799 c 1
 -594 796 l 1
 -594 796 -582 816 -548 816 c 0
 -508 816 -478 790 -478 748 c 0
 -478 705 -507 677 -548 677 c 0
 -613 677 -651 734 -651 806 c 0
 -651 851 -613 919 -551 923 c 1
 -493 874 l 1
 -435 923 l 1
 -367 904 -344 858 -344 814 c 0
 -344 789 -352 764 -364 746 c 1
 -361 745 l 1
 -319 771 -290 833 -310 917 c 1
 -237 917 l 17
-550 708 m 0
 -524 708 -511 727 -511 746 c 0
 -511 766 -524 785 -550 785 c 0
 -576 785 -588 766 -588 746 c 0
 -588 727 -576 708 -550 708 c 0
EndSplineSet
Fore
Refer: 109 63244 N 1 0 0 1 -164 0 2
Validated: 1
Layer: 2
Refer: 109 63244 N 1 0 0 1 -164 0 2
EndChar

StartChar: uni0E4B.low_left
Encoding: 63240 63240 105
Width: 0
Flags: HW
HStem: 770 81<-456 -353 -261 -159>
VStem: -353 92<677 770 851 942>
LayerCount: 3
Back
SplineSet
-253 774 m 1
 -347 773 l 1
 -349 691 l 1
 -422 691 l 1
 -424 773 l 1
 -518 774 l 1
 -518 848 l 1
 -424 849 l 1
 -425 931 l 1
 -346 931 l 1
 -347 849 l 1
 -253 848 l 1
 -253 774 l 1
EndSplineSet
Fore
Refer: 110 63245 N 1 0 0 1 -164 0 2
Validated: 1
Layer: 2
Refer: 110 63245 N 1 0 0 1 -164 0 2
EndChar

StartChar: uni0E4C.low_left
Encoding: 63241 63241 106
Width: 0
Flags: HW
HStem: 671 48<-379.875 -303.743>
VStem: -437 50<724.989 802.333> -297 52<725.003 802.621> -209 85<941.524 975.976>
LayerCount: 3
Back
SplineSet
-238 954 m 17
 -264 857 -375 836 -399 829 c 1
 -399 826 l 1
 -375 825 -349 802 -349 760 c 0
 -349 714 -384 679 -435 679 c 0
 -490 679 -524 720 -524 766 c 0
 -524 806 -495 859 -404 876 c 0
 -358 885 -326 919 -316 975 c 1
 -238 954 l 17
-435 722 m 0
 -408 722 -395 743 -395 764 c 0
 -395 784 -408 805 -435 805 c 0
 -464 805 -478 784 -478 764 c 0
 -478 743 -464 722 -435 722 c 0
EndSplineSet
Fore
Refer: 111 63246 S 1 0 0 1 -164 0 2
Validated: 1
Layer: 2
Refer: 111 63246 S 1 0 0 1 -164 0 2
EndChar

StartChar: uni0E48.low
Encoding: 63242 63242 107
Width: 0
Flags: W
HStem: 688 238<-183 -103>
VStem: -183 80<688 786>
AnchorPoint: "AboveMark" -144 983 basemark 0
AnchorPoint: "AboveBase" -94 630 mark 0
LayerCount: 3
Fore
SplineSet
-88 926 m 1
 -103 688 l 1
 -183 688 l 1
 -200 926 l 1
 -88 926 l 1
EndSplineSet
Validated: 1
Layer: 2
SplineSet
-88 926 m 1,0,-1
 -103 688 l 1,1,-1
 -183 688 l 1,2,-1
 -200 926 l 1,3,-1
 -88 926 l 1,0,-1
EndSplineSet
Substitution2: "Thai Phinthu Mai Ek Reordering" uni0E3A
EndChar

StartChar: uni0E49.low
Encoding: 63243 63243 108
Width: 0
Flags: W
HStem: 677 50<-378 -319.332> 778 45<-345.262 -298.557> 925 53<-345.753 -262.933>
VStem: -410 56<830.236 916.927> -254 57<832.575 915.573> -51 108<877.83 972>
AnchorPoint: "AboveMark" -177 983 basemark 0
AnchorPoint: "AboveBase" -94 630 mark 0
LayerCount: 3
Fore
SplineSet
-315 778 m 0
 -377 778 -410 828 -410 877 c 0
 -410 927 -376 978 -303 978 c 0
 -229 978 -197 927 -197 879 c 0
 -197 771 -252 736 -252 736 c 1
 -250 733 l 1
 -250 733 -51 762 -51 958 c 2
 -51 972 l 1
 57 972 l 17
 31 707 -190 673 -308 673 c 0
 -342 673 -368 676 -378 677 c 1
 -378 727 l 1
 -349 730 -312 742 -298 777 c 1
 -298 780 l 1
 -298 780 -305 778 -315 778 c 0
-307 823 m 0
 -272 823 -254 848 -254 874 c 0
 -254 900 -272 925 -307 925 c 0
 -338 925 -354 900 -354 874 c 0
 -354 848 -338 823 -307 823 c 0
EndSplineSet
Validated: 1
Layer: 2
SplineSet
-315 778 m 0,0,1
 -359 778 -359 778 -384.5 807.5 c 128,-1,2
 -410 837 -410 837 -410 877 c 0,3,4
 -410 918 -410 918 -382 948 c 128,-1,5
 -354 978 -354 978 -303 978 c 0,6,7
 -251 978 -251 978 -224 948.5 c 128,-1,8
 -197 919 -197 919 -197 879 c 0,9,10
 -197 831 -197 831 -210.5 795.5 c 128,-1,11
 -224 760 -224 760 -238 748 c 2,12,-1
 -252 736 l 1,13,-1
 -250 733 l 1,14,15
 -242 734 -242 734 -228.5 737 c 128,-1,16
 -215 740 -215 740 -180.5 756 c 128,-1,17
 -146 772 -146 772 -120 794 c 128,-1,18
 -94 816 -94 816 -72.5 859.5 c 128,-1,19
 -51 903 -51 903 -51 958 c 2,20,-1
 -51 972 l 1,21,-1
 57 972 l 1,22,23
 50 896 50 896 20 839.5 c 128,-1,24
 -10 783 -10 783 -48 752 c 128,-1,25
 -86 721 -86 721 -136.5 702.5 c 128,-1,26
 -187 684 -187 684 -226.5 678.5 c 128,-1,27
 -266 673 -266 673 -308 673 c 0,28,29
 -338 673 -338 673 -378 677 c 1,30,-1
 -378 727 l 1,31,32
 -315 733 -315 733 -298 777 c 1,33,-1
 -298 780 l 1,34,35
 -305 778 -305 778 -315 778 c 0,0,1
-307 823 m 0,36,37
 -282 823 -282 823 -268 838 c 128,-1,38
 -254 853 -254 853 -254 874 c 128,-1,39
 -254 895 -254 895 -268 910 c 128,-1,40
 -282 925 -282 925 -307 925 c 0,41,42
 -329 925 -329 925 -341.5 910 c 128,-1,43
 -354 895 -354 895 -354 874 c 128,-1,44
 -354 853 -354 853 -341.5 838 c 128,-1,45
 -329 823 -329 823 -307 823 c 0,36,37
EndSplineSet
Substitution2: "Thai Phinthu Mai Tho Reordering" uni0E3A
EndChar

StartChar: uni0E4A.low
Encoding: 63244 63244 109
Width: 0
Flags: W
HStem: 671 40<-389.666 -319.578 -233 -210.817> 794 39<-389.861 -320.211>
VStem: -473 60<809 880.508> -314 42<715.68 788.883> -176 66<756.908 876.227> -71 91<892.938 954> -64 84<826.724 952.97>
AnchorPoint: "AboveMark" -289 983 basemark 0
AnchorPoint: "AboveBase" -94 630 mark 0
LayerCount: 3
Fore
SplineSet
20 954 m 17xfc
 20 942 l 2xfc
 20 796 -72 671 -233 671 c 1
 -233 713 l 1
 -192 734 -176 773 -176 809 c 0
 -176 849 -195 885 -221 894 c 1
 -289 848 l 1
 -362 899 l 1
 -395 892 -413 851 -413 824 c 0
 -413 813 -407 810 -407 809 c 2
 -407 809 -393 833 -353 833 c 0
 -307 833 -272 803 -272 757 c 0
 -272 705 -304 671 -353 671 c 0
 -429 671 -473 737 -473 823 c 0
 -473 877 -429 955 -356 963 c 1
 -289 906 l 1
 -218 963 l 1
 -138 940 -110 884 -110 833 c 0
 -110 802 -120 773 -134 753 c 1
 -131 750 l 1
 -92 775 -64 825 -64 892 c 0xfa
 -64 912 -66 932 -71 954 c 1
 20 954 l 17xfc
-353 711 m 0
 -327 711 -314 732 -314 752 c 0
 -314 773 -327 794 -353 794 c 0
 -382 794 -396 773 -396 752 c 0
 -396 732 -382 711 -353 711 c 0
EndSplineSet
Validated: 1
Layer: 2
SplineSet
20 954 m 17,0,-1
 20 942 l 2,1,2
 20 828 20 828 -48 749.5 c 128,-1,3
 -116 671 -116 671 -233 671 c 1,4,-1
 -233 713 l 1,5,6
 -176 742 -176 742 -176 809 c 0,7,8
 -176 839 -176 839 -189 863 c 128,-1,9
 -202 887 -202 887 -221 894 c 1,10,-1
 -289 848 l 1,11,-1
 -362 899 l 1,12,13
 -385 894 -385 894 -399 870.5 c 128,-1,14
 -413 847 -413 847 -413 824 c 0,15,16
 -413 816 -413 816 -407.816822111 810.091588945 c 0,17,18
 -407 810 -407 810 -407 809.5 c 2,19,-1
 -407 809 l 1,20,21
 -393 833 -393 833 -353 833 c 0,22,23
 -318 833 -318 833 -295 812 c 128,-1,24
 -272 791 -272 791 -272 757 c 0,25,26
 -272 718 -272 718 -294 694.5 c 128,-1,27
 -316 671 -316 671 -353 671 c 0,28,29
 -409 671 -409 671 -441 714 c 128,-1,30
 -473 757 -473 757 -473 823 c 0,31,32
 -473 868 -473 868 -440 912.5 c 128,-1,33
 -407 957 -407 957 -356 963 c 1,34,-1
 -289 906 l 1,35,-1
 -218 963 l 1,36,37
 -162 947 -162 947 -136 911.5 c 128,-1,38
 -110 876 -110 876 -110 833 c 0,39,40
 -110 787 -110 787 -134 753 c 1,41,-1
 -131 750 l 1,42,43
 -64 793 -64 793 -64 892 c 0,44,45
 -64 923 -64 923 -71 954 c 1,46,-1
 20 954 l 17,0,-1
-353 711 m 0,47,48
 -335 711 -335 711 -324.5 723.5 c 128,-1,49
 -314 736 -314 736 -314 752 c 0,50,51
 -314 769 -314 769 -324.5 781.5 c 128,-1,52
 -335 794 -335 794 -353 794 c 0,53,54
 -374 794 -374 794 -385 781.5 c 128,-1,55
 -396 769 -396 769 -396 752 c 0,56,57
 -396 736 -396 736 -384.5 723.5 c 128,-1,58
 -373 711 -373 711 -353 711 c 0,47,48
EndSplineSet
Substitution2: "Thai Phinthu Mai Tri Reordering" uni0E3A
EndChar

StartChar: uni0E4B.low
Encoding: 63245 63245 110
Width: 0
Flags: W
HStem: 770 81<-292 -189 -97 5>
VStem: -189 92<677 770 851 942>
AnchorPoint: "AboveMark" -143 983 basemark 0
AnchorPoint: "AboveBase" -94 630 mark 0
LayerCount: 3
Fore
SplineSet
5 770 m 1
 -97 770 l 1
 -97 677 l 1
 -189 677 l 1
 -189 770 l 1
 -292 770 l 1
 -292 851 l 1
 -189 851 l 1
 -189 942 l 1
 -97 942 l 1
 -97 851 l 1
 5 851 l 1
 5 770 l 1
EndSplineSet
Validated: 1
Layer: 2
SplineSet
5 770 m 1,0,-1
 -97 770 l 1,1,-1
 -97 677 l 1,2,-1
 -189 677 l 1,3,-1
 -189 770 l 1,4,-1
 -292 770 l 1,5,-1
 -292 851 l 1,6,-1
 -189 851 l 1,7,-1
 -189 942 l 1,8,-1
 -97 942 l 1,9,-1
 -97 851 l 1,10,-1
 5 851 l 1,11,-1
 5 770 l 1,0,-1
EndSplineSet
Substitution2: "Thai Phinthu Mai Chattawa Reordering" uni0E3A
EndChar

StartChar: uni0E4C.low
Encoding: 63246 63246 111
Width: 0
Flags: W
HStem: 671 48<-215.875 -139.743>
VStem: -273 50<724.989 802.333> -133 52<725.003 802.621> -45 85<941.524 975.976>
AnchorPoint: "AboveMark" -178 983 basemark 0
AnchorPoint: "AboveBase" -94 630 mark 0
LayerCount: 3
Fore
SplineSet
40 974 m 17
 11 866 -111 843 -137 837 c 1
 -137 836 l 1
 -111 834 -81 806 -81 760 c 0
 -81 710 -120 671 -177 671 c 0
 -237 671 -273 717 -273 768 c 0
 -273 811 -241 865 -143 889 c 0
 -94 902 -55 935 -45 998 c 1
 40 974 l 17
-178 719 m 0
 -148 719 -133 742 -133 764 c 0
 -133 786 -148 809 -178 809 c 0
 -208 809 -223 786 -223 764 c 0
 -223 742 -208 719 -178 719 c 0
EndSplineSet
Validated: 1
Layer: 2
SplineSet
40 974 m 17,0,1
 12 871 12 871 -137 837 c 1,2,-1
 -137 836 l 1,3,4
 -116 834 -116 834 -98.5 813 c 128,-1,5
 -81 792 -81 792 -81 760 c 0,6,7
 -81 722 -81 722 -108 696.5 c 128,-1,8
 -135 671 -135 671 -177 671 c 0,9,10
 -220 671 -220 671 -246.5 699.5 c 128,-1,11
 -273 728 -273 728 -273 768 c 0,12,13
 -273 805 -273 805 -242 838.5 c 128,-1,14
 -211 872 -211 872 -143 889 c 0,15,16
 -59 911 -59 911 -45 998 c 1,17,-1
 40 974 l 17,0,1
-178 719 m 128,-1,19
 -157 719 -157 719 -145 732.5 c 128,-1,20
 -133 746 -133 746 -133 764 c 128,-1,21
 -133 782 -133 782 -145 795.5 c 128,-1,22
 -157 809 -157 809 -178 809 c 128,-1,23
 -199 809 -199 809 -211 795.5 c 128,-1,24
 -223 782 -223 782 -223 764 c 128,-1,25
 -223 746 -223 746 -211 732.5 c 128,-1,18
 -199 719 -199 719 -178 719 c 128,-1,19
EndSplineSet
Substitution2: "Thai Phinthu Thanthakhat Reordering" uni0E3A
EndChar

StartChar: uni0E0D.descless
Encoding: 63247 63247 112
Width: 800
Flags: W
HStem: -5 43<169.637 254.95 499.573 586.538> 143 44<186.302 255.423> 378 44<88 117 191.732 276> 545 53<170.09 316.051>
VStem: 83 103<183 370.537> 83 76<48.4731 134.087> 265 45<47.6273 133.858> 379 103<59.5854 482.54> 604 103<60.5729 519>
LayerCount: 3
Back
SplineSet
707 117 m 2xf780
 707 61 639 -8 542 -8 c 0
 449 -8 379 54 379 124 c 2
 379 401 l 2
 379 496 312 545 242 545 c 0
 178 545 112 505 88 422 c 1
 276 422 l 1
 276 378 l 1
 226 378 l 2
 198 378 186 355 186 326 c 2
 186 183 l 1xf780
 197 186 208 187 217 187 c 0
 278 187 310 140 310 93 c 0
 310 46 279 -1 212 -5 c 0
 106 -9 83 80 83 124 c 2xfb80
 83 315 l 2
 83 336 97 373 117 378 c 1
 34 378 l 1
 39 522 157 598 271 598 c 0
 375 598 475 534 482 401 c 1
 482 101 l 2
 482 68 507 41 542 41 c 0
 579 41 604 66 604 100 c 1
 605 519 l 1
 656 582 l 2
 674 593 707 608 707 551 c 2
 707 117 l 2xf780
212 38 m 0
 248 38 265 64 265 90 c 0
 265 117 248 143 212 143 c 0
 176 143 159 117 159 90 c 0xfb80
 159 64 176 38 212 38 c 0
EndSplineSet
Fore
SplineSet
310 93 m 0xfb80
 310 34 266 -5 205 -5 c 0
 105 -5 83 81 83 124 c 2xf780
 83 315 l 2
 83 336 97 373 117 378 c 1
 34 378 l 1
 39 522 157 598 271 598 c 0
 379 598 482 524 482 401 c 2
 482 101 l 2
 482 68 507 41 542 41 c 0
 579 41 604 66 604 100 c 2
 604 519 l 1
 656 582 l 2
 662 589 675 592 684 592 c 0
 697 592 707 583 707 551 c 2
 707 117 l 2
 707 61 639 -8 542 -8 c 0
 449 -8 379 54 379 124 c 2
 379 401 l 2
 379 496 312 545 242 545 c 0
 178 545 112 505 88 422 c 1
 276 422 l 1
 276 378 l 1
 226 378 l 2
 198 378 186 355 186 326 c 2
 186 183 l 1
 197 186 208 187 217 187 c 0
 278 187 310 140 310 93 c 0xfb80
212 38 m 0
 248 38 265 64 265 90 c 0
 265 117 248 143 212 143 c 0
 176 143 159 117 159 90 c 0
 159 64 176 38 212 38 c 0
EndSplineSet
Validated: 1
Layer: 2
SplineSet
310 93 m 0,0,1
 310 49 310 49 280.5 22 c 128,-1,2
 251 -5 251 -5 205 -5 c 128,-1,3
 159 -5 159 -5 129.5 19.5 c 128,-1,4
 100 44 100 44 91.5 70.5 c 128,-1,5
 83 97 83 97 83 124 c 2,6,-1
 83 315 l 2,7,8
 83 333 83 333 93 354 c 128,-1,9
 103 375 103 375 117 378 c 2,10,-1
 34 378 l 1,11,12
 38 480 38 480 108.5 539 c 128,-1,13
 179 598 179 598 271 598 c 0,14,15
 356 598 356 598 419 544 c 128,-1,16
 482 490 482 490 482 401 c 2,17,-1
 482 101 l 2,18,19
 482 76 482 76 499 58.5 c 128,-1,20
 516 41 516 41 542 41 c 0,21,22
 570 41 570 41 587 57.5 c 128,-1,23
 604 74 604 74 604 100 c 2,24,-1
 604 519 l 1,25,-1
 656 582 l 2,26,27
 665 592 665 592 684 592 c 0,28,29
 707 592 707 592 707 551 c 2,30,-1
 707 117 l 2,31,32
 707 72 707 72 659 32 c 128,-1,33
 611 -8 611 -8 542 -8 c 128,-1,34
 473 -8 473 -8 426 31.5 c 128,-1,35
 379 71 379 71 379 124 c 2,36,-1
 379 401 l 2,37,38
 379 469 379 469 338.5 507 c 128,-1,39
 298 545 298 545 242 545 c 0,40,41
 191 545 191 545 148 513 c 128,-1,42
 105 481 105 481 88 422 c 1,43,-1
 276 422 l 1,44,-1
 276 378 l 1,45,-1
 226 378 l 2,46,47
 186 378 186 378 186 326 c 2,48,-1
 186 183 l 1,49,50
 201 187 201 187 217 187 c 0,51,52
 260 187 260 187 285 159 c 128,-1,53
 310 131 310 131 310 93 c 0,0,1
212 38 m 128,-1,55
 237 38 237 38 251 53.5 c 128,-1,56
 265 69 265 69 265 90 c 0,57,58
 265 112 265 112 251 127.5 c 128,-1,59
 237 143 237 143 212 143 c 128,-1,60
 187 143 187 143 173 127.5 c 128,-1,61
 159 112 159 112 159 90 c 0,62,63
 159 69 159 69 173 53.5 c 128,-1,54
 187 38 187 38 212 38 c 128,-1,55
EndSplineSet
EndChar

StartChar: quoteleft
Encoding: 8216 8216 113
Width: 333
Flags: W
HStem: 452 129<143.957 204.635> 703 28<208.518 220.25>
VStem: 89 54<531.5 636.909>
LayerCount: 3
Fore
SplineSet
247 524 m 0
 247 479 218 452 175 452 c 0
 109 452 89 504 89 559 c 0
 89 637 157 713 217 731 c 1
 230 703 l 1
 178 680 143 622 143 588 c 0
 143 583 143 581 145 581 c 0
 148 581 156 588 181 588 c 0
 217 588 247 564 247 524 c 0
EndSplineSet
Validated: 1
Layer: 2
SplineSet
247 524 m 0,0,1
 247 491 247 491 227.5 471.5 c 128,-1,2
 208 452 208 452 175 452 c 0,3,4
 89 452 89 452 89 559 c 0,5,6
 89 615 89 615 129 666 c 128,-1,7
 169 717 169 717 217 731 c 1,8,-1
 230 703 l 1,9,10
 193 687 193 687 168 651.5 c 128,-1,11
 143 616 143 616 143 588 c 0,12,13
 143 581 143 581 145 581 c 0,14,15
 146 581 146 581 150 582.5 c 128,-1,16
 154 584 154 584 162 586 c 128,-1,17
 170 588 170 588 181 588 c 0,18,19
 209 588 209 588 228 570.5 c 128,-1,20
 247 553 247 553 247 524 c 0,0,1
EndSplineSet
EndChar

StartChar: quoteright
Encoding: 8217 8217 114
Width: 333
Flags: W
HStem: 452 27<111.37 123.482> 602 129<127.182 188.043>
VStem: 189 54<545.584 651.5>
LayerCount: 3
Fore
SplineSet
187 602 m 0
 183 602 180 594 151 594 c 0
 115 594 84 619 84 659 c 0
 84 703 114 731 157 731 c 0
 223 731 243 679 243 624 c 0
 243 545 175 470 115 452 c 1
 101 479 l 1
 154 502 189 561 189 594 c 0
 189 597 189 602 187 602 c 0
EndSplineSet
Validated: 1
Layer: 2
SplineSet
187 602 m 0,0,1
 186 602 186 602 183 600 c 128,-1,2
 180 598 180 598 172 596 c 128,-1,3
 164 594 164 594 151 594 c 0,4,5
 123 594 123 594 103.5 612 c 128,-1,6
 84 630 84 630 84 659 c 0,7,8
 84 692 84 692 104 711.5 c 128,-1,9
 124 731 124 731 157 731 c 0,10,11
 243 731 243 731 243 624 c 0,12,13
 243 567 243 567 203 516.5 c 128,-1,14
 163 466 163 466 115 452 c 1,15,-1
 101 479 l 1,16,17
 138 495 138 495 163.5 531 c 128,-1,18
 189 567 189 567 189 594 c 0,19,20
 189 602 189 602 187 602 c 0,0,1
EndSplineSet
EndChar

StartChar: bullet
Encoding: 8226 8226 117
Width: 385
Flags: W
HStem: 177 285<119.274 267.049>
VStem: 51 284<245.556 393.161>
LayerCount: 3
Fore
SplineSet
335 319 m 0
 335 241 273 177 192 177 c 0
 115 177 51 241 51 319 c 0
 51 398 114 462 192 462 c 0
 273 462 335 398 335 319 c 0
EndSplineSet
Validated: 1
Layer: 2
SplineSet
335 319 m 0,0,1
 335 260 335 260 293.5 218.5 c 128,-1,2
 252 177 252 177 192 177 c 0,3,4
 134 177 134 177 92.5 219 c 128,-1,5
 51 261 51 261 51 319 c 0,6,7
 51 378 51 378 92.5 420 c 128,-1,8
 134 462 134 462 192 462 c 0,9,10
 252 462 252 462 293.5 420.5 c 128,-1,11
 335 379 335 379 335 319 c 0,0,1
EndSplineSet
EndChar

StartChar: endash
Encoding: 8211 8211 118
Width: 768
Flags: W
HStem: 201 72<22 746>
LayerCount: 3
Fore
SplineSet
746 201 m 1
 22 201 l 1
 22 273 l 1
 746 273 l 1
 746 201 l 1
EndSplineSet
Validated: 1
Layer: 2
SplineSet
746 201 m 1,0,-1
 22 201 l 1,1,-1
 22 273 l 1,2,-1
 746 273 l 1,3,-1
 746 201 l 1,0,-1
EndSplineSet
EndChar

StartChar: emdash
Encoding: 8212 8212 119
Width: 1536
Flags: W
HStem: 201 72<9 1527>
LayerCount: 3
Fore
SplineSet
1527 201 m 1
 9 201 l 1
 9 273 l 1
 1527 273 l 1
 1527 201 l 1
EndSplineSet
Validated: 1
Layer: 2
SplineSet
1527 201 m 1,0,-1
 9 201 l 1,1,-1
 9 273 l 1,2,-1
 1527 273 l 1,3,-1
 1527 201 l 1,0,-1
EndSplineSet
EndChar

StartChar: uni0E31.left
Encoding: 63248 63248 120
Width: 0
Flags: W
HStem: 676 49<-390.817 -216.551> 880 49<-477.668 -392.006>
VStem: -540 53<786.429 871.296> -382 52<784.647 871.355> -109 102<859.846 923>
LayerCount: 3
Back
SplineSet
92 923 m 17xb8
 55 737 -134 676 -281 676 c 0
 -399 676 -508 736 -508 823 c 0
 -508 882 -461 929 -402 929 c 0
 -339 929 -296 885 -296 826 c 0
 -296 786 -318 754 -359 737 c 1
 -333 730 -304 726 -275 726 c 0
 -164 726 -42 782 -9 923 c 1
 92 923 l 17xb8
-402 776 m 0x78
 -367 776 -350 802 -350 828 c 0
 -350 854 -367 880 -402 880 c 0
 -438 880 -455 854 -455 828 c 0
 -455 802 -438 776 -402 776 c 0x78
EndSplineSet
Fore
Refer: 177 3633 N 1 0 0 1 -164 0 2
Validated: 1
Layer: 2
Refer: 177 3633 N 1 0 0 1 -164 0 2
EndChar

StartChar: uni0E4D.left
Encoding: 63249 63249 121
Width: 0
Flags: W
HStem: 673 54<-371.927 -286.134> 831 57<-371.927 -286.134>
VStem: -437 55<736.067 822.076> -276 54<736.067 822.076>
LayerCount: 3
Back
SplineSet
-336 673 m 0
 -408 673 -445 727 -445 780 c 0
 -445 834 -408 888 -336 888 c 0
 -265 888 -230 834 -230 780 c 0
 -230 727 -265 673 -336 673 c 0
-336 727 m 0
 -301 727 -284 753 -284 779 c 0
 -284 805 -301 831 -336 831 c 0
 -372 831 -389 805 -389 779 c 0
 -389 753 -372 727 -336 727 c 0
EndSplineSet
Fore
Refer: 203 3661 N 1 0 0 1 -197 0 2
Validated: 1
Layer: 2
Refer: 203 3661 N 1 0 0 1 -197 0 2
EndChar

StartChar: uni0E47.left
Encoding: 63250 63250 122
Width: 0
Flags: W
HStem: 656 49<-339.293 -264.767> 736 56<-504.515 -432.661> 796 46<-340.8 -264.359> 888 50<-485.771 -308.785> 895 54<-531.56 -352.337>
VStem: -630 75<751.09 871.771> -389 42<749.007 789.064> -295 95<951.714 1025> -258 49<711.658 790.034>
LayerCount: 3
Back
SplineSet
-218 1008 m 17
 -220 897 -298 872 -370 876 c 0
 -404 877 -467 886 -505 888 c 0
 -545 891 -573 861 -573 818 c 0
 -574 797 -568 773 -554 748 c 1
 -525 813 -444 777 -410 742 c 1
 -410 742 -396 733 -396 746 c 0
 -396 801 -354 830 -312 830 c 0
 -270 830 -227 802 -227 743 c 0
 -227 684 -276 656 -315 656 c 0
 -395 656 -441 733 -496 733 c 0
 -538 733 -533 687 -504 656 c 1
 -573 657 l 1
 -619 698 -641 753 -641 804 c 0
 -642 882 -592 949 -502 940 c 0
 -470 937 -409 931 -379 928 c 0
 -355 925 -300 928 -309 1008 c 1
 -218 1008 l 17
-269 743 m 0
 -269 772 -291 787 -312 787 c 0
 -334 787 -356 772 -356 743 c 0
 -356 714 -334 700 -312 700 c 0
 -291 700 -269 714 -269 743 c 0
EndSplineSet
Fore
Refer: 197 3655 N 1 0 0 1 -129 0 2
Validated: 1
Layer: 2
Refer: 197 3655 N 1 0 0 1 -129 0 2
EndChar

StartChar: uni0E48.left
Encoding: 63251 63251 123
Width: 0
Flags: W
HStem: 1021 206<-345 -268>
VStem: -345 77<1021 1124>
LayerCount: 3
Back
SplineSet
-240 1227 m 1
 -253 1021 l 1
 -330 1021 l 1
 -344 1227 l 1
 -240 1227 l 1
EndSplineSet
Fore
Refer: 198 3656 N 1 0 0 1 -164 0 2
Validated: 1
Layer: 2
Refer: 198 3656 N 1 0 0 1 -164 0 2
EndChar

StartChar: uni0E49.left
Encoding: 63252 63252 124
Width: 0
Flags: W
HStem: 991 49<-399 -306.959> 994 35<-505 -459.568> 1072 37<-481.974 -441.458> 1187 42<-483.68 -411.724>
VStem: -530 42<1113.59 1182.78> -407 46<1113.06 1182.57> -198 89<1150.46 1229>
LayerCount: 3
Back
SplineSet
-54 1229 m 17
 -86 957 -358 991 -404 994 c 1
 -404 1029 l 1
 -364 1034 -349 1052 -339 1071 c 1
 -339 1074 l 1
 -339 1074 -349 1071 -362 1072 c 0
 -406 1079 -429 1115 -429 1151 c 0
 -429 1190 -402 1229 -346 1229 c 0
 -260 1229 -260 1152 -260 1150 c 0
 -260 1077 -298 1043 -298 1043 c 1
 -298 1040 l 1
 -298 1040 -138 1054 -143 1229 c 1
 -54 1229 l 17
-347 1109 m 0
 -320 1109 -306 1128 -306 1148 c 0
 -306 1168 -320 1187 -347 1187 c 0
 -373 1187 -386 1168 -386 1148 c 0
 -386 1128 -373 1109 -347 1109 c 0
EndSplineSet
Fore
Refer: 199 3657 N 1 0 0 1 -261 0 2
Validated: 1
Layer: 2
Refer: 199 3657 N 1 0 0 1 -261 0 2
EndChar

StartChar: uni0E4A.left
Encoding: 63253 63253 125
Width: 0
Flags: W
HStem: 986 35<-406.608 -347.936> 1089 35<-406.849 -348.365>
VStem: -481 54<1104 1165.79> -344 35<1025.4 1085.05> -229 56<1055.1 1163.72> -134 69<1107.29 1226>
LayerCount: 3
Back
SplineSet
-58 1226 m 17
 -49 1098 -129 986 -269 986 c 1
 -269 1021 l 1
 -235 1039 -222 1071 -222 1102 c 0
 -222 1136 -238 1167 -260 1175 c 1
 -315 1137 l 1
 -378 1178 l 1
 -409 1172 -422 1130 -419 1107 c 1
 -416 1104 l 1
 -416 1104 -404 1124 -370 1124 c 0
 -330 1124 -301 1098 -301 1057 c 0
 -301 1014 -329 986 -370 986 c 0
 -435 986 -473 1043 -473 1115 c 0
 -473 1160 -435 1227 -373 1232 c 1
 -315 1183 l 1
 -257 1232 l 1
 -189 1213 -166 1167 -166 1123 c 0
 -166 1098 -174 1073 -186 1055 c 1
 -183 1054 l 1
 -141 1080 -112 1141 -132 1226 c 1
 -58 1226 l 17
-370 1021 m 0
 -347 1021 -336 1038 -336 1055 c 0
 -336 1072 -347 1089 -370 1089 c 0
 -392 1089 -404 1072 -404 1055 c 0
 -404 1038 -392 1021 -370 1021 c 0
EndSplineSet
Fore
Refer: 200 3658 N 1 0 0 1 -132 0 2
Validated: 1
Layer: 2
Refer: 200 3658 N 1 0 0 1 -132 0 2
EndChar

StartChar: uni0E4B.left
Encoding: 63254 63254 126
Width: 0
Flags: W
HStem: 1072 74<-439 -345 -268 -175>
VStem: -345 77<992 1071 1147 1226>
LayerCount: 3
Back
SplineSet
-164 1075 m 1
 -258 1074 l 1
 -260 995 l 1
 -333 995 l 1
 -335 1074 l 1
 -429 1075 l 1
 -429 1149 l 1
 -335 1150 l 1
 -336 1229 l 1
 -257 1229 l 1
 -258 1150 l 1
 -164 1149 l 1
 -164 1075 l 1
EndSplineSet
Fore
Refer: 201 3659 N 1 0 0 1 -164 0 2
Validated: 1
Layer: 2
Refer: 201 3659 N 1 0 0 1 -164 0 2
EndChar

StartChar: uni0E4C.left
Encoding: 63255 63255 127
Width: 0
Flags: W
HStem: 895 42<-344.437 -273.315>
VStem: -396 46<942.092 1014.76> -268 47<940.866 1016.36> -188 78<1137.48 1171.97>
LayerCount: 3
Back
SplineSet
-112 1201 m 17
 -138 1104 -249 1086 -273 1080 c 1
 -273 1077 l 1
 -249 1075 -223 1049 -223 1008 c 0
 -223 962 -258 926 -309 926 c 0
 -364 926 -398 968 -398 1014 c 0
 -398 1054 -369 1106 -278 1123 c 0
 -232 1132 -200 1166 -190 1223 c 1
 -112 1201 l 17
-309 968 m 0
 -283 968 -270 989 -270 1010 c 0
 -270 1030 -283 1051 -309 1051 c 0
 -338 1051 -352 1030 -352 1010 c 0
 -352 989 -338 968 -309 968 c 0
EndSplineSet
Fore
Refer: 202 3660 N 1 0 0 1 -147 0 2
Validated: 1
Layer: 2
Refer: 202 3660 N 1 0 0 1 -147 0 2
EndChar

StartChar: uni0E01
Encoding: 3585 3585 129
Width: 602
Flags: W
HStem: 0 21G<83 187 410 511> 378 44<89 117 193.011 276> 544 54<180.026 340.181>
VStem: 83 104<0 370.537> 410 101<0 477.055>
LayerCount: 3
Fore
SplineSet
511 0 m 1
 410 0 l 1
 410 399 l 2
 410 495 335 544 257 544 c 0
 186 544 112 503 89 422 c 1
 276 422 l 1
 276 378 l 1
 227 378 l 2
 200 378 187 355 187 326 c 2
 187 0 l 1
 83 0 l 1
 83 315 l 2
 83 336 97 373 117 378 c 1
 34 378 l 1
 39 522 166 598 288 598 c 0
 402 598 511 527 511 404 c 2
 511 0 l 1
EndSplineSet
Validated: 1
Layer: 2
SplineSet
511 0 m 1,0,-1
 410 0 l 1,1,-1
 410 399 l 2,2,3
 410 467 410 467 365 505.5 c 128,-1,4
 320 544 320 544 257 544 c 0,5,6
 200 544 200 544 152.5 512 c 128,-1,7
 105 480 105 480 89 422 c 1,8,-1
 276 422 l 1,9,-1
 276 378 l 1,10,-1
 227 378 l 2,11,12
 208 378 208 378 197.5 363.5 c 128,-1,13
 187 349 187 349 187 326 c 2,14,-1
 187 0 l 1,15,-1
 83 0 l 1,16,-1
 83 315 l 2,17,18
 83 333 83 333 93 354 c 128,-1,19
 103 375 103 375 117 378 c 2,20,-1
 34 378 l 1,21,22
 38 480 38 480 113.5 539 c 128,-1,23
 189 598 189 598 288 598 c 0,24,25
 379 598 379 598 445 545 c 128,-1,26
 511 492 511 492 511 404 c 2,27,-1
 511 0 l 1,0,-1
EndSplineSet
EndChar

StartChar: uni0E02
Encoding: 3586 3586 130
Width: 585
Flags: W
HStem: -8 46<329.583 390.127> 298 35<82.5912 158.706> 432 35<83.0061 159.269> 542 56<91.0452 202.007>
VStem: 14 47<436 511.027> 170 37<343.504 421.951> 224 103<47.3711 520.682> 392 103<44.0105 521>
LayerCount: 3
Fore
SplineSet
14 439 m 0
 14 526 69 598 170 598 c 0
 270 598 327 527 327 436 c 2
 327 69 l 2
 327 54 341 38 359 38 c 0
 376 38 392 54 392 68 c 2
 392 521 l 1
 444 584 l 2
 449 590 463 594 472 594 c 0
 485 594 495 585 495 553 c 2
 495 118 l 2
 495 46 447 -8 359 -8 c 0
 280 -8 224 48 224 118 c 2
 224 472 l 2
 224 516 186 542 147 542 c 0
 113 542 61 523 61 436 c 1
 77 461 100 467 121 467 c 0
 175 467 207 430 207 384 c 0
 207 339 177 298 121 298 c 0
 44 298 14 372 14 439 c 0
121 333 m 0
 154 333 170 358 170 382 c 0
 170 407 154 432 121 432 c 0
 88 432 72 407 72 382 c 0
 72 358 88 333 121 333 c 0
EndSplineSet
Validated: 1
Layer: 2
SplineSet
14 439 m 0,0,1
 14 507 14 507 55.5 552.5 c 128,-1,2
 97 598 97 598 170 598 c 128,-1,3
 243 598 243 598 285 552 c 128,-1,4
 327 506 327 506 327 436 c 2,5,-1
 327 69 l 2,6,7
 327 57 327 57 336.5 47.5 c 128,-1,8
 346 38 346 38 359 38 c 0,9,10
 371 38 371 38 381.5 47.5 c 128,-1,11
 392 57 392 57 392 68 c 2,12,-1
 392 521 l 1,13,-1
 444 584 l 2,14,15
 452 594 452 594 472 594 c 0,16,17
 495 594 495 594 495 553 c 2,18,-1
 495 118 l 2,19,20
 495 62 495 62 459 27 c 128,-1,21
 423 -8 423 -8 359 -8 c 0,22,23
 300 -8 300 -8 262 28.5 c 128,-1,24
 224 65 224 65 224 118 c 2,25,-1
 224 472 l 2,26,27
 224 504 224 504 201 523 c 128,-1,28
 178 542 178 542 147 542 c 0,29,30
 114 542 114 542 87.5 518 c 128,-1,31
 61 494 61 494 61 436 c 1,32,33
 81 467 81 467 121 467 c 0,34,35
 160 467 160 467 183.5 443.5 c 128,-1,36
 207 420 207 420 207 384 c 128,-1,37
 207 348 207 348 184 323 c 128,-1,38
 161 298 161 298 121 298 c 0,39,40
 68 298 68 298 41 340 c 128,-1,41
 14 382 14 382 14 439 c 0,0,1
121 333 m 128,-1,43
 144 333 144 333 157 347.5 c 128,-1,44
 170 362 170 362 170 382 c 128,-1,45
 170 402 170 402 157 417 c 128,-1,46
 144 432 144 432 121 432 c 128,-1,47
 98 432 98 432 85 417 c 128,-1,48
 72 402 72 402 72 382 c 128,-1,49
 72 362 72 362 85 347.5 c 128,-1,42
 98 333 98 333 121 333 c 128,-1,43
EndSplineSet
EndChar

StartChar: uni0E03
Encoding: 3587 3587 131
Width: 637
Flags: W
HStem: -8 46<380.249 438.972> 255 37<92.1512 169.924> 390 37<92.1504 169.924> 579 20G<77 135.649 237.811 305 518 529>
VStem: 15 47<396.416 508.098> 180 40<300.732 381.307> 273 105<51.2323 523.898> 442 103<44.0105 521>
LayerCount: 3
Fore
SplineSet
131 255 m 0
 38 255 15 355 15 430 c 0
 15 482 37 560 117 599 c 1
 186 525 l 1
 257 599 l 1
 353 588 378 521 378 455 c 2
 378 69 l 2
 378 54 389 38 410 38 c 0
 430 38 442 54 442 68 c 2
 442 521 l 1
 495 584 l 2
 499 589 513 594 523 594 c 0
 535 594 545 585 545 553 c 2
 545 118 l 2
 545 46 498 -8 410 -8 c 0
 330 -8 273 51 273 118 c 2
 273 485 l 2
 273 505 267 521 250 525 c 1
 186 459 l 1
 112 536 l 1
 86 518 62 488 62 430 c 0
 62 419 63 408 65 395 c 1
 81 421 112 427 131 427 c 0
 190 426 220 383 220 340 c 0
 220 297 190 255 131 255 c 0
131 292 m 0
 164 292 180 316 180 341 c 0
 180 366 164 390 131 390 c 0
 98 390 82 366 82 341 c 0
 82 316 98 292 131 292 c 0
EndSplineSet
Validated: 1
Layer: 2
SplineSet
131 255 m 0,0,1
 98 255 98 255 74 271.5 c 128,-1,2
 50 288 50 288 38 315 c 128,-1,3
 26 342 26 342 20.5 370.5 c 128,-1,4
 15 399 15 399 15 430 c 0,5,6
 15 478 15 478 39 525.5 c 128,-1,7
 63 573 63 573 117 599 c 1,8,-1
 186 525 l 1,9,-1
 257 599 l 1,10,11
 378 585 378 585 378 455 c 2,12,-1
 378 69 l 2,13,14
 378 57 378 57 386.5 47.5 c 128,-1,15
 395 38 395 38 410 38 c 0,16,17
 424 38 424 38 433 47.5 c 128,-1,18
 442 57 442 57 442 68 c 2,19,-1
 442 521 l 1,20,-1
 495 584 l 2,21,22
 503 594 503 594 523 594 c 0,23,24
 545 594 545 594 545 553 c 2,25,-1
 545 118 l 2,26,27
 545 62 545 62 509.5 27 c 128,-1,28
 474 -8 474 -8 410 -8 c 0,29,30
 351 -8 351 -8 312 29.5 c 128,-1,31
 273 67 273 67 273 118 c 2,32,-1
 273 485 l 2,33,34
 273 520 273 520 250 525 c 1,35,-1
 186 459 l 1,36,-1
 112 536 l 1,37,38
 62 501 62 501 62 430 c 0,39,40
 62 414 62 414 65 395 c 1,41,42
 85 427 85 427 131 427 c 0,43,44
 173 426 173 426 196.5 400.5 c 128,-1,45
 220 375 220 375 220 340 c 128,-1,46
 220 305 220 305 196.5 280 c 128,-1,47
 173 255 173 255 131 255 c 0,0,1
131 292 m 128,-1,49
 154 292 154 292 167 306.5 c 128,-1,50
 180 321 180 321 180 341 c 128,-1,51
 180 361 180 361 167 375.5 c 128,-1,52
 154 390 154 390 131 390 c 128,-1,53
 108 390 108 390 95 375.5 c 128,-1,54
 82 361 82 361 82 341 c 128,-1,55
 82 321 82 321 95 306.5 c 128,-1,48
 108 292 108 292 131 292 c 128,-1,49
EndSplineSet
EndChar

StartChar: uni0E04
Encoding: 3588 3588 132
Width: 589
Flags: W
HStem: 0 21G<89 192 399 501> 249 44<216.068 302.184> 398 46<216.153 302.737> 547 52<154.128 334.333>
VStem: 25 49<341.755 474.391> 89 103<0 265.235> 312 48<301.689 389.404> 399 102<0 480.74>
LayerCount: 3
Fore
SplineSet
501 0 m 1
 399 0 l 1
 399 389 l 2
 399 484 350 547 249 547 c 0
 141 547 74 482 74 401 c 0
 74 361 101 333 114 319 c 1
 117 319 l 1
 135 387 167 444 258 444 c 0
 326 444 360 394 360 345 c 0
 360 297 327 249 260 249 c 0
 235 249 212 258 200 267 c 1
 194 257 192 233 192 206 c 2
 192 0 l 1
 89 0 l 1
 89 233 l 2
 89 275 25 304 25 401 c 0
 25 525 123 599 247 599 c 0
 386 599 501 550 501 404 c 2
 501 0 l 1
260 293 m 0
 295 293 312 319 312 346 c 0
 312 372 295 398 260 398 c 0
 224 398 207 372 207 346 c 0
 207 319 224 293 260 293 c 0
EndSplineSet
Validated: 1
Layer: 2
SplineSet
501 0 m 1,0,-1
 399 0 l 1,1,-1
 399 389 l 2,2,3
 399 462 399 462 361 504.5 c 128,-1,4
 323 547 323 547 249 547 c 0,5,6
 170 547 170 547 122 505 c 128,-1,7
 74 463 74 463 74 401 c 0,8,9
 74 362 74 362 114 319 c 1,10,-1
 117 319 l 1,11,12
 133 378 133 378 164 411 c 128,-1,13
 195 444 195 444 258 444 c 0,14,15
 306 444 306 444 333 414.5 c 128,-1,16
 360 385 360 385 360 345 c 0,17,18
 360 306 360 306 333.5 277.5 c 128,-1,19
 307 249 307 249 260 249 c 0,20,21
 224 249 224 249 200 267 c 1,22,23
 192 254 192 254 192 206 c 2,24,-1
 192 0 l 1,25,-1
 89 0 l 1,26,-1
 89 233 l 2,27,28
 89 249 89 249 73 271 c 128,-1,29
 57 293 57 293 41 326 c 128,-1,30
 25 359 25 359 25 401 c 0,31,32
 25 492 25 492 88 545.5 c 128,-1,33
 151 599 151 599 247 599 c 0,34,35
 361 599 361 599 431 553 c 128,-1,36
 501 507 501 507 501 404 c 2,37,-1
 501 0 l 1,0,-1
260 293 m 128,-1,39
 285 293 285 293 298.5 308.5 c 128,-1,40
 312 324 312 324 312 346 c 0,41,42
 312 367 312 367 298.5 382.5 c 128,-1,43
 285 398 285 398 260 398 c 128,-1,44
 235 398 235 398 221 382.5 c 128,-1,45
 207 367 207 367 207 346 c 0,46,47
 207 324 207 324 221 308.5 c 128,-1,38
 235 293 235 293 260 293 c 128,-1,39
EndSplineSet
EndChar

StartChar: uni0E05
Encoding: 3589 3589 133
Width: 591
Flags: W
HStem: 0 21G<89 192 398 499> 218 45<217.388 304.177> 367 46<217.654 304.727> 578 20G<143 195.558 318.6 371.5>
VStem: 25 49<331.922 473.082> 89 103<0 235.634> 314 46<272.186 357.352> 398 101<0 494.916>
DStem2: 174 598 169 535 0.756823 -0.65362<27.0832 113.145> 257 521 257 459 0.760462 0.649383<0 82.228>
LayerCount: 3
Fore
SplineSet
499 0 m 1
 398 0 l 1
 398 404 l 2
 398 456 396 507 346 535 c 1
 257 459 l 1
 169 535 l 1
 135 527 74 475 74 401 c 0
 74 362 95 327 123 295 c 1
 126 295 l 1
 143 346 170 413 258 413 c 0
 326 413 360 363 360 314 c 0
 360 266 327 218 260 218 c 0
 235 218 215 223 200 237 c 1
 194 226 192 197 192 186 c 2
 192 0 l 1
 89 0 l 1
 89 229 l 2
 89 264 25 304 25 401 c 0
 25 525 112 576 174 598 c 1
 257 521 l 1
 341 596 l 1
 402 581 499 548 499 387 c 2
 499 0 l 1
261 263 m 0
 296 263 314 289 314 315 c 0
 314 341 296 367 261 367 c 0
 226 367 208 341 208 315 c 0
 208 289 226 263 261 263 c 0
EndSplineSet
Validated: 1
Layer: 2
SplineSet
499 0 m 1,0,-1
 398 0 l 1,1,-1
 398 404 l 2,2,3
 398 428 398 428 397 443 c 128,-1,4
 396 458 396 458 391 477.5 c 128,-1,5
 386 497 386 497 375 511 c 128,-1,6
 364 525 364 525 346 535 c 1,7,-1
 257 459 l 1,8,-1
 169 535 l 1,9,10
 138 528 138 528 106 489.5 c 128,-1,11
 74 451 74 451 74 401 c 128,-1,12
 74 351 74 351 123 295 c 1,13,-1
 126 295 l 1,14,15
 134 319 134 319 142 335.5 c 128,-1,16
 150 352 150 352 165 372 c 128,-1,17
 180 392 180 392 203.5 402.5 c 128,-1,18
 227 413 227 413 258 413 c 0,19,20
 306 413 306 413 333 383.5 c 128,-1,21
 360 354 360 354 360 314 c 0,22,23
 360 275 360 275 333.5 246.5 c 128,-1,24
 307 218 307 218 260 218 c 0,25,26
 220 218 220 218 200 237 c 1,27,28
 192 222 192 222 192 186 c 2,29,-1
 192 0 l 1,30,-1
 89 0 l 1,31,-1
 89 229 l 2,32,33
 89 242 89 242 73 265 c 128,-1,34
 57 288 57 288 41 323.5 c 128,-1,35
 25 359 25 359 25 401 c 0,36,37
 25 545 25 545 174 598 c 1,38,-1
 257 521 l 1,39,-1
 341 596 l 1,40,41
 371 589 371 589 392.5 579 c 128,-1,42
 414 569 414 569 441.5 547 c 128,-1,43
 469 525 469 525 484 484.5 c 128,-1,44
 499 444 499 444 499 387 c 2,45,-1
 499 0 l 1,0,-1
261 263 m 128,-1,47
 286 263 286 263 300 278.5 c 128,-1,48
 314 294 314 294 314 315 c 128,-1,49
 314 336 314 336 300 351.5 c 128,-1,50
 286 367 286 367 261 367 c 128,-1,51
 236 367 236 367 222 351.5 c 128,-1,52
 208 336 208 336 208 315 c 128,-1,53
 208 294 208 294 222 278.5 c 128,-1,46
 236 263 236 263 261 263 c 128,-1,47
EndSplineSet
EndChar

StartChar: uni0E06
Encoding: 3590 3590 134
Width: 757
Flags: W
HStem: -8 66<225.687 325> 0 21G<544.5 662> 163 51<379 432.387> 174 49<236.158 273> 255 37<92.4849 169.924> 390 37<92.1504 169.924> 579 20G<76 135.649 237.811 305 635 646>
VStem: 15 47<395.981 507.254> 171 49<62.464 158.626> 180 40<300.732 381.307> 273 105<58.6504 163 219.269 523.898> 561 101<120 520>
LayerCount: 3
Fore
SplineSet
662 0 m 9x6f70
 576 0 l 17
 513 120 415 152 379 163 c 1x6f70
 379 139 l 2
 379 62 367 -8 283 -8 c 0
 207 -8 171 47 171 104 c 0
 171 160 206 217 273 223 c 1x9fb0
 273 485 l 2
 273 505 267 521 250 525 c 1
 186 459 l 1
 112 536 l 1
 86 518 62 488 62 430 c 0
 62 419 63 408 65 395 c 1
 81 421 112 427 131 427 c 0
 190 426 220 383 220 340 c 0
 220 297 190 255 131 255 c 0
 40 255 15 346 15 427 c 0
 15 480 35 559 117 599 c 1
 186 525 l 1
 257 599 l 1
 353 588 378 521 378 455 c 2
 378 214 l 1
 409 206 496 183 561 120 c 1
 561 520 l 1
 613 583 l 2
 618 588 630 594 640 594 c 0
 652 594 662 586 662 558 c 2
 662 0 l 9x6f70
273 80 m 2
 273 174 l 1
 238 170 220 136 220 106 c 0
 220 81 233 58 261 58 c 0x9fb0
 269 58 273 66 273 80 c 2
131 292 m 0
 164 292 180 316 180 341 c 0x0f70
 180 366 164 390 131 390 c 0
 98 390 82 366 82 341 c 0
 82 316 98 292 131 292 c 0
EndSplineSet
Validated: 1
Layer: 2
SplineSet
662 0 m 9,0,-1
 576 0 l 1,1,2
 512 122 512 122 379 163 c 1,3,-1
 379 139 l 2,4,5
 379 70 379 70 359.5 31 c 128,-1,6
 340 -8 340 -8 283 -8 c 0,7,8
 229 -8 229 -8 200 25 c 128,-1,9
 171 58 171 58 171 104 c 0,10,11
 171 149 171 149 198 184 c 128,-1,12
 225 219 225 219 273 223 c 1,13,-1
 273 485 l 2,14,15
 273 520 273 520 250 525 c 1,16,-1
 186 459 l 1,17,-1
 112 536 l 1,18,19
 62 501 62 501 62 430 c 0,20,21
 62 414 62 414 65 395 c 1,22,23
 85 427 85 427 131 427 c 0,24,25
 173 426 173 426 196.5 400.5 c 128,-1,26
 220 375 220 375 220 340 c 128,-1,27
 220 305 220 305 196.5 280 c 128,-1,28
 173 255 173 255 131 255 c 0,29,30
 69 255 69 255 42 305 c 128,-1,31
 15 355 15 355 15 427 c 0,32,33
 15 476 15 476 38.5 524 c 128,-1,34
 62 572 62 572 117 599 c 1,35,-1
 186 525 l 1,36,-1
 257 599 l 1,37,38
 378 585 378 585 378 455 c 2,39,-1
 378 214 l 1,40,41
 495 184 495 184 561 120 c 1,42,-1
 561 520 l 1,43,-1
 613 583 l 2,44,45
 624 594 624 594 640 594 c 0,46,47
 662 594 662 594 662 558 c 2,48,-1
 662 0 l 9,0,-1
273 80 m 2,49,-1
 273 174 l 1,50,51
 248 171 248 171 234 151 c 128,-1,52
 220 131 220 131 220 106 c 0,53,54
 220 86 220 86 230.5 72 c 128,-1,55
 241 58 241 58 261 58 c 0,56,57
 273 58 273 58 273 80 c 2,49,-1
131 292 m 128,-1,59
 154 292 154 292 167 306.5 c 128,-1,60
 180 321 180 321 180 341 c 128,-1,61
 180 361 180 361 167 375.5 c 128,-1,62
 154 390 154 390 131 390 c 128,-1,63
 108 390 108 390 95 375.5 c 128,-1,64
 82 361 82 361 82 341 c 128,-1,65
 82 321 82 321 95 306.5 c 128,-1,58
 108 292 108 292 131 292 c 128,-1,59
EndSplineSet
EndChar

StartChar: uni0E07
Encoding: 3591 3591 135
Width: 479
Flags: W
HStem: 0 21G<272.77 390> 399 46<209.243 285.341> 549 49<209.351 295.533>
VStem: 157 43<455.187 539.424> 286 104<117 403> 306 84<453.867 540.133>
LayerCount: 3
Fore
SplineSet
390 0 m 1xf4
 290 0 l 1
 35 296 l 1
 37 353 l 1
 286 117 l 1
 286 403 l 1xf8
 276 400 266 399 257 399 c 0
 191 399 157 449 157 499 c 0
 157 548 191 598 264 598 c 0
 383 598 390 517 390 488 c 2
 390 0 l 1xf4
253 445 m 0
 288 445 306 471 306 497 c 0xf4
 306 523 288 549 253 549 c 0
 218 549 200 523 200 497 c 0
 200 471 218 445 253 445 c 0
EndSplineSet
Validated: 1
Layer: 2
SplineSet
390 0 m 1,0,-1
 290 0 l 1,1,-1
 35 296 l 1,2,-1
 37 353 l 1,3,-1
 286 117 l 1,4,-1
 286 403 l 1,5,6
 273 399 273 399 257 399 c 0,7,8
 210 399 210 399 183.5 429 c 128,-1,9
 157 459 157 459 157 499 c 128,-1,10
 157 539 157 539 185 568.5 c 128,-1,11
 213 598 213 598 264 598 c 0,12,13
 306 598 306 598 333.5 585.5 c 128,-1,14
 361 573 361 573 372 553 c 128,-1,15
 383 533 383 533 386.5 518.5 c 128,-1,16
 390 504 390 504 390 488 c 2,17,-1
 390 0 l 1,0,-1
253 445 m 128,-1,19
 278 445 278 445 292 460.5 c 128,-1,20
 306 476 306 476 306 497 c 128,-1,21
 306 518 306 518 292 533.5 c 128,-1,22
 278 549 278 549 253 549 c 128,-1,23
 228 549 228 549 214 533.5 c 128,-1,24
 200 518 200 518 200 497 c 128,-1,25
 200 476 200 476 214 460.5 c 128,-1,18
 228 445 228 445 253 445 c 128,-1,19
EndSplineSet
EndChar

StartChar: uni0E08
Encoding: 3592 3592 136
Width: 565
Flags: W
HStem: -5 50<307.774 368.948> 237 44<133.462 202.55> 386 46<133.414 219.844> 540 57<150.741 313.232>
VStem: 80 44<290.869 376.582> 203 103<54.375 240> 230 76<289.913 375.281> 370 105<49.4922 485.571>
LayerCount: 3
Fore
SplineSet
80 333 m 0xfd
 80 393 124 432 184 432 c 0
 276 432 306 381 306 327 c 2xfb
 306 75 l 2
 306 60 318 45 338 45 c 0
 359 45 370 60 370 74 c 2
 370 415 l 2
 370 498 306 540 235 540 c 0
 169 540 95 503 61 430 c 1
 23 450 l 1
 71 553 165 597 255 597 c 0
 368 597 475 527 475 413 c 2
 475 121 l 2
 475 49 425 -5 338 -5 c 0
 266 -5 203 54 203 121 c 2
 203 240 l 1
 195 238 187 237 178 237 c 0
 119 237 80 281 80 333 c 0xfd
177 281 m 0
 212 281 230 307 230 334 c 0
 230 360 212 386 177 386 c 0
 142 386 124 360 124 334 c 0
 124 307 142 281 177 281 c 0
EndSplineSet
Validated: 1
Layer: 2
SplineSet
80 333 m 0,0,1
 80 377 80 377 109 404.5 c 128,-1,2
 138 432 138 432 184 432 c 0,3,4
 248 432 248 432 277 402.5 c 128,-1,5
 306 373 306 373 306 327 c 2,6,-1
 306 75 l 2,7,8
 306 63 306 63 315 54 c 128,-1,9
 324 45 324 45 338 45 c 0,10,11
 353 45 353 45 361.5 54 c 128,-1,12
 370 63 370 63 370 74 c 2,13,-1
 370 415 l 2,14,15
 370 474 370 474 331 507 c 128,-1,16
 292 540 292 540 235 540 c 0,17,18
 183 540 183 540 134 511 c 128,-1,19
 85 482 85 482 61 430 c 1,20,-1
 23 450 l 1,21,22
 57 523 57 523 120 560 c 128,-1,23
 183 597 183 597 255 597 c 0,24,25
 344 597 344 597 409.5 546 c 128,-1,26
 475 495 475 495 475 413 c 2,27,-1
 475 121 l 2,28,29
 475 66 475 66 438.5 30.5 c 128,-1,30
 402 -5 402 -5 338 -5 c 0,31,32
 284 -5 284 -5 243.5 33 c 128,-1,33
 203 71 203 71 203 121 c 2,34,-1
 203 240 l 1,35,36
 191 237 191 237 178 237 c 0,37,38
 135 237 135 237 107.5 265 c 128,-1,39
 80 293 80 293 80 333 c 0,0,1
177 281 m 128,-1,41
 202 281 202 281 216 296.5 c 128,-1,42
 230 312 230 312 230 334 c 0,43,44
 230 355 230 355 216 370.5 c 128,-1,45
 202 386 202 386 177 386 c 128,-1,46
 152 386 152 386 138 370.5 c 128,-1,47
 124 355 124 355 124 334 c 0,48,49
 124 312 124 312 138 296.5 c 128,-1,40
 152 281 152 281 177 281 c 128,-1,41
EndSplineSet
EndChar

StartChar: uni0E09
Encoding: 3593 3593 137
Width: 615
Flags: W
HStem: -8 43<426.053 510.973> 0 21G<164 249.5> 195 45<94.2121 163.66> 344 46<94.0182 180> 542 57<171.726 354.643>
VStem: 41 43<250.073 333.699> 164 83<0 39.375> 190 76<248.867 333.606> 370 46<44.0741 119.715> 419 103<184.007 486.194> 419 88<180.493 433.875> 521 49<44.7356 130.486>
LayerCount: 3
Fore
SplineSet
41 294 m 0x7eb0
 41 341 76 390 144 390 c 0
 237 390 266 339 266 286 c 2
 266 154 l 2
 266 131 261 109 261 109 c 1
 280 131 329 175 419 183 c 1x7da0
 419 421 l 2
 419 499 347 542 266 542 c 0
 193 542 112 506 74 430 c 1
 35 450 l 1
 80 552 186 599 287 599 c 0
 407 599 522 532 522 412 c 2
 522 226 l 2x7dc0
 522 194 507 184 507 184 c 1
 507 181 l 1
 548 169 570 130 570 90 c 0
 570 41 537 -8 467 -8 c 0xbcb0
 408 -8 370 38 370 84 c 0
 370 96 373 109 378 120 c 1
 295 92 252 20 247 0 c 1
 164 0 l 1
 164 198 l 1
 157 197 147 195 138 195 c 0
 77 195 41 243 41 294 c 0x7eb0
137 240 m 0
 172 240 190 266 190 292 c 0
 190 318 172 344 137 344 c 0
 102 344 84 318 84 292 c 0
 84 266 102 240 137 240 c 0
468 35 m 0xbc90
 504 35 521 61 521 88 c 0
 521 114 504 140 468 140 c 0
 433 140 416 114 416 88 c 0
 416 61 433 35 468 35 c 0xbc90
EndSplineSet
Validated: 1
Layer: 2
SplineSet
41 294 m 0,0,1
 41 332 41 332 68.5 361 c 128,-1,2
 96 390 96 390 144 390 c 0,3,4
 209 390 209 390 237.5 360.5 c 128,-1,5
 266 331 266 331 266 286 c 2,6,-1
 266 154 l 1,7,-1
 261 109 l 1,8,9
 317 174 317 174 419 183 c 1,10,-1
 419 421 l 2,11,12
 419 477 419 477 374.5 509.5 c 128,-1,13
 330 542 330 542 266 542 c 0,14,15
 208 542 208 542 154.5 513 c 128,-1,16
 101 484 101 484 74 430 c 1,17,-1
 35 450 l 1,18,19
 67 523 67 523 136.5 561 c 128,-1,20
 206 599 206 599 287 599 c 0,21,22
 383 599 383 599 452.5 548.5 c 128,-1,23
 522 498 522 498 522 412 c 2,24,-1
 522 226 l 2,25,26
 522 212 522 212 518 201.5 c 128,-1,27
 514 191 514 191 510.5 187.5 c 2,28,-1
 507 184 l 1,29,-1
 507 181 l 1,30,31
 537 172 537 172 553.5 146.5 c 128,-1,32
 570 121 570 121 570 90 c 0,33,34
 570 50 570 50 543 21 c 128,-1,35
 516 -8 516 -8 467 -8 c 0,36,37
 424 -8 424 -8 397 20 c 128,-1,38
 370 48 370 48 370 84 c 0,39,40
 370 102 370 102 378 120 c 1,41,42
 324 102 324 102 288.5 62.5 c 128,-1,43
 253 23 253 23 247 0 c 1,44,-1
 164 0 l 1,45,-1
 164 198 l 1,46,47
 143 195 143 195 138 195 c 0,48,49
 94 195 94 195 67.5 224.5 c 128,-1,50
 41 254 41 254 41 294 c 0,0,1
137 240 m 128,-1,52
 162 240 162 240 176 255.5 c 128,-1,53
 190 271 190 271 190 292 c 128,-1,54
 190 313 190 313 176 328.5 c 128,-1,55
 162 344 162 344 137 344 c 128,-1,56
 112 344 112 344 98 328.5 c 128,-1,57
 84 313 84 313 84 292 c 128,-1,58
 84 271 84 271 98 255.5 c 128,-1,51
 112 240 112 240 137 240 c 128,-1,52
468 35 m 128,-1,60
 493 35 493 35 507 50.5 c 128,-1,61
 521 66 521 66 521 88 c 0,62,63
 521 109 521 109 507 124.5 c 128,-1,64
 493 140 493 140 468 140 c 128,-1,65
 443 140 443 140 429.5 124.5 c 128,-1,66
 416 109 416 109 416 88 c 0,67,68
 416 66 416 66 429.5 50.5 c 128,-1,59
 443 35 443 35 468 35 c 128,-1,60
EndSplineSet
EndChar

StartChar: uni0E0A
Encoding: 3594 3594 138
Width: 583
Flags: W
HStem: 0 45<157 224 326 387.316> 298 35<82.5912 158.706> 432 35<83.0061 159.269> 541 57<89.1163 201.78>
VStem: 14 47<436 510.858> 170 37<343.504 421.951> 224 102<45 393 445 518.713> 416 103<95.1993 335.616> 439 114<517.256 594>
LayerCount: 3
Fore
SplineSet
14 439 m 0xff
 14 526 69 598 170 598 c 0
 270 598 327 524 327 445 c 1
 402 449 438 531 439 594 c 1
 553 594 l 17xfe80
 538 476 473 435 409 418 c 1
 478 415 519 316 519 215 c 0
 519 108 474 0 369 0 c 2
 157 0 l 1
 157 45 l 1
 224 45 l 1
 224 470 l 2
 224 514 185 541 146 541 c 0
 112 541 61 522 61 436 c 1
 77 461 100 467 121 467 c 0
 175 467 207 430 207 384 c 0
 207 339 177 298 121 298 c 0
 44 298 14 372 14 439 c 0xff
366 386 m 1
 355 392 336 393 326 393 c 1
 326 45 l 1
 355 45 l 2
 396 45 416 124 416 206 c 0xff
 416 283 399 363 366 386 c 1
121 333 m 0
 154 333 170 358 170 382 c 0
 170 407 154 432 121 432 c 0
 88 432 72 407 72 382 c 0
 72 358 88 333 121 333 c 0
EndSplineSet
Validated: 1
Layer: 2
SplineSet
14 439 m 0,0,1
 14 507 14 507 55.5 552.5 c 128,-1,2
 97 598 97 598 170 598 c 0,3,4
 242 598 242 598 284.5 553 c 128,-1,5
 327 508 327 508 327 445 c 1,6,7
 379 448 379 448 408.5 494 c 128,-1,8
 438 540 438 540 439 594 c 1,9,-1
 553 594 l 1,10,11
 535 451 535 451 409 418 c 1,12,13
 459 416 459 416 489 355.5 c 128,-1,14
 519 295 519 295 519 215 c 0,15,16
 519 126 519 126 481 63 c 128,-1,17
 443 0 443 0 369 0 c 2,18,-1
 157 0 l 1,19,-1
 157 45 l 1,20,-1
 224 45 l 1,21,-1
 224 470 l 2,22,23
 224 502 224 502 200.5 521.5 c 128,-1,24
 177 541 177 541 146 541 c 0,25,26
 113 541 113 541 87 517.5 c 128,-1,27
 61 494 61 494 61 436 c 1,28,29
 81 467 81 467 121 467 c 0,30,31
 160 467 160 467 183.5 443.5 c 128,-1,32
 207 420 207 420 207 384 c 128,-1,33
 207 348 207 348 184 323 c 128,-1,34
 161 298 161 298 121 298 c 0,35,36
 68 298 68 298 41 340 c 128,-1,37
 14 382 14 382 14 439 c 0,0,1
366 386 m 1,38,39
 353 393 353 393 326 393 c 1,40,-1
 326 45 l 1,41,-1
 355 45 l 2,42,43
 384 45 384 45 400 92.5 c 128,-1,44
 416 140 416 140 416 206 c 0,45,46
 416 267 416 267 403 318.5 c 128,-1,47
 390 370 390 370 366 386 c 1,38,39
121 333 m 128,-1,49
 144 333 144 333 157 347.5 c 128,-1,50
 170 362 170 362 170 382 c 128,-1,51
 170 402 170 402 157 417 c 128,-1,52
 144 432 144 432 121 432 c 128,-1,53
 98 432 98 432 85 417 c 128,-1,54
 72 402 72 402 72 382 c 128,-1,55
 72 362 72 362 85 347.5 c 128,-1,48
 98 333 98 333 121 333 c 128,-1,49
EndSplineSet
EndChar

StartChar: uni0E0B
Encoding: 3595 3595 139
Width: 649
Flags: W
HStem: 0 45<210 273 378 439.316> 255 37<92.4849 169.924> 390 37<92.1504 169.924> 393 57<378 431.927> 574 20G<76 135.649 237.811 306 491 605>
VStem: 15 47<395.981 508.33> 180 40<300.732 381.307> 273 105<45 393 450 522.141> 468 103<96.838 335.616> 492 113<515.826 594>
LayerCount: 3
Fore
SplineSet
605 594 m 17xdf40
 590 476 525 435 461 418 c 1
 531 415 571 316 571 215 c 0
 571 109 526 0 421 0 c 2
 210 0 l 1
 210 45 l 1
 273 45 l 1
 273 485 l 2
 273 505 267 521 250 525 c 1
 186 459 l 1
 112 536 l 1
 86 518 62 488 62 430 c 0
 62 419 63 408 65 395 c 1
 81 421 112 427 131 427 c 0
 190 426 220 383 220 340 c 0
 220 297 190 255 131 255 c 0
 40 255 15 346 15 427 c 0xef80
 15 478 35 559 117 599 c 1
 186 525 l 1
 257 599 l 1
 355 588 378 520 378 450 c 1
 458 453 490 531 492 594 c 1
 605 594 l 17xdf40
418 386 m 1
 407 392 389 393 378 393 c 1xdf80
 378 45 l 1
 407 45 l 2
 448 45 468 124 468 206 c 0
 468 283 451 363 418 386 c 1
131 292 m 0
 164 292 180 316 180 341 c 0
 180 366 164 390 131 390 c 0xef
 98 390 82 366 82 341 c 0
 82 316 98 292 131 292 c 0
EndSplineSet
Validated: 1
Layer: 2
SplineSet
605 594 m 17,0,1
 587 451 587 451 461 418 c 1,2,3
 511 416 511 416 541 355.5 c 128,-1,4
 571 295 571 295 571 215 c 0,5,6
 571 127 571 127 533 63.5 c 128,-1,7
 495 0 495 0 421 0 c 2,8,-1
 210 0 l 1,9,-1
 210 45 l 1,10,-1
 273 45 l 1,11,-1
 273 485 l 2,12,13
 273 520 273 520 250 525 c 1,14,-1
 186 459 l 1,15,-1
 112 536 l 1,16,17
 62 501 62 501 62 430 c 0,18,19
 62 414 62 414 65 395 c 1,20,21
 85 427 85 427 131 427 c 0,22,23
 173 426 173 426 196.5 400.5 c 128,-1,24
 220 375 220 375 220 340 c 128,-1,25
 220 305 220 305 196.5 280 c 128,-1,26
 173 255 173 255 131 255 c 0,27,28
 69 255 69 255 42 305 c 128,-1,29
 15 355 15 355 15 427 c 0,30,31
 15 475 15 475 38.5 523.5 c 128,-1,32
 62 572 62 572 117 599 c 1,33,-1
 186 525 l 1,34,-1
 257 599 l 1,35,36
 378 585 378 585 378 450 c 1,37,38
 433 452 433 452 461.5 495.5 c 128,-1,39
 490 539 490 539 492 594 c 1,40,-1
 605 594 l 17,0,1
418 386 m 1,41,42
 405 393 405 393 378 393 c 1,43,-1
 378 45 l 1,44,-1
 407 45 l 2,45,46
 436 45 436 45 452 92.5 c 128,-1,47
 468 140 468 140 468 206 c 0,48,49
 468 267 468 267 455 318.5 c 128,-1,50
 442 370 442 370 418 386 c 1,41,42
131 292 m 128,-1,52
 154 292 154 292 167 306.5 c 128,-1,53
 180 321 180 321 180 341 c 128,-1,54
 180 361 180 361 167 375.5 c 128,-1,55
 154 390 154 390 131 390 c 128,-1,56
 108 390 108 390 95 375.5 c 128,-1,57
 82 361 82 361 82 341 c 128,-1,58
 82 321 82 321 95 306.5 c 128,-1,51
 108 292 108 292 131 292 c 128,-1,52
EndSplineSet
EndChar

StartChar: uni0E0C
Encoding: 3596 3596 140
Width: 800
Flags: W
HStem: -8 61<371.881 461> -6 43<148.001 233.886> 141 42<186.771 231.837 511 551.858> 144 46<377.769 410> 378 44<89 117 191.732 276> 543 56<179.632 342.851>
VStem: 83 103<183 370.537> 83 55<45.9826 132.133> 243 46<46.2247 131.334> 321 48<54.3025 136.068> 410 101<53.2793 135 186.809 479.428> 619 103<132 521> 639 83<0 61.8589>
LayerCount: 3
Fore
SplineSet
369 91 m 0x9ce0
 369 69 379 53 394 53 c 0
 403 53 412 58 412 71 c 2
 412 144 l 1
 385 142 369 116 369 91 c 0x9ce0
186 183 m 1x2ee8
 196 183 l 2
 257 183 289 135 289 87 c 0
 289 40 259 -6 194 -6 c 0
 100 -6 83 77 83 121 c 2x6de0
 83 315 l 2
 83 336 97 373 117 378 c 1
 34 378 l 1
 39 522 165 599 287 599 c 0
 397 599 504 535 511 402 c 1
 511 184 l 1
 530 180 587 167 619 132 c 1
 619 521 l 1x6ef0
 671 584 l 2
 675 589 690 594 700 594 c 0
 712 594 722 585 722 553 c 2
 722 0 l 1
 639 0 l 1
 634 78 556 129 511 135 c 1
 511 52 504 -8 418 -8 c 0
 352 -8 321 40 321 89 c 0
 321 138 351 187 410 190 c 1x9ce8
 410 404 l 2
 410 496 335 543 257 543 c 0
 186 543 112 504 89 422 c 1
 276 422 l 1
 276 378 l 1
 226 378 l 2
 198 378 186 355 186 326 c 2
 186 183 l 1x2ee8
190 37 m 0
 226 37 243 63 243 89 c 0
 243 115 226 141 190 141 c 0
 155 141 138 115 138 89 c 0
 138 63 155 37 190 37 c 0
EndSplineSet
Validated: 1
Layer: 2
SplineSet
369 91 m 0,0,1
 369 74 369 74 376 63.5 c 128,-1,2
 383 53 383 53 394 53 c 0,3,4
 412 53 412 53 412 71 c 2,5,-1
 412 144 l 1,6,7
 393 143 393 143 381 127 c 128,-1,8
 369 111 369 111 369 91 c 0,0,1
186 183 m 1,9,-1
 196 183 l 2,10,11
 239 183 239 183 264 154.5 c 128,-1,12
 289 126 289 126 289 87 c 0,13,14
 289 49 289 49 264.5 21.5 c 128,-1,15
 240 -6 240 -6 194 -6 c 0,16,17
 161 -6 161 -6 137.5 7 c 128,-1,18
 114 20 114 20 103 41.5 c 128,-1,19
 92 63 92 63 87.5 82 c 128,-1,20
 83 101 83 101 83 121 c 2,21,-1
 83 315 l 2,22,23
 83 333 83 333 93 354 c 128,-1,24
 103 375 103 375 117 378 c 2,25,-1
 34 378 l 1,26,27
 38 480 38 480 113 539.5 c 128,-1,28
 188 599 188 599 287 599 c 0,29,30
 376 599 376 599 441 547.5 c 128,-1,31
 506 496 506 496 511 402 c 1,32,-1
 511 184 l 1,33,34
 586 168 586 168 619 132 c 1,35,-1
 619 521 l 1,36,-1
 671 584 l 2,37,38
 679 594 679 594 700 594 c 0,39,40
 722 594 722 594 722 553 c 2,41,-1
 722 0 l 1,42,-1
 639 0 l 1,43,44
 636 53 636 53 593.5 91.5 c 128,-1,45
 551 130 551 130 511 135 c 1,46,47
 511 99 511 99 508.5 77 c 128,-1,48
 506 55 506 55 497 33.5 c 128,-1,49
 488 12 488 12 468.5 2 c 128,-1,50
 449 -8 449 -8 418 -8 c 0,51,52
 371 -8 371 -8 346 20.5 c 128,-1,53
 321 49 321 49 321 89 c 128,-1,54
 321 129 321 129 344.5 158.5 c 128,-1,55
 368 188 368 188 410 190 c 1,56,-1
 410 404 l 2,57,58
 410 469 410 469 365 506 c 128,-1,59
 320 543 320 543 257 543 c 0,60,61
 200 543 200 543 152.5 511.5 c 128,-1,62
 105 480 105 480 89 422 c 1,63,-1
 276 422 l 1,64,-1
 276 378 l 1,65,-1
 226 378 l 2,66,67
 186 378 186 378 186 326 c 2,68,-1
 186 183 l 1,9,-1
190 37 m 128,-1,70
 215 37 215 37 229 52.5 c 128,-1,71
 243 68 243 68 243 89 c 128,-1,72
 243 110 243 110 229 125.5 c 128,-1,73
 215 141 215 141 190 141 c 128,-1,74
 165 141 165 141 151.5 125.5 c 128,-1,75
 138 110 138 110 138 89 c 128,-1,76
 138 68 138 68 151.5 52.5 c 128,-1,69
 165 37 165 37 190 37 c 128,-1,70
EndSplineSet
EndChar

StartChar: uni0E0D
Encoding: 3597 3597 141
Width: 800
Flags: W
HStem: -248 51<475.878 581.513> -178 26<475 503.646> -62 31<437.425 507.12> -5 43<169.637 254.95 499.573 586.538> 143 44<186.302 255.423> 378 44<88 117 191.732 276> 545 53<170.09 316.051>
VStem: 83 103<183 370.537> 83 76<48.4731 134.087> 265 45<47.6273 133.858> 379 103<59.5854 482.54> 382 45<-144.807 -68.4615> 518 30<-139.995 -73.4797> 604 103<60.5729 519> 611 96<-168.523 -43>
LayerCount: 3
Fore
SplineSet
310 93 m 0xff6c
 310 34 266 -5 205 -5 c 0
 105 -5 83 81 83 124 c 2xfec8
 83 315 l 2
 83 336 97 373 117 378 c 1
 34 378 l 1
 39 522 157 598 271 598 c 0
 379 598 482 524 482 401 c 2
 482 101 l 2
 482 68 507 41 542 41 c 0
 579 41 604 66 604 100 c 2
 604 519 l 1xff6c
 656 582 l 2
 662 589 675 592 684 592 c 0
 697 592 707 583 707 551 c 2xfe4a
 707 117 l 2
 707 61 639 -8 542 -8 c 0
 449 -8 379 54 379 124 c 2
 379 401 l 2
 379 496 312 545 242 545 c 0
 178 545 112 505 88 422 c 1
 276 422 l 1
 276 378 l 1
 226 378 l 2
 198 378 186 355 186 326 c 2
 186 183 l 1
 197 186 208 187 217 187 c 0
 278 187 310 140 310 93 c 0xff6c
212 38 m 0
 248 38 265 64 265 90 c 0
 265 117 248 143 212 143 c 0
 176 143 159 117 159 90 c 0
 159 64 176 38 212 38 c 0
707 -109 m 2xfe5a
 707 -199 621 -248 537 -248 c 0
 458 -248 382 -204 382 -112 c 0
 382 -83 404 -31 470 -31 c 0
 524 -31 548 -69 548 -111 c 0
 548 -144 521 -178 484 -178 c 0
 481 -178 478 -177 475 -177 c 1
 475 -181 l 1
 490 -192 508 -197 525 -197 c 0
 569 -197 611 -164 611 -114 c 2
 611 -43 l 1
 707 -43 l 1
 707 -109 l 2xfe5a
518 -106 m 0
 518 -77 495 -62 472 -62 c 0
 450 -62 427 -77 427 -106 c 0
 427 -136 450 -152 472 -152 c 0
 495 -152 518 -136 518 -106 c 0
EndSplineSet
Validated: 1
Layer: 2
SplineSet
310 93 m 0,0,1
 310 49 310 49 280.5 22 c 128,-1,2
 251 -5 251 -5 205 -5 c 128,-1,3
 159 -5 159 -5 129.5 19.5 c 128,-1,4
 100 44 100 44 91.5 70.5 c 128,-1,5
 83 97 83 97 83 124 c 2,6,-1
 83 315 l 2,7,8
 83 333 83 333 93 354 c 128,-1,9
 103 375 103 375 117 378 c 2,10,-1
 34 378 l 1,11,12
 38 480 38 480 108.5 539 c 128,-1,13
 179 598 179 598 271 598 c 0,14,15
 356 598 356 598 419 544 c 128,-1,16
 482 490 482 490 482 401 c 2,17,-1
 482 101 l 2,18,19
 482 76 482 76 499 58.5 c 128,-1,20
 516 41 516 41 542 41 c 0,21,22
 570 41 570 41 587 57.5 c 128,-1,23
 604 74 604 74 604 100 c 2,24,-1
 604 519 l 1,25,-1
 656 582 l 2,26,27
 665 592 665 592 684 592 c 0,28,29
 707 592 707 592 707 551 c 2,30,-1
 707 117 l 2,31,32
 707 72 707 72 659 32 c 128,-1,33
 611 -8 611 -8 542 -8 c 128,-1,34
 473 -8 473 -8 426 31.5 c 128,-1,35
 379 71 379 71 379 124 c 2,36,-1
 379 401 l 2,37,38
 379 469 379 469 338.5 507 c 128,-1,39
 298 545 298 545 242 545 c 0,40,41
 191 545 191 545 148 513 c 128,-1,42
 105 481 105 481 88 422 c 1,43,-1
 276 422 l 1,44,-1
 276 378 l 1,45,-1
 226 378 l 2,46,47
 186 378 186 378 186 326 c 2,48,-1
 186 183 l 1,49,50
 201 187 201 187 217 187 c 0,51,52
 260 187 260 187 285 159 c 128,-1,53
 310 131 310 131 310 93 c 0,0,1
212 38 m 128,-1,55
 237 38 237 38 251 53.5 c 128,-1,56
 265 69 265 69 265 90 c 0,57,58
 265 112 265 112 251 127.5 c 128,-1,59
 237 143 237 143 212 143 c 128,-1,60
 187 143 187 143 173 127.5 c 128,-1,61
 159 112 159 112 159 90 c 0,62,63
 159 69 159 69 173 53.5 c 128,-1,54
 187 38 187 38 212 38 c 128,-1,55
707 -109 m 2,64,65
 707 -173 707 -173 656 -210.5 c 128,-1,66
 605 -248 605 -248 537 -248 c 0,67,68
 473 -248 473 -248 427.5 -212.5 c 128,-1,69
 382 -177 382 -177 382 -112 c 0,70,71
 382 -84 382 -84 404 -57.5 c 128,-1,72
 426 -31 426 -31 470 -31 c 0,73,74
 508 -31 508 -31 528 -54 c 128,-1,75
 548 -77 548 -77 548 -111 c 0,76,77
 548 -137 548 -137 529.5 -157.5 c 128,-1,78
 511 -178 511 -178 484 -178 c 0,79,80
 482 -178 482 -178 479 -177.5 c 128,-1,81
 476 -177 476 -177 475 -177 c 2,82,-1
 475 -181 l 1,83,84
 497 -197 497 -197 525 -197 c 0,85,86
 559 -197 559 -197 585 -173.5 c 128,-1,87
 611 -150 611 -150 611 -114 c 2,88,-1
 611 -43 l 1,89,-1
 707 -43 l 1,90,-1
 707 -109 l 2,64,65
518 -106 m 128,-1,92
 518 -85 518 -85 504.5 -73.5 c 128,-1,93
 491 -62 491 -62 472 -62 c 0,94,95
 454 -62 454 -62 440.5 -73.5 c 128,-1,96
 427 -85 427 -85 427 -106 c 128,-1,97
 427 -127 427 -127 440.5 -139.5 c 128,-1,98
 454 -152 454 -152 472 -152 c 0,99,100
 491 -152 491 -152 504.5 -139.5 c 128,-1,91
 518 -127 518 -127 518 -106 c 128,-1,92
EndSplineSet
Substitution2: "'ccmp' Pali-Sanskrit Descender Removal" uni0E0D.descless
Substitution2: "Thai Descender Removal Single Substitution" uni0E0D.descless
EndChar

